FiraMonoMz-Medium.sfdir
StartChar: exclam
Encoding: 33 33 984
Width: 600
Flags: W
LayerCount: 2
Fore
SplineSet
347 238 m 1,0,-1
 252 238 l 1,1,-1
 238 690 l 1,2,-1
 360 690 l 1,3,-1
 347 238 l 1,0,-1
353.5 116 m 128,-1,5
 375 94 375 94 375 63 c 0,6,7
 375 31 375 31 353.5 9 c 128,-1,8
 332 -13 332 -13 299 -13 c 0,9,10
 267 -13 267 -13 245.5 9 c 128,-1,11
 224 31 224 31 224 63 c 0,12,13
 224 94 224 94 246 116 c 128,-1,14
 268 138 268 138 299 138 c 0,15,4
 332 138 332 138 353.5 116 c 128,-1,5
EndSplineSet
EndChar
StartChar: quotedbl
Encoding: 34 34 990
Width: 600
Flags: W
LayerCount: 2
Fore
SplineSet
151 740 m 1,0,-1
 273 740 l 1,1,-1
 256 473 l 1,2,-1
 167 473 l 1,3,-1
 151 740 l 1,0,-1
327 740 m 1,4,-1
 449 740 l 1,5,-1
 433 473 l 1,6,-1
 344 473 l 1,7,-1
 327 740 l 1,4,-1
EndSplineSet
EndChar
StartChar: numbersign
Encoding: 35 35 986
Width: 600
Flags: W
LayerCount: 2
Fore
SplineSet
443 240 m 1,0,-1
 517 240 l 1,1,-1
 517 160 l 1,2,-1
 432 160 l 1,3,-1
 411 0 l 1,4,-1
 318 0 l 1,5,-1
 339 160 l 1,6,-1
 212 160 l 1,7,-1
 191 0 l 1,8,-1
 97 0 l 1,9,-1
 118 160 l 1,10,-1
 46 160 l 1,11,-1
 46 240 l 1,12,-1
 128 240 l 1,13,-1
 157 452 l 1,14,-1
 83 452 l 1,15,-1
 83 533 l 1,16,-1
 168 533 l 1,17,-1
 189 690 l 1,18,-1
 283 690 l 1,19,-1
 261 533 l 1,20,-1
 388 533 l 1,21,-1
 409 690 l 1,22,-1
 503 690 l 1,23,-1
 481 533 l 1,24,-1
 554 533 l 1,25,-1
 554 452 l 1,26,-1
 471 452 l 1,27,-1
 443 240 l 1,0,-1
349 240 m 1,28,-1
 378 452 l 1,29,-1
 250 452 l 1,30,-1
 222 240 l 1,31,-1
 349 240 l 1,28,-1
EndSplineSet
Substitution2: "'onum' Oldstyle Figures in Latin lookup 22 subtable" numbersign.tosf
Substitution2: "'aalt' Access All Alternates in Latin lookup 0 subtable" numbersign.tosf
EndChar
StartChar: dollar
Encoding: 36 36 1057
Width: 600
GlyphClass: 2
Flags: W
LayerCount: 2
Fore
SplineSet
347 702 m 1,0,1
 404 696 404 696 452 674.5 c 128,-1,2
 500 653 500 653 535 622 c 1,3,-1
 475 559 l 1,4,5
 418 608 418 608 347 616 c 1,6,-1
 347 409 l 1,7,8
 442 378 442 378 494 328.5 c 128,-1,9
 546 279 546 279 546 195 c 0,10,11
 546 116 546 116 494 59.5 c 128,-1,12
 442 3 442 3 347 -9 c 1,13,-1
 347 -156 l 1,14,-1
 274 -156 l 1,15,-1
 274 -12 l 1,16,17
 207 -8 207 -8 152.5 18 c 128,-1,18
 98 44 98 44 59 82 c 1,19,-1
 119 150 l 1,20,21
 191 81 191 81 274 76 c 1,22,-1
 274 326 l 1,23,24
 177 358 177 358 130.5 405 c 128,-1,25
 84 452 84 452 84 522 c 256,26,27
 84 592 84 592 134.5 642 c 128,-1,28
 185 692 185 692 274 701 c 1,29,-1
 274 851 l 1,30,-1
 347 851 l 1,31,-1
 347 702 l 1,0,1
214.5 586 m 128,-1,33
 193 564 193 564 193 529 c 0,34,35
 193 497 193 497 210 475.5 c 128,-1,36
 227 454 227 454 274 434 c 1,37,-1
 274 615 l 1,38,32
 236 608 236 608 214.5 586 c 128,-1,33
347 79 m 1,39,40
 433 97 433 97 433 187 c 0,41,42
 433 225 433 225 414 251.5 c 128,-1,43
 395 278 395 278 347 300 c 1,44,-1
 347 79 l 1,39,40
EndSplineSet
Substitution2: "'onum' Oldstyle Figures in Latin lookup 22 subtable" dollar.tosf
Substitution2: "'aalt' Access All Alternates in Latin lookup 0 subtable" dollar.tosf
EndChar
StartChar: percent
Encoding: 37 37 1102
Width: 600
GlyphClass: 2
Flags: W
LayerCount: 2
Fore
SplineSet
540 675 m 1,0,-1
 116 -23 l 1,1,-1
 52 12 l 1,2,-1
 475 710 l 1,3,-1
 540 675 l 1,0,-1
265 659 m 128,-1,5
 304 614 304 614 304 545 c 256,6,7
 304 476 304 476 265 430.5 c 128,-1,8
 226 385 226 385 159 385 c 256,9,10
 92 385 92 385 52.5 430.5 c 128,-1,11
 13 476 13 476 13 545 c 0,12,13
 13 613 13 613 52.5 658.5 c 128,-1,14
 92 704 92 704 159 704 c 256,15,4
 226 704 226 704 265 659 c 128,-1,5
115 613.5 m 128,-1,17
 100 590 100 590 100 545 c 0,18,19
 100 501 100 501 115.5 476 c 128,-1,20
 131 451 131 451 159 451 c 256,21,22
 187 451 187 451 202 474.5 c 128,-1,23
 217 498 217 498 217 545 c 0,24,25
 217 637 217 637 159 637 c 0,26,16
 130 637 130 637 115 613.5 c 128,-1,17
549 268 m 128,-1,28
 588 223 588 223 588 154 c 256,29,30
 588 85 588 85 549 39.5 c 128,-1,31
 510 -6 510 -6 443 -6 c 256,32,33
 376 -6 376 -6 336.5 39.5 c 128,-1,34
 297 85 297 85 297 154 c 0,35,36
 297 222 297 222 336.5 267.5 c 128,-1,37
 376 313 376 313 443 313 c 256,38,27
 510 313 510 313 549 268 c 128,-1,28
384 154 m 0,40,41
 384 109 384 109 399.5 84.5 c 128,-1,42
 415 60 415 60 443 60 c 0,43,44
 501 60 501 60 501 154 c 0,45,46
 501 246 501 246 443 246 c 0,47,39
 384 246 384 246 384 154 c 0,40,41
EndSplineSet
Substitution2: "'onum' Oldstyle Figures in Latin lookup 22 subtable" percent.tosf
Substitution2: "'aalt' Access All Alternates in Latin lookup 0 subtable" percent.tosf
EndChar
StartChar: ampersand
Encoding: 38 38 1378
Width: 600
VWidth: 2048
GlyphClass: 2
Flags: W
LayerCount: 2
Fore
SplineSet
18.5 186.5 m 0,0,1
 18.5 221.703476621 18.5 221.703476621 29.0640001787 251.81087713 c 0,2,3
 39.5497366202 281.695225989 39.5497366202 281.695225989 58.412639157 307.631716977 c 0,4,5
 77.0465892626 333.253398372 77.0465892626 333.253398372 102.851726357 356.219970386 c 0,6,7
 124.648633359 375.619217617 124.648633359 375.619217617 150.989015109 394.77298079 c 1,8,9
 120.92188604 436.877150594 120.92188604 436.877150594 102.761782378 474.116856839 c 0,10,11
 82 516.691651081 82 516.691651081 82 563 c 0,12,13
 82 607.377917809 82 607.377917809 95.4312888937 641.877895164 c 0,14,15
 108.995326834 676.718855363 108.995326834 676.718855363 134.124696538 700.511556466 c 128,-1,16
 159.182914782 724.23689076 159.182914782 724.23689076 194.209244984 736.443036134 c 0,17,18
 228.807489122 748.5 228.807489122 748.5 271.5 748.5 c 0,19,20
 309.063412279 748.5 309.063412279 748.5 339.958293476 735.183240864 c 128,-1,21
 370.831873691 721.875663185 370.831873691 721.875663185 392.489353579 699.148678117 c 128,-1,22
 414.091064299 676.48021625 414.091064299 676.48021625 425.807514934 646.656523724 c 128,-1,23
 437.5 616.893834466 437.5 616.893834466 437.5 584 c 0,24,25
 437.5 555.77161319 437.5 555.77161319 429.169866263 532.393495929 c 0,26,27
 420.939756913 509.296092269 420.939756913 509.296092269 406.351166941 489.137313398 c 0,28,29
 391.970115716 469.265315342 391.970115716 469.265315342 372.167948595 451.547586865 c 0,30,31
 353.216945542 434.591426239 353.216945542 434.591426239 330.742054963 417.681090076 c 2,32,-1
 291.19527512 384.024256167 l 1,33,-1
 429.32412229 202.702023563 l 1,34,35
 441.331999971 228.055365298 441.331999971 228.055365298 448.829254627 256.544932993 c 0,36,37
 458.514690606 293.349589713 458.514690606 293.349589713 459.000645599 336.113629027 c 2,38,-1
 459.112990723 346 l 1,39,-1
 469 346 l 1,40,-1
 552.5 346 l 1,41,-1
 562.5 346 l 1,42,-1
 562.5 336 l 2,43,44
 562.5 270.377223398 562.5 270.377223398 543.736832981 214.08772234 c 0,45,46
 526.260067815 161.657426845 526.260067815 161.657426845 493.620258414 118.450895583 c 1,47,-1
 579.44738404 6.0695211444 l 1,48,-1
 591.71988753 -10 l 1,49,-1
 571.5 -10 l 1,50,-1
 461 -10 l 1,51,-1
 456.018129041 -10 l 1,52,-1
 453.017450176 -6.02319668528 l 1,53,-1
 417.79459626 40.6576940475 l 1,54,55
 382.31616833 12.7458606497 382.31616833 12.7458606497 341.522755799 -2.60896316797 c 0,56,57
 295.319702723 -20 295.319702723 -20 244.5 -20 c 0,58,59
 193.243425656 -20 193.243425656 -20 151.592006764 -4.90136065162 c 0,60,61
 109.683266 10.2905578752 109.683266 10.2905578752 80.1954890063 37.6720650837 c 128,-1,62
 50.6174839884 65.1373554575 50.6174839884 65.1373554575 34.532450088 103.372272106 c 128,-1,63
 18.5 141.482194446 18.5 141.482194446 18.5 186.5 c 0,0,1
244.5 75 m 0,64,65
 278.101310999 75 278.101310999 75 309.334754816 87.3040839282 c 0,66,67
 336.431265907 97.9784670853 336.431265907 97.9784670853 360.716913333 116.716749171 c 1,68,-1
 211.40103451 315.958680355 l 1,69,-1
 205.42511875 310.836466847 l 2,70,71
 181.16500014 290.943169587 181.16500014 290.943169587 166.328232548 272.277558744 c 128,-1,72
 151.53280287 253.663953665 151.53280287 253.663953665 143.771342216 237.435445027 c 128,-1,73
 136.075471626 221.344079246 136.075471626 221.344079246 133.568833716 208.355137353 c 0,74,75
 131 195.043908096 131 195.043908096 131 186.5 c 0,76,77
 131 162.761749777 131 162.761749777 138.397934235 142.417430631 c 0,78,79
 145.695597822 122.348855768 145.695597822 122.348855768 159.788480721 107.346754617 c 128,-1,80
 173.811464549 92.419062154 173.811464549 92.419062154 194.817601544 83.7426142649 c 128,-1,81
 215.983930817 75 215.983930817 75 244.5 75 c 0,64,65
195 564 m 0,82,83
 195 538.047200239 195 538.047200239 206.695510618 510.679705392 c 0,84,85
 217.083707725 486.371324163 217.083707725 486.371324163 234.737026928 459.552425206 c 1,86,-1
 284.777558744 499.328232548 l 1,87,-1
 285.075944226 499.565410751 l 2,88,89
 299.810623499 509.546967678 299.810623499 509.546967678 308.953944778 520.061787149 c 128,-1,90
 318.036096063 530.506261127 318.036096063 530.506261127 322.943097734 540.98940106 c 128,-1,91
 327.905133452 551.590113729 327.905133452 551.590113729 329.921278131 562.342885351 c 0,92,93
 332 573.429401987 332 573.429401987 332 584 c 0,94,95
 332 597.377223398 332 597.377223398 327.763167019 610.08772234 c 0,96,97
 323.635756616 622.46995355 323.635756616 622.46995355 315.669891262 631.727580853 c 128,-1,98
 307.678829018 641.014491029 307.678829018 641.014491029 296.391847294 646.875039232 c 0,99,100
 285.558589518 652.5 285.558589518 652.5 271.5 652.5 c 0,101,102
 252.328119608 652.5 252.328119608 652.5 238.166840251 645.52829324 c 128,-1,103
 223.927059064 638.517939424 223.927059064 638.517939424 214.572801445 626.770732182 c 0,104,105
 204.99499857 614.742793688 204.99499857 614.742793688 200.051953675 598.790239706 c 0,106,107
 195 582.486207392 195 582.486207392 195 564 c 0,82,83
EndSplineSet
EndChar
StartChar: parenleft
Encoding: 40 40 1006
Width: 600
Flags: W
LayerCount: 2
Fore
SplineSet
252 183 m 128,-1,1
 273 111 273 111 316.5 48 c 128,-1,2
 360 -15 360 -15 435 -87 c 1,3,-1
 374 -147 l 1,4,5
 244 -39 244 -39 180 75.5 c 128,-1,6
 116 190 116 190 116 350 c 256,7,8
 116 510 116 510 180 624.5 c 128,-1,9
 244 739 244 739 374 847 c 1,10,-1
 435 787 l 1,11,12
 361 716 361 716 317.5 653.5 c 128,-1,13
 274 591 274 591 252.5 518 c 128,-1,14
 231 445 231 445 231 350 c 256,15,0
 231 255 231 255 252 183 c 128,-1,1
EndSplineSet
Substitution2: "'case' Case-Sensitive Forms in Latin lookup 23 subtable" parenleft.case
Substitution2: "'dnom' Denominators in Latin lookup 15 subtable" parenleft.dnom
Substitution2: "'numr' Numerators in Latin lookup 14 subtable" parenleft.numr
Substitution2: "'sups' Superscript in Latin lookup 13 subtable" uni207D
Substitution2: "'subs' Subscript in Latin lookup 12 subtable" uni208D
AlternateSubs2: "'aalt' Access All Alternates in Latin lookup 1 subtable" uni208D uni207D parenleft.numr parenleft.dnom parenleft.case
EndChar
StartChar: parenright
Encoding: 41 41 1007
Width: 600
Flags: W
LayerCount: 2
Fore
SplineSet
347.5 518 m 128,-1,1
 326 591 326 591 282.5 653.5 c 128,-1,2
 239 716 239 716 165 787 c 1,3,-1
 226 847 l 1,4,5
 356 739 356 739 420 624.5 c 128,-1,6
 484 510 484 510 484 350 c 256,7,8
 484 190 484 190 420 75.5 c 128,-1,9
 356 -39 356 -39 226 -147 c 1,10,-1
 165 -87 l 1,11,12
 240 -15 240 -15 283.5 48 c 128,-1,13
 327 111 327 111 348 183 c 128,-1,14
 369 255 369 255 369 350 c 256,15,0
 369 445 369 445 347.5 518 c 128,-1,1
EndSplineSet
Substitution2: "'case' Case-Sensitive Forms in Latin lookup 23 subtable" parenright.case
Substitution2: "'dnom' Denominators in Latin lookup 15 subtable" parenright.dnom
Substitution2: "'numr' Numerators in Latin lookup 14 subtable" parenright.numr
Substitution2: "'sups' Superscript in Latin lookup 13 subtable" uni207E
Substitution2: "'subs' Subscript in Latin lookup 12 subtable" uni208E
AlternateSubs2: "'aalt' Access All Alternates in Latin lookup 1 subtable" uni208E uni207E parenright.numr parenright.dnom parenright.case
EndChar
StartChar: asterisk
Encoding: 42 42 977
Width: 600
Flags: W
LayerCount: 2
Fore
SplineSet
334 369 m 1,0,-1
 480 432 l 1,1,-1
 511 335 l 1,2,-1
 357 303 l 1,3,-1
 465 187 l 1,4,-1
 382 124 l 1,5,-1
 300 262 l 1,6,-1
 224 122 l 1,7,-1
 138 182 l 1,8,-1
 244 303 l 1,9,-1
 89 335 l 1,10,-1
 120 432 l 1,11,-1
 265 369 l 1,12,-1
 248 528 l 1,13,-1
 352 528 l 1,14,-1
 334 369 l 1,0,-1
EndSplineSet
EndChar
StartChar: comma
Encoding: 44 44 982
Width: 600
Flags: W
LayerCount: 2
Fore
SplineSet
365.5 154 m 128,-1,1
 392 128 392 128 392 90 c 0,2,3
 392 68 392 68 385.5 46 c 128,-1,4
 379 24 379 24 363 -11 c 2,5,-1
 286 -188 l 1,6,-1
 199 -188 l 1,7,-1
 247 15 l 1,8,9
 230 27 230 27 219.5 47 c 128,-1,10
 209 67 209 67 209 90 c 0,11,12
 209 128 209 128 235.5 154 c 128,-1,13
 262 180 262 180 300 180 c 0,14,0
 339 180 339 180 365.5 154 c 128,-1,1
EndSplineSet
EndChar
StartChar: hyphen
Encoding: 45 45 1024
Width: 600
Flags: W
LayerCount: 2
Fore
SplineSet
119 359 m 1,0,-1
 481 359 l 1,1,-1
 481 267 l 1,2,-1
 119 267 l 1,3,-1
 119 359 l 1,0,-1
EndSplineSet
Substitution2: "'case' Case-Sensitive Forms in Latin lookup 23 subtable" hyphen.case
Substitution2: "'aalt' Access All Alternates in Latin lookup 0 subtable" hyphen.case
EndChar
StartChar: period
Encoding: 46 46 987
Width: 600
Flags: W
LayerCount: 2
Fore
SplineSet
231 152 m 128,-1,1
 259 180 259 180 299 180 c 0,2,3
 340 180 340 180 368 152 c 128,-1,4
 396 124 396 124 396 84 c 0,5,6
 396 43 396 43 368 15 c 128,-1,7
 340 -13 340 -13 299 -13 c 0,8,9
 259 -13 259 -13 231 15 c 128,-1,10
 203 43 203 43 203 84 c 0,11,0
 203 124 203 124 231 152 c 128,-1,1
EndSplineSet
EndChar
StartChar: slash
Encoding: 47 47 993
Width: 600
Flags: W
LayerCount: 2
Fore
SplineSet
44 -66 m 1,0,-1
 468 812 l 1,1,-1
 556 771 l 1,2,-1
 133 -106 l 1,3,-1
 44 -66 l 1,0,-1
EndSplineSet
Substitution2: "'frac' Diagonal Fractions in Latin lookup 16 subtable" fraction
Substitution2: "'aalt' Access All Alternates in Latin lookup 0 subtable" fraction
EndChar
StartChar: zero
Encoding: 48 48 898
Width: 600
Flags: W
LayerCount: 2
Fore
SplineSet
475 611.5 m 128,-1,1
 535 519 535 519 535 346 c 256,2,3
 535 173 535 173 475 80 c 128,-1,4
 415 -13 415 -13 300 -13 c 256,5,6
 185 -13 185 -13 125 80 c 128,-1,7
 65 173 65 173 65 346 c 256,8,9
 65 519 65 519 125 611.5 c 128,-1,10
 185 704 185 704 300 704 c 256,11,0
 415 704 415 704 475 611.5 c 128,-1,1
209 553 m 128,-1,13
 178 488 178 488 178 346 c 0,14,15
 178 202 178 202 209 137 c 128,-1,16
 240 72 240 72 300 72 c 256,17,18
 360 72 360 72 391 137 c 128,-1,19
 422 202 422 202 422 346 c 0,20,21
 422 489 422 489 391 553.5 c 128,-1,22
 360 618 360 618 300 618 c 256,23,12
 240 618 240 618 209 553 c 128,-1,13
347 391 m 128,-1,25
 366 372 366 372 366 345 c 0,26,27
 366 317 366 317 347 298 c 128,-1,28
 328 279 328 279 300 279 c 256,29,30
 272 279 272 279 253.5 298 c 128,-1,31
 235 317 235 317 235 345 c 0,32,33
 235 372 235 372 253.5 391 c 128,-1,34
 272 410 272 410 300 410 c 256,35,24
 328 410 328 410 347 391 c 128,-1,25
EndSplineSet
Substitution2: "'zero' Slashed Zero in Latin lookup 25 subtable" zero.zero
Substitution2: "'onum' Oldstyle Figures in Latin lookup 22 subtable" zero.tosf
Substitution2: "'frac' Diagonal Fractions in Latin lookup 17 subtable" zero.numr
Substitution2: "'dnom' Denominators in Latin lookup 15 subtable" zero.dnom
Substitution2: "'numr' Numerators in Latin lookup 14 subtable" zero.numr
Substitution2: "'sups' Superscript in Latin lookup 13 subtable" uni2070
Substitution2: "'subs' Subscript in Latin lookup 12 subtable" uni2080
AlternateSubs2: "'aalt' Access All Alternates in Latin lookup 1 subtable" uni2080 uni2070 zero.numr zero.dnom zero.tosf zero.zero
EndChar
StartChar: two
Encoding: 50 50 900
Width: 600
Flags: W
LayerCount: 2
Fore
SplineSet
389.5 678 m 128,-1,1
 439 652 439 652 465 608 c 128,-1,2
 491 564 491 564 491 509 c 0,3,4
 491 448 491 448 463 390.5 c 128,-1,5
 435 333 435 333 372 263.5 c 128,-1,6
 309 194 309 194 194 90 c 1,7,-1
 507 90 l 1,8,-1
 495 0 l 1,9,-1
 66 0 l 1,10,-1
 66 85 l 1,11,12
 196 210 196 210 260 280.5 c 128,-1,13
 324 351 324 351 350 401 c 128,-1,14
 376 451 376 451 376 502 c 0,15,16
 376 554 376 554 346 584 c 128,-1,17
 316 614 316 614 264 614 c 0,18,19
 219 614 219 614 187.5 597.5 c 128,-1,20
 156 581 156 581 124 542 c 1,21,-1
 52 598 l 1,22,23
 93 651 93 651 146 677.5 c 128,-1,24
 199 704 199 704 272 704 c 0,25,0
 340 704 340 704 389.5 678 c 128,-1,1
EndSplineSet
Substitution2: "'onum' Oldstyle Figures in Latin lookup 22 subtable" two.tosf
Substitution2: "'frac' Diagonal Fractions in Latin lookup 17 subtable" two.numr
Substitution2: "'dnom' Denominators in Latin lookup 15 subtable" two.dnom
Substitution2: "'numr' Numerators in Latin lookup 14 subtable" two.numr
Substitution2: "'sups' Superscript in Latin lookup 13 subtable" uni00B2
Substitution2: "'subs' Subscript in Latin lookup 12 subtable" uni2082
AlternateSubs2: "'aalt' Access All Alternates in Latin lookup 1 subtable" uni2082 uni00B2 two.numr two.dnom two.tosf
EndChar
StartChar: three
Encoding: 51 51 901
Width: 600
Flags: W
LayerCount: 2
Fore
SplineSet
387 680.5 m 128,-1,1
 437 657 437 657 464 617 c 128,-1,2
 491 577 491 577 491 529 c 0,3,4
 491 467 491 467 452.5 424 c 128,-1,5
 414 381 414 381 354 367 c 1,6,7
 424 360 424 360 468.5 317 c 128,-1,8
 513 274 513 274 513 197 c 0,9,10
 513 138 513 138 482 90 c 128,-1,11
 451 42 451 42 394 14.5 c 128,-1,12
 337 -13 337 -13 263 -13 c 0,13,14
 196 -13 196 -13 137 11.5 c 128,-1,15
 78 36 78 36 39 83 c 1,16,-1
 108 143 l 1,17,18
 136 109 136 109 175 92 c 128,-1,19
 214 75 214 75 257 75 c 0,20,21
 322 75 322 75 359.5 109 c 128,-1,22
 397 143 397 143 397 201 c 0,23,24
 397 322 397 322 263 322 c 2,25,-1
 204 322 l 1,26,-1
 217 404 l 1,27,-1
 259 404 l 2,28,29
 311 404 311 404 345.5 432 c 128,-1,30
 380 460 380 460 380 513 c 0,31,32
 380 562 380 562 347 589.5 c 128,-1,33
 314 617 314 617 261 617 c 0,34,35
 219 617 219 617 185 602 c 128,-1,36
 151 587 151 587 118 555 c 1,37,-1
 59 619 l 1,38,39
 147 704 147 704 270 704 c 0,40,0
 337 704 337 704 387 680.5 c 128,-1,1
EndSplineSet
Substitution2: "'onum' Oldstyle Figures in Latin lookup 22 subtable" three.tosf
Substitution2: "'frac' Diagonal Fractions in Latin lookup 17 subtable" three.numr
Substitution2: "'dnom' Denominators in Latin lookup 15 subtable" three.dnom
Substitution2: "'numr' Numerators in Latin lookup 14 subtable" three.numr
Substitution2: "'sups' Superscript in Latin lookup 13 subtable" uni00B3
Substitution2: "'subs' Subscript in Latin lookup 12 subtable" uni2083
AlternateSubs2: "'aalt' Access All Alternates in Latin lookup 1 subtable" uni2083 uni00B3 three.numr three.dnom three.tosf
EndChar
StartChar: four
Encoding: 52 52 902
Width: 600
Flags: W
LayerCount: 2
Fore
SplineSet
538 159 m 1,0,-1
 456 159 l 1,1,-1
 456 0 l 1,2,-1
 348 0 l 1,3,-1
 348 159 l 1,4,-1
 62 159 l 1,5,-1
 62 237 l 1,6,-1
 260 704 l 1,7,-1
 354 667 l 1,8,-1
 179 246 l 1,9,-1
 349 246 l 1,10,-1
 360 430 l 1,11,-1
 456 430 l 1,12,-1
 456 246 l 1,13,-1
 538 246 l 1,14,-1
 538 159 l 1,0,-1
EndSplineSet
Substitution2: "'onum' Oldstyle Figures in Latin lookup 22 subtable" four.tosf
Substitution2: "'frac' Diagonal Fractions in Latin lookup 17 subtable" four.numr
Substitution2: "'dnom' Denominators in Latin lookup 15 subtable" four.dnom
Substitution2: "'numr' Numerators in Latin lookup 14 subtable" four.numr
Substitution2: "'sups' Superscript in Latin lookup 13 subtable" uni2074
Substitution2: "'subs' Subscript in Latin lookup 12 subtable" uni2084
AlternateSubs2: "'aalt' Access All Alternates in Latin lookup 1 subtable" uni2084 uni2074 four.numr four.dnom four.tosf
EndChar
StartChar: five
Encoding: 53 53 903
Width: 600
Flags: W
LayerCount: 2
Fore
SplineSet
483 606 m 1,0,-1
 218 606 l 1,1,-1
 218 414 l 1,2,3
 271 441 271 441 331 441 c 0,4,5
 386 441 386 441 429.5 415 c 128,-1,6
 473 389 473 389 497.5 339.5 c 128,-1,7
 522 290 522 290 522 222 c 0,8,9
 522 153 522 153 491 99.5 c 128,-1,10
 460 46 460 46 404 16.5 c 128,-1,11
 348 -13 348 -13 274 -13 c 0,12,13
 147 -13 147 -13 63 77 c 1,14,-1
 129 140 l 1,15,16
 188 75 188 75 269 75 c 0,17,18
 333 75 333 75 369 113.5 c 128,-1,19
 405 152 405 152 405 222 c 0,20,21
 405 294 405 294 374.5 326.5 c 128,-1,22
 344 359 344 359 292 359 c 0,23,24
 268 359 268 359 245.5 353.5 c 128,-1,25
 223 348 223 348 194 336 c 1,26,-1
 111 336 l 1,27,-1
 111 690 l 1,28,-1
 498 690 l 1,29,-1
 483 606 l 1,0,-1
EndSplineSet
Substitution2: "'onum' Oldstyle Figures in Latin lookup 22 subtable" five.tosf
Substitution2: "'frac' Diagonal Fractions in Latin lookup 17 subtable" five.numr
Substitution2: "'dnom' Denominators in Latin lookup 15 subtable" five.dnom
Substitution2: "'numr' Numerators in Latin lookup 14 subtable" five.numr
Substitution2: "'sups' Superscript in Latin lookup 13 subtable" uni2075
Substitution2: "'subs' Subscript in Latin lookup 12 subtable" uni2085
AlternateSubs2: "'aalt' Access All Alternates in Latin lookup 1 subtable" uni2085 uni2075 five.numr five.dnom five.tosf
EndChar
StartChar: six
Encoding: 54 54 904
Width: 600
Flags: W
LayerCount: 2
Fore
SplineSet
440 429 m 128,-1,1
 484 404 484 404 510 354 c 128,-1,2
 536 304 536 304 536 233 c 0,3,4
 536 160 536 160 506.5 104 c 128,-1,5
 477 48 477 48 425.5 17.5 c 128,-1,6
 374 -13 374 -13 308 -13 c 0,7,8
 184 -13 184 -13 126 76.5 c 128,-1,9
 68 166 68 166 68 321 c 0,10,11
 68 436 68 436 100.5 522.5 c 128,-1,12
 133 609 133 609 195 656.5 c 128,-1,13
 257 704 257 704 341 704 c 0,14,15
 420 704 420 704 483 662 c 1,16,-1
 440 590 l 1,17,18
 394 619 394 619 341 619 c 0,19,20
 271 619 271 619 229 553.5 c 128,-1,21
 187 488 187 488 183 373 c 1,22,23
 244 454 244 454 341 454 c 0,24,0
 396 454 396 454 440 429 c 128,-1,1
394 114 m 128,-1,26
 423 156 423 156 423 228 c 0,27,28
 423 371 423 371 318 371 c 0,29,30
 278 371 278 371 243.5 349.5 c 128,-1,31
 209 328 209 328 184 290 c 1,32,33
 186 177 186 177 215 124.5 c 128,-1,34
 244 72 244 72 309 72 c 0,35,25
 365 72 365 72 394 114 c 128,-1,26
EndSplineSet
Substitution2: "'onum' Oldstyle Figures in Latin lookup 22 subtable" six.tosf
Substitution2: "'frac' Diagonal Fractions in Latin lookup 17 subtable" six.numr
Substitution2: "'dnom' Denominators in Latin lookup 15 subtable" six.dnom
Substitution2: "'numr' Numerators in Latin lookup 14 subtable" six.numr
Substitution2: "'sups' Superscript in Latin lookup 13 subtable" uni2076
Substitution2: "'subs' Subscript in Latin lookup 12 subtable" uni2086
AlternateSubs2: "'aalt' Access All Alternates in Latin lookup 1 subtable" uni2086 uni2076 six.numr six.dnom six.tosf
EndChar
StartChar: eight
Encoding: 56 56 906
Width: 600
Flags: W
LayerCount: 2
Fore
SplineSet
487 441 m 128,-1,1
 459 405 459 405 401 372 c 1,2,3
 470 341 470 341 506.5 294 c 128,-1,4
 543 247 543 247 543 186 c 0,5,6
 543 130 543 130 513.5 84.5 c 128,-1,7
 484 39 484 39 428.5 13 c 128,-1,8
 373 -13 373 -13 298 -13 c 0,9,10
 222 -13 222 -13 167.5 13 c 128,-1,11
 113 39 113 39 85 83.5 c 128,-1,12
 57 128 57 128 57 183 c 0,13,14
 57 301 57 301 191 361 c 1,15,16
 135 390 135 390 110 426.5 c 128,-1,17
 85 463 85 463 85 520 c 0,18,19
 85 579 85 579 115.5 620.5 c 128,-1,20
 146 662 146 662 195.5 683 c 128,-1,21
 245 704 245 704 300 704 c 0,22,23
 359 704 359 704 407.5 683.5 c 128,-1,24
 456 663 456 663 485.5 623 c 128,-1,25
 515 583 515 583 515 526 c 0,26,0
 515 477 515 477 487 441 c 128,-1,1
208 465 m 128,-1,28
 223 444 223 444 250 430.5 c 128,-1,29
 277 417 277 417 325 400 c 1,30,31
 369 427 369 427 388 454 c 128,-1,32
 407 481 407 481 407 520 c 0,33,34
 407 567 407 567 379 594.5 c 128,-1,35
 351 622 351 622 300 622 c 256,36,37
 249 622 249 622 221 595 c 128,-1,38
 193 568 193 568 193 519 c 0,39,27
 193 486 193 486 208 465 c 128,-1,28
409 250.5 m 128,-1,41
 390 276 390 276 357.5 292 c 128,-1,42
 325 308 325 308 263 330 c 1,43,44
 172 283 172 283 172 187 c 0,45,46
 172 133 172 133 204.5 102.5 c 128,-1,47
 237 72 237 72 299 72 c 256,48,49
 361 72 361 72 394.5 103.5 c 128,-1,50
 428 135 428 135 428 185 c 0,51,40
 428 225 428 225 409 250.5 c 128,-1,41
EndSplineSet
Substitution2: "'onum' Oldstyle Figures in Latin lookup 22 subtable" eight.tosf
Substitution2: "'frac' Diagonal Fractions in Latin lookup 17 subtable" eight.numr
Substitution2: "'dnom' Denominators in Latin lookup 15 subtable" eight.dnom
Substitution2: "'numr' Numerators in Latin lookup 14 subtable" eight.numr
Substitution2: "'sups' Superscript in Latin lookup 13 subtable" uni2078
Substitution2: "'subs' Subscript in Latin lookup 12 subtable" uni2088
AlternateSubs2: "'aalt' Access All Alternates in Latin lookup 1 subtable" uni2088 uni2078 eight.numr eight.dnom eight.tosf
EndChar
StartChar: nine
Encoding: 57 57 907
Width: 600
Flags: W
LayerCount: 2
Fore
SplineSet
468 631 m 128,-1,1
 528 559 528 559 528 433 c 0,2,3
 528 293 528 293 488 204.5 c 128,-1,4
 448 116 448 116 364.5 63.5 c 128,-1,5
 281 11 281 11 140 -24 c 1,6,-1
 115 57 l 1,7,8
 254 94 254 94 327 155.5 c 128,-1,9
 400 217 400 217 410 321 c 1,10,11
 346 248 346 248 255 247 c 0,12,13
 199 247 199 247 154 274 c 128,-1,14
 109 301 109 301 83.5 351 c 128,-1,15
 58 401 58 401 58 468 c 0,16,17
 58 541 58 541 88.5 594 c 128,-1,18
 119 647 119 647 172 675 c 128,-1,19
 225 703 225 703 292 703 c 0,20,0
 408 703 408 703 468 631 c 128,-1,1
353 350 m 128,-1,22
 384 368 384 368 412 402 c 1,23,24
 414 519 414 519 386.5 568.5 c 128,-1,25
 359 618 359 618 291 618 c 0,26,27
 233 618 233 618 202.5 580 c 128,-1,28
 172 542 172 542 172 468 c 0,29,30
 172 397 172 397 201 364 c 128,-1,31
 230 331 230 331 283 331 c 0,32,21
 322 332 322 332 353 350 c 128,-1,22
EndSplineSet
Substitution2: "'onum' Oldstyle Figures in Latin lookup 22 subtable" nine.tosf
Substitution2: "'frac' Diagonal Fractions in Latin lookup 17 subtable" nine.numr
Substitution2: "'dnom' Denominators in Latin lookup 15 subtable" nine.dnom
Substitution2: "'numr' Numerators in Latin lookup 14 subtable" nine.numr
Substitution2: "'sups' Superscript in Latin lookup 13 subtable" uni2079
Substitution2: "'subs' Subscript in Latin lookup 12 subtable" uni2089
AlternateSubs2: "'aalt' Access All Alternates in Latin lookup 1 subtable" uni2089 uni2079 nine.numr nine.dnom nine.tosf
EndChar
StartChar: colon
Encoding: 58 58 981
Width: 600
Flags: W
LayerCount: 2
Fore
SplineSet
236 495.5 m 128,-1,1
 262 522 262 522 299 522 c 0,2,3
 337 522 337 522 363 495.5 c 128,-1,4
 389 469 389 469 389 432 c 256,5,6
 389 395 389 395 363 368.5 c 128,-1,7
 337 342 337 342 299 342 c 0,8,9
 262 342 262 342 236 368.5 c 128,-1,10
 210 395 210 395 210 432 c 256,11,0
 210 469 210 469 236 495.5 c 128,-1,1
236 140 m 128,-1,13
 262 166 262 166 299 166 c 0,14,15
 338 166 338 166 363.5 140 c 128,-1,16
 389 114 389 114 389 77 c 0,17,18
 389 39 389 39 363.5 13 c 128,-1,19
 338 -13 338 -13 299 -13 c 0,20,21
 262 -13 262 -13 236 13 c 128,-1,22
 210 39 210 39 210 77 c 0,23,12
 210 114 210 114 236 140 c 128,-1,13
EndSplineSet
EndChar
StartChar: semicolon
Encoding: 59 59 992
Width: 600
Flags: W
LayerCount: 2
Fore
SplineSet
363 495.5 m 128,-1,1
 389 469 389 469 389 432 c 256,2,3
 389 395 389 395 363 368.5 c 128,-1,4
 337 342 337 342 299 342 c 0,5,6
 262 342 262 342 236 368.5 c 128,-1,7
 210 395 210 395 210 432 c 256,8,9
 210 469 210 469 236 495.5 c 128,-1,10
 262 522 262 522 299 522 c 0,11,0
 337 522 337 522 363 495.5 c 128,-1,1
363.5 152 m 128,-1,13
 389 126 389 126 389 88 c 0,14,15
 389 67 389 67 383 44.5 c 128,-1,16
 377 22 377 22 362 -11 c 2,17,-1
 285 -187 l 1,18,-1
 199 -187 l 1,19,-1
 247 14 l 1,20,21
 230 26 230 26 220 46 c 128,-1,22
 210 66 210 66 210 88 c 0,23,24
 210 126 210 126 235.5 152 c 128,-1,25
 261 178 261 178 299 178 c 0,26,12
 338 178 338 178 363.5 152 c 128,-1,13
EndSplineSet
EndChar
StartChar: less
Encoding: 60 60 1092
Width: 600
GlyphClass: 2
Flags: W
LayerCount: 2
Fore
SplineSet
520 520 m 1,0,-1
 177 313 l 1,1,-1
 520 107 l 1,2,-1
 465 26 l 1,3,-1
 81 265 l 1,4,-1
 81 362 l 1,5,-1
 468 601 l 1,6,-1
 520 520 l 1,0,-1
EndSplineSet
Substitution2: "'onum' Oldstyle Figures in Latin lookup 22 subtable" less.tosf
Substitution2: "'aalt' Access All Alternates in Latin lookup 0 subtable" less.tosf
EndChar
StartChar: equal
Encoding: 61 61 1081
Width: 600
GlyphClass: 2
Flags: W
LayerCount: 2
Fore
SplineSet
507 364 m 1,0,-1
 93 364 l 1,1,-1
 93 456 l 1,2,-1
 507 456 l 1,3,-1
 507 364 l 1,0,-1
507 167 m 1,4,-1
 93 167 l 1,5,-1
 93 258 l 1,6,-1
 507 258 l 1,7,-1
 507 167 l 1,4,-1
EndSplineSet
Substitution2: "'onum' Oldstyle Figures in Latin lookup 22 subtable" equal.tosf
Substitution2: "'dnom' Denominators in Latin lookup 15 subtable" equal.dnom
Substitution2: "'numr' Numerators in Latin lookup 14 subtable" equal.numr
Substitution2: "'sups' Superscript in Latin lookup 13 subtable" uni207C
AlternateSubs2: "'aalt' Access All Alternates in Latin lookup 1 subtable" uni207C equal.numr equal.dnom equal.tosf
EndChar
StartChar: greater
Encoding: 62 62 1085
Width: 600
GlyphClass: 2
Flags: W
LayerCount: 2
Fore
SplineSet
520 362 m 1,0,-1
 520 265 l 1,1,-1
 136 26 l 1,2,-1
 81 106 l 1,3,-1
 423 313 l 1,4,-1
 81 518 l 1,5,-1
 133 601 l 1,6,-1
 520 362 l 1,0,-1
EndSplineSet
Substitution2: "'onum' Oldstyle Figures in Latin lookup 22 subtable" greater.tosf
Substitution2: "'aalt' Access All Alternates in Latin lookup 0 subtable" greater.tosf
EndChar
StartChar: question
Encoding: 63 63 988
Width: 600
Flags: W
LayerCount: 2
Fore
SplineSet
410.5 682 m 128,-1,1
 458 660 458 660 483 623 c 128,-1,2
 508 586 508 586 508 544 c 0,3,4
 508 505 508 505 494.5 477.5 c 128,-1,5
 481 450 481 450 462 432.5 c 128,-1,6
 443 415 443 415 411 392 c 0,7,8
 382 371 382 371 365 356 c 128,-1,9
 348 341 348 341 336.5 319 c 128,-1,10
 325 297 325 297 325 267 c 2,11,-1
 325 238 l 1,12,-1
 218 238 l 1,13,-1
 218 272 l 2,14,15
 218 315 218 315 232.5 345.5 c 128,-1,16
 247 376 247 376 267.5 395.5 c 128,-1,17
 288 415 288 415 320 439 c 0,18,19
 357 467 357 467 374 486.5 c 128,-1,20
 391 506 391 506 391 536 c 0,21,22
 391 572 391 572 362 592.5 c 128,-1,23
 333 613 333 613 287 613 c 0,24,25
 251 613 251 613 215.5 596 c 128,-1,26
 180 579 180 579 152 544 c 1,27,-1
 77 602 l 1,28,29
 165 704 165 704 298 704 c 0,30,0
 363 704 363 704 410.5 682 c 128,-1,1
328 116 m 128,-1,32
 350 94 350 94 350 63 c 0,33,34
 350 31 350 31 328 9 c 128,-1,35
 306 -13 306 -13 274 -13 c 256,36,37
 242 -13 242 -13 220.5 9 c 128,-1,38
 199 31 199 31 199 63 c 0,39,40
 199 94 199 94 221 116 c 128,-1,41
 243 138 243 138 274 138 c 0,42,31
 306 138 306 138 328 116 c 128,-1,32
EndSplineSet
EndChar
StartChar: at
Encoding: 64 64 1377
Width: 600
GlyphClass: 2
Flags: W
LayerCount: 2
Fore
SplineSet
191.097739429 -48.7317372609 m 128,-1,1
 113.803216873 -0.436780226531 113.803216873 -0.436780226531 66.9670995243 96.5910695124 c 0,2,3
 43.6887747394 144.811600029 43.6887747394 144.811600029 32.114561126 203.531922777 c 0,4,5
 20.599609375 261.95059505 20.599609375 261.95059505 20.599609375 330.75 c 0,6,7
 20.599609375 467.427146255 20.599609375 467.427146255 64.4311640934 562.102546254 c 0,8,9
 108.697106234 657.718545941 108.697106234 657.718545941 179.108529103 705.438164554 c 0,10,11
 249.87788257 753.400390625 249.87788257 753.400390625 327.599609375 753.400390625 c 0,12,13
 393.971837601 753.400390625 393.971837601 753.400390625 451.829194651 718.588206526 c 0,14,15
 509.965384453 683.61041157 509.965384453 683.61041157 544.882281738 614.3547785 c 0,16,17
 579.400390625 545.896046168 579.400390625 545.896046168 579.400390625 450.450195312 c 2,18,-1
 579.400390625 156.870117188 l 1,19,-1
 579.400390625 152.669921875 l 1,20,-1
 579.400390625 147.419921875 l 1,21,-1
 579.400390625 137.419921875 l 1,22,-1
 569.400390625 137.419921875 l 1,23,-1
 564.400390625 137.419921875 l 1,24,-1
 560.400390625 137.419921875 l 1,25,-1
 488.400390625 137.419921875 l 1,26,-1
 484.400390625 137.419921875 l 1,27,-1
 479.400390625 137.419921875 l 1,28,-1
 469.400390625 137.419921875 l 1,29,-1
 469.400390625 147.419921875 l 1,30,-1
 469.400390625 152.669921875 l 1,31,-1
 469.400390625 156.870117188 l 1,32,-1
 469.400390625 159.587986696 l 1,33,34
 426.520334879 127.340820312 426.520334879 127.340820312 372 127.340820312 c 0,35,36
 295.659639987 127.340820312 295.659639987 127.340820312 244.482064426 180.370222859 c 128,-1,37
 193.400390625 233.301483927 193.400390625 233.301483927 193.400390625 313.110351562 c 0,38,39
 193.400390625 404.25521544 193.400390625 404.25521544 261.599883755 461.121803107 c 0,40,41
 328.04000601 516.520507812 328.04000601 516.520507812 448.80078125 516.520507812 c 0,42,43
 457.374504882 516.520507812 457.374504882 516.520507812 464.713910386 516.354709499 c 1,44,45
 459.147650826 568.644345538 459.147650826 568.644345538 427.046615819 604.196801566 c 0,46,47
 388.88612173 646.459960938 388.88612173 646.459960938 324 646.459960938 c 0,48,49
 271.195283541 646.459960938 271.195283541 646.459960938 226.903447319 614.699495993 c 0,50,51
 182.28784496 582.70764498 182.28784496 582.70764498 155.597399747 515.565784155 c 0,52,53
 128.19921875 446.641937589 128.19921875 446.641937589 128.19921875 344.610351562 c 0,54,55
 128.19921875 234.277906219 128.19921875 234.277906219 162.407196984 159.446764603 c 0,56,57
 196.124633277 85.6921139353 196.124633277 85.6921139353 249.818672728 49.6559337618 c 0,58,59
 303.275029101 13.7802734375 303.275029101 13.7802734375 363.599609375 13.7802734375 c 0,60,61
 427.27273149 13.7802734375 427.27273149 13.7802734375 481.197973308 51.9121779933 c 2,62,-1
 484.825391073 54.477936312 l 1,63,-1
 489.358594198 57.6839909995 l 1,64,-1
 498.680097028 64.2765144354 l 1,65,-1
 503.986915423 54.1676342418 l 1,66,-1
 506.625883607 49.1407025766 l 1,67,-1
 508.737542219 45.1176119468 l 1,68,-1
 541.139516214 -16.6246642421 l 1,69,-1
 542.955500474 -20.0879109372 l 1,70,-1
 545.230891099 -24.4218953122 l 1,71,-1
 549.430206083 -32.4204188739 l 1,72,-1
 541.898003312 -37.4080582881 l 1,73,-1
 537.912269907 -40.0473128866 l 1,74,-1
 534.723034144 -42.1594736155 l 2,75,76
 452.013241579 -96.939453125 452.013241579 -96.939453125 356.400390625 -96.939453125 c 0,77,0
 268.257914989 -96.939453125 268.257914989 -96.939453125 191.097739429 -48.7317372609 c 128,-1,1
446.891869836 274.104377785 m 0,78,79
 467.41998839 315.111687587 467.41998839 315.111687587 469.236999752 414.837562323 c 1,80,81
 454.323280319 415.880859375 454.323280319 415.880859375 447.599609375 415.880859375 c 0,82,83
 375.788499286 415.880859375 375.788499286 415.880859375 339.38801869 388.739303964 c 0,84,85
 305.80078125 363.69364846 305.80078125 363.69364846 305.80078125 318.150390625 c 0,86,87
 305.80078125 277.915750274 305.80078125 277.915750274 325.317307331 256.424645442 c 0,88,89
 344.280632478 235.541015625 344.280632478 235.541015625 382.80078125 235.541015625 c 0,90,91
 427.586697949 235.541015625 427.586697949 235.541015625 446.891869836 274.104377785 c 0,78,79
EndSplineSet
EndChar
StartChar: A
Encoding: 65 65 4
Width: 600
GlyphClass: 2
Flags: W
AnchorPoint: "Anchor-5" 300 690 basechar 0
AnchorPoint: "Anchor-4" 298 0 basechar 0
LayerCount: 2
Fore
SplineSet
175 166 m 1,0,-1
 127 0 l 1,1,-1
 8 0 l 1,2,-1
 228 690 l 1,3,-1
 372 690 l 1,4,-1
 592 0 l 1,5,-1
 469 0 l 1,6,-1
 421 166 l 1,7,-1
 175 166 l 1,0,-1
397 256 m 1,8,-1
 298 600 l 1,9,-1
 199 256 l 1,10,-1
 397 256 l 1,8,-1
EndSplineSet
Substitution2: "Single Substitution lookup 29 subtable" ordfeminine
Substitution2: "'aalt' Access All Alternates in Latin lookup 0 subtable" ordfeminine
EndChar
StartChar: B
Encoding: 66 66 16
Width: 600
GlyphClass: 2
Flags: W
AnchorPoint: "Anchor-5" 300 690 basechar 0
AnchorPoint: "Anchor-4" 300 0 basechar 0
LayerCount: 2
Fore
SplineSet
476 46 m 128,-1,1
 400 0 400 0 283 0 c 2,2,-1
 81 0 l 1,3,-1
 81 690 l 1,4,-1
 270 690 l 2,5,6
 380 690 380 690 451 649.5 c 128,-1,7
 522 609 522 609 522 515 c 0,8,9
 522 455 522 455 485.5 416.5 c 128,-1,10
 449 378 449 378 394 366 c 1,11,12
 462 354 462 354 507 315.5 c 128,-1,13
 552 277 552 277 552 199 c 0,14,0
 552 92 552 92 476 46 c 128,-1,1
372.5 580 m 128,-1,16
 341 603 341 603 280 603 c 2,17,-1
 197 603 l 1,18,-1
 197 404 l 1,19,-1
 287 404 l 2,20,21
 346 404 346 404 375 428.5 c 128,-1,22
 404 453 404 453 404 506 c 0,23,15
 404 557 404 557 372.5 580 c 128,-1,16
395 290.5 m 128,-1,25
 359 317 359 317 295 317 c 2,26,-1
 197 317 l 1,27,-1
 197 90 l 1,28,-1
 291 90 l 2,29,30
 431 90 431 90 431 199 c 0,31,24
 431 264 431 264 395 290.5 c 128,-1,25
EndSplineSet
EndChar
StartChar: C
Encoding: 67 67 17
Width: 600
GlyphClass: 2
Flags: W
AnchorPoint: "Anchor-5" 364 690 basechar 0
AnchorPoint: "Anchor-4" 351 0 basechar 0
LayerCount: 2
Fore
SplineSet
474 687 m 128,-1,1
 522 670 522 670 566 634 c 1,2,-1
 506 562 l 1,3,4
 443 613 443 613 363 613 c 0,5,6
 279 613 279 613 226 548.5 c 128,-1,7
 173 484 173 484 173 346 c 0,8,9
 173 210 173 210 225 145.5 c 128,-1,10
 277 81 277 81 364 81 c 0,11,12
 414 81 414 81 449.5 96.5 c 128,-1,13
 485 112 485 112 520 140 c 1,14,-1
 576 69 l 1,15,16
 492 -13 492 -13 360 -13 c 0,17,18
 271 -13 271 -13 201 28.5 c 128,-1,19
 131 70 131 70 91.5 151 c 128,-1,20
 52 232 52 232 52 346 c 0,21,22
 52 458 52 458 92.5 539 c 128,-1,23
 133 620 133 620 203 662 c 128,-1,24
 273 704 273 704 358 704 c 0,25,0
 426 704 426 704 474 687 c 128,-1,1
EndSplineSet
EndChar
StartChar: D
Encoding: 68 68 23
Width: 600
GlyphClass: 2
Flags: W
AnchorPoint: "Anchor-5" 285 690 basechar 0
AnchorPoint: "Anchor-4" 300 0 basechar 0
LayerCount: 2
Fore
SplineSet
470 76.5 m 128,-1,1
 379 0 379 0 240 0 c 2,2,-1
 71 0 l 1,3,-1
 71 690 l 1,4,-1
 229 690 l 2,5,6
 379 690 379 690 470 617.5 c 128,-1,7
 561 545 561 545 561 349 c 256,8,0
 561 153 561 153 470 76.5 c 128,-1,1
387.5 549 m 128,-1,10
 336 601 336 601 251 601 c 2,11,-1
 187 601 l 1,12,-1
 187 88 l 1,13,-1
 252 88 l 2,14,15
 439 88 439 88 439 349 c 0,16,9
 439 497 439 497 387.5 549 c 128,-1,10
EndSplineSet
EndChar
StartChar: F
Encoding: 70 70 37
Width: 600
GlyphClass: 2
Flags: W
AnchorPoint: "Anchor-5" 300 690 basechar 0
AnchorPoint: "Anchor-4" 300 0 basechar 0
LayerCount: 2
Fore
SplineSet
243 382 m 1,0,-1
 503 382 l 1,1,-1
 503 294 l 1,2,-1
 243 294 l 1,3,-1
 243 0 l 1,4,-1
 127 0 l 1,5,-1
 127 690 l 1,6,-1
 551 690 l 1,7,-1
 539 602 l 1,8,-1
 243 602 l 1,9,-1
 243 382 l 1,0,-1
EndSplineSet
EndChar
StartChar: G
Encoding: 71 71 38
Width: 600
GlyphClass: 2
Flags: W
AnchorPoint: "Anchor-5" 330 690 basechar 0
AnchorPoint: "Anchor-4" 329 0 basechar 0
LayerCount: 2
Fore
SplineSet
110.5 78.5 m 128,-1,1
 37 170 37 170 37 346 c 0,2,3
 37 460 37 460 77.5 541 c 128,-1,4
 118 622 118 622 186.5 663 c 128,-1,5
 255 704 255 704 338 704 c 0,6,7
 405 704 405 704 452.5 684.5 c 128,-1,8
 500 665 500 665 543 624 c 1,9,-1
 478 557 l 1,10,11
 446 586 446 586 413.5 599.5 c 128,-1,12
 381 613 381 613 341 613 c 0,13,14
 261 613 261 613 209.5 548.5 c 128,-1,15
 158 484 158 484 158 346 c 0,16,17
 158 204 158 204 198.5 140.5 c 128,-1,18
 239 77 239 77 323 77 c 0,19,20
 387 77 387 77 437 106 c 1,21,-1
 437 296 l 1,22,-1
 320 296 l 1,23,-1
 308 385 l 1,24,-1
 550 385 l 1,25,-1
 550 50 l 1,26,27
 497 20 497 20 441.5 3.5 c 128,-1,28
 386 -13 386 -13 318 -13 c 0,29,0
 184 -13 184 -13 110.5 78.5 c 128,-1,1
EndSplineSet
EndChar
StartChar: I
Encoding: 73 73 46
Width: 600
GlyphClass: 2
Flags: W
AnchorPoint: "Anchor-5" 300 690 basechar 0
AnchorPoint: "Anchor-4" 300 0 basechar 0
LayerCount: 2
Fore
SplineSet
508 602 m 1,0,-1
 358 602 l 1,1,-1
 358 89 l 1,2,-1
 508 89 l 1,3,-1
 508 0 l 1,4,-1
 92 0 l 1,5,-1
 92 89 l 1,6,-1
 242 89 l 1,7,-1
 242 602 l 1,8,-1
 92 602 l 1,9,-1
 92 690 l 1,10,-1
 508 690 l 1,11,-1
 508 602 l 1,0,-1
EndSplineSet
EndChar
StartChar: J
Encoding: 74 74 57
Width: 600
GlyphClass: 2
Flags: W
AnchorPoint: "Anchor-5" 351 690 basechar 0
AnchorPoint: "Anchor-4" 300 0 basechar 0
LayerCount: 2
Fore
SplineSet
508 237 m 2,0,1
 508 128 508 128 445.5 57.5 c 128,-1,2
 383 -13 383 -13 256 -13 c 0,3,4
 147 -13 147 -13 60 51 c 1,5,-1
 107 124 l 1,6,7
 146 99 146 99 181 88.5 c 128,-1,8
 216 78 216 78 252 78 c 0,9,10
 317 78 317 78 354.5 120 c 128,-1,11
 392 162 392 162 392 239 c 2,12,-1
 392 601 l 1,13,-1
 185 601 l 1,14,-1
 185 690 l 1,15,-1
 508 690 l 1,16,-1
 508 237 l 2,0,1
EndSplineSet
EndChar
StartChar: K
Encoding: 75 75 59
Width: 600
GlyphClass: 2
Flags: W
AnchorPoint: "Anchor-5" 317 690 basechar 0
AnchorPoint: "Anchor-4" 314 0 basechar 0
LayerCount: 2
Fore
SplineSet
88 0 m 1,0,-1
 88 690 l 1,1,-1
 204 690 l 1,2,-1
 204 0 l 1,3,-1
 88 0 l 1,0,-1
448 690 m 1,4,-1
 576 690 l 1,5,-1
 335 376 l 1,6,-1
 595 0 l 1,7,-1
 456 0 l 1,8,-1
 209 369 l 1,9,-1
 448 690 l 1,4,-1
EndSplineSet
EndChar
StartChar: L
Encoding: 76 76 61
Width: 600
GlyphClass: 2
Flags: W
AnchorPoint: "Anchor-5" 178 690 basechar 0
AnchorPoint: "Anchor-4" 326 0 basechar 0
LayerCount: 2
Fore
SplineSet
120 690 m 1,0,-1
 235 690 l 1,1,-1
 235 97 l 1,2,-1
 545 97 l 1,3,-1
 532 0 l 1,4,-1
 120 0 l 1,5,-1
 120 690 l 1,0,-1
EndSplineSet
EndChar
StartChar: M
Encoding: 77 77 67
Width: 600
GlyphClass: 2
Flags: W
AnchorPoint: "Anchor-5" 300 690 basechar 0
AnchorPoint: "Anchor-4" 300 0 basechar 0
LayerCount: 2
Fore
SplineSet
575 0 m 1,0,-1
 468 0 l 1,1,-1
 452 336 l 2,2,3
 449 402 449 402 449 463 c 0,4,5
 449 542 449 542 452 588 c 1,6,-1
 350 122 l 1,7,-1
 249 122 l 1,8,-1
 140 588 l 1,9,10
 144 537 144 537 144 431 c 0,11,12
 144 367 144 367 143 335 c 2,13,-1
 129 0 l 1,14,-1
 25 0 l 1,15,-1
 64 690 l 1,16,-1
 203 690 l 1,17,-1
 302 228 l 1,18,-1
 396 690 l 1,19,-1
 536 690 l 1,20,-1
 575 0 l 1,0,-1
EndSplineSet
EndChar
StartChar: N
Encoding: 78 78 68
Width: 600
GlyphClass: 2
Flags: W
AnchorPoint: "Anchor-5" 303 690 basechar 0
AnchorPoint: "Anchor-4" 300 0 basechar 0
LayerCount: 2
Fore
SplineSet
158 587 m 1,0,1
 174 423 174 423 174 313 c 2,2,-1
 174 0 l 1,3,-1
 71 0 l 1,4,-1
 71 690 l 1,5,-1
 222 690 l 1,6,-1
 442 103 l 1,7,8
 435 177 435 177 430.5 236.5 c 128,-1,9
 426 296 426 296 426 376 c 2,10,-1
 426 690 l 1,11,-1
 529 690 l 1,12,-1
 529 0 l 1,13,-1
 378 0 l 1,14,-1
 158 587 l 1,0,1
EndSplineSet
EndChar
StartChar: O
Encoding: 79 79 74
Width: 600
GlyphClass: 2
Flags: W
AnchorPoint: "Anchor-5" 300 690 basechar 0
AnchorPoint: "Anchor-4" 300 0 basechar 0
LayerCount: 2
Fore
SplineSet
494.5 84 m 128,-1,1
 427 -13 427 -13 300 -13 c 256,2,3
 173 -13 173 -13 105.5 82.5 c 128,-1,4
 38 178 38 178 38 344 c 0,5,6
 38 508 38 508 105.5 606 c 128,-1,7
 173 704 173 704 300 704 c 256,8,9
 427 704 427 704 494.5 607.5 c 128,-1,10
 562 511 562 511 562 345 c 0,11,0
 562 181 562 181 494.5 84 c 128,-1,1
409 547 m 128,-1,13
 375 613 375 613 300 613 c 256,14,15
 225 613 225 613 191 547 c 128,-1,16
 157 481 157 481 157 344 c 0,17,18
 157 209 157 209 191.5 143 c 128,-1,19
 226 77 226 77 300 77 c 0,20,21
 375 77 375 77 409 143 c 128,-1,22
 443 209 443 209 443 345 c 256,23,12
 443 481 443 481 409 547 c 128,-1,13
EndSplineSet
Substitution2: "Single Substitution lookup 29 subtable" ordmasculine
Substitution2: "'aalt' Access All Alternates in Latin lookup 0 subtable" ordmasculine
EndChar
StartChar: P
Encoding: 80 80 86
Width: 600
GlyphClass: 2
Flags: W
AnchorPoint: "Anchor-5" 300 690 basechar 0
AnchorPoint: "Anchor-4" 300 0 basechar 0
LayerCount: 2
Fore
SplineSet
492 301.5 m 128,-1,1
 420 246 420 246 295 246 c 2,2,-1
 211 246 l 1,3,-1
 211 0 l 1,4,-1
 96 0 l 1,5,-1
 96 690 l 1,6,-1
 287 690 l 2,7,8
 420 690 420 690 492 635.5 c 128,-1,9
 564 581 564 581 564 473 c 0,10,0
 564 357 564 357 492 301.5 c 128,-1,1
295 603 m 2,12,-1
 211 603 l 1,13,-1
 211 334 l 1,14,-1
 296 334 l 2,15,16
 366 334 366 334 404.5 366 c 128,-1,17
 443 398 443 398 443 473 c 0,18,11
 443 603 443 603 295 603 c 2,12,-1
EndSplineSet
EndChar
StartChar: Q
Encoding: 81 81 88
Width: 600
GlyphClass: 2
Flags: W
AnchorPoint: "Anchor-5" 300 690 basechar 0
AnchorPoint: "Anchor-4" 300 0 basechar 0
LayerCount: 2
Fore
SplineSet
528.5 152.5 m 128,-1,1
 495 73 495 73 418 32 c 1,2,3
 495 17 495 17 538.5 -19.5 c 128,-1,4
 582 -56 582 -56 608 -133 c 1,5,-1
 501 -173 l 1,6,7
 478 -116 478 -116 452 -81.5 c 128,-1,8
 426 -47 426 -47 387 -29 c 128,-1,9
 348 -11 348 -11 290 -11 c 0,10,11
 169 -11 169 -11 104.5 83.5 c 128,-1,12
 40 178 40 178 40 344 c 0,13,14
 40 509 40 509 107.5 606.5 c 128,-1,15
 175 704 175 704 301 704 c 0,16,17
 428 704 428 704 495 608 c 128,-1,18
 562 512 562 512 562 345 c 0,19,0
 562 232 562 232 528.5 152.5 c 128,-1,1
408.5 547.5 m 128,-1,21
 376 613 376 613 301 613 c 256,22,23
 226 613 226 613 193.5 547 c 128,-1,24
 161 481 161 481 161 344 c 0,25,26
 161 208 161 208 194.5 142.5 c 128,-1,27
 228 77 228 77 301 77 c 0,28,29
 376 77 376 77 408.5 142.5 c 128,-1,30
 441 208 441 208 441 345 c 256,31,20
 441 482 441 482 408.5 547.5 c 128,-1,21
EndSplineSet
EndChar
StartChar: R
Encoding: 82 82 89
Width: 600
GlyphClass: 2
Flags: W
AnchorPoint: "Anchor-5" 300 690 basechar 0
AnchorPoint: "Anchor-4" 303 0 basechar 0
LayerCount: 2
Fore
SplineSet
503 370 m 128,-1,1
 460 322 460 322 389 300 c 1,2,-1
 585 0 l 1,3,-1
 450 0 l 1,4,-1
 276 284 l 1,5,-1
 201 284 l 1,6,-1
 201 0 l 1,7,-1
 85 0 l 1,8,-1
 85 690 l 1,9,-1
 277 690 l 2,10,11
 546 690 546 690 546 490 c 0,12,0
 546 418 546 418 503 370 c 128,-1,1
390.5 577 m 128,-1,14
 356 604 356 604 284 604 c 2,15,-1
 201 604 l 1,16,-1
 201 369 l 1,17,-1
 287 369 l 2,18,19
 355 369 355 369 390 398 c 128,-1,20
 425 427 425 427 425 490 c 0,21,13
 425 550 425 550 390.5 577 c 128,-1,14
EndSplineSet
EndChar
StartChar: S
Encoding: 83 83 93
Width: 600
GlyphClass: 2
Flags: W
AnchorPoint: "Anchor-5" 307 690 basechar 0
AnchorPoint: "Anchor-4" 298 0 basechar 0
LayerCount: 2
Fore
SplineSet
517.5 86 m 128,-1,1
 486 39 486 39 426.5 13 c 128,-1,2
 367 -13 367 -13 285 -13 c 0,3,4
 125 -13 125 -13 31 79 c 1,5,-1
 95 150 l 1,6,7
 173 78 173 78 285 78 c 0,8,9
 347 78 347 78 387.5 107 c 128,-1,10
 428 136 428 136 428 189 c 0,11,12
 428 220 428 220 415.5 241 c 128,-1,13
 403 262 403 262 373 278.5 c 128,-1,14
 343 295 343 295 287 312 c 0,15,16
 172 346 172 346 118 393 c 128,-1,17
 64 440 64 440 64 517 c 0,18,19
 64 572 64 572 94.5 614.5 c 128,-1,20
 125 657 125 657 179 680.5 c 128,-1,21
 233 704 233 704 301 704 c 0,22,23
 440 704 440 704 532 621 c 1,24,-1
 471 552 l 1,25,26
 400 613 400 613 308 613 c 0,27,28
 252 613 252 613 217.5 590 c 128,-1,29
 183 567 183 567 183 524 c 0,30,31
 183 497 183 497 197.5 478 c 128,-1,32
 212 459 212 459 246.5 443.5 c 128,-1,33
 281 428 281 428 344 409 c 0,34,35
 444 379 444 379 496.5 332 c 128,-1,36
 549 285 549 285 549 195 c 0,37,0
 549 133 549 133 517.5 86 c 128,-1,1
EndSplineSet
EndChar
StartChar: T
Encoding: 84 84 99
Width: 600
GlyphClass: 2
Flags: W
AnchorPoint: "Anchor-5" 299 690 basechar 0
AnchorPoint: "Anchor-4" 299 0 basechar 0
LayerCount: 2
Fore
SplineSet
357 0 m 1,0,-1
 241 0 l 1,1,-1
 241 596 l 1,2,-1
 33 596 l 1,3,-1
 33 690 l 1,4,-1
 568 690 l 1,5,-1
 556 596 l 1,6,-1
 357 596 l 1,7,-1
 357 0 l 1,0,-1
EndSplineSet
EndChar
StartChar: U
Encoding: 85 85 104
Width: 600
GlyphClass: 2
Flags: W
AnchorPoint: "Anchor-5" 300 690 basechar 0
AnchorPoint: "Anchor-4" 300 0 basechar 0
LayerCount: 2
Fore
SplineSet
539 226 m 2,0,1
 539 156 539 156 510.5 102 c 128,-1,2
 482 48 482 48 428 17.5 c 128,-1,3
 374 -13 374 -13 299 -13 c 0,4,5
 186 -13 186 -13 123.5 52 c 128,-1,6
 61 117 61 117 61 226 c 2,7,-1
 61 690 l 1,8,-1
 177 690 l 1,9,-1
 177 248 l 2,10,11
 177 162 177 162 206.5 120.5 c 128,-1,12
 236 79 236 79 299 79 c 0,13,14
 363 79 363 79 392.5 120.5 c 128,-1,15
 422 162 422 162 422 248 c 2,16,-1
 422 690 l 1,17,-1
 539 690 l 1,18,-1
 539 226 l 2,0,1
EndSplineSet
EndChar
StartChar: V
Encoding: 86 86 115
Width: 600
GlyphClass: 2
Flags: W
AnchorPoint: "Anchor-5" 300 690 basechar 0
AnchorPoint: "Anchor-4" 300 0 basechar 0
LayerCount: 2
Fore
SplineSet
467 690 m 1,0,-1
 585 690 l 1,1,-1
 366 0 l 1,2,-1
 234 0 l 1,3,-1
 15 690 l 1,4,-1
 139 690 l 1,5,-1
 302 110 l 1,6,-1
 467 690 l 1,0,-1
EndSplineSet
EndChar
StartChar: X
Encoding: 88 88 121
Width: 600
GlyphClass: 2
Flags: W
AnchorPoint: "Anchor-5" 300 690 basechar 0
AnchorPoint: "Anchor-4" 300 0 basechar 0
LayerCount: 2
Fore
SplineSet
167 690 m 1,0,-1
 300 442 l 1,1,-1
 435 690 l 1,2,-1
 558 690 l 1,3,-1
 367 373 l 1,4,-1
 580 0 l 1,5,-1
 451 0 l 1,6,-1
 298 293 l 1,7,-1
 144 0 l 1,8,-1
 21 0 l 1,9,-1
 229 367 l 1,10,-1
 38 690 l 1,11,-1
 167 690 l 1,0,-1
EndSplineSet
EndChar
StartChar: Y
Encoding: 89 89 122
Width: 600
GlyphClass: 2
Flags: W
AnchorPoint: "Anchor-5" 302 690 basechar 0
AnchorPoint: "Anchor-4" 300 0 basechar 0
LayerCount: 2
Fore
SplineSet
358 0 m 1,0,-1
 242 0 l 1,1,-1
 242 263 l 1,2,-1
 11 690 l 1,3,-1
 139 690 l 1,4,-1
 302 363 l 1,5,-1
 467 690 l 1,6,-1
 589 690 l 1,7,-1
 358 264 l 1,8,-1
 358 0 l 1,0,-1
EndSplineSet
EndChar
StartChar: backslash
Encoding: 92 92 978
Width: 600
Flags: W
LayerCount: 2
Fore
SplineSet
132 812 m 1,0,-1
 556 -66 l 1,1,-1
 467 -106 l 1,2,-1
 44 771 l 1,3,-1
 132 812 l 1,0,-1
EndSplineSet
EndChar
StartChar: bracketright
Encoding: 93 93 1005
Width: 600
Flags: W
LayerCount: 2
Fore
SplineSet
427 -118 m 1,0,-1
 154 -118 l 1,1,-1
 154 -29 l 1,2,-1
 321 -29 l 1,3,-1
 321 729 l 1,4,-1
 154 729 l 1,5,-1
 154 818 l 1,6,-1
 427 818 l 1,7,-1
 427 -118 l 1,0,-1
EndSplineSet
Substitution2: "'case' Case-Sensitive Forms in Latin lookup 23 subtable" bracketright.case
Substitution2: "'aalt' Access All Alternates in Latin lookup 0 subtable" bracketright.case
EndChar
StartChar: asciicircum
Encoding: 94 94 1388
Width: 600
GlyphClass: 2
Flags: W
LayerCount: 2
Fore
SplineSet
539 527 m 1,0,-1
 424 527 l 1,1,-1
 299 750 l 1,2,-1
 176 527 l 1,3,-1
 61 527 l 1,4,-1
 250 841 l 1,5,-1
 350 841 l 1,6,-1
 539 527 l 1,0,-1
EndSplineSet
EndChar
StartChar: grave
Encoding: 96 96 1435
Width: 600
Flags: W
LayerCount: 2
Fore
SplineSet
176 715 m 1,0,-1
 228 805 l 1,1,-1
 425 681 l 1,2,-1
 391 622 l 1,3,-1
 176 715 l 1,0,-1
EndSplineSet
Substitution2: "'case' Case-Sensitive Forms in Latin lookup 23 subtable" grave.case
Substitution2: "'aalt' Access All Alternates in Latin lookup 0 subtable" grave.case
EndChar
StartChar: a
Encoding: 97 97 136
Width: 600
GlyphClass: 2
Flags: W
AnchorPoint: "Anchor-5" 292 528 basechar 0
AnchorPoint: "Anchor-4" 300 0 basechar 0
LayerCount: 2
Fore
SplineSet
502 84.5 m 128,-1,1
 511 70 511 70 533 63 c 1,2,-1
 507 -13 l 1,3,4
 424 -3 424 -3 398 60 c 1,5,6
 369 24 369 24 325.5 5.5 c 128,-1,7
 282 -13 282 -13 230 -13 c 0,8,9
 150 -13 150 -13 103 32 c 128,-1,10
 56 77 56 77 56 151 c 0,11,12
 56 234 56 234 121.5 279 c 128,-1,13
 187 324 187 324 307 324 c 2,14,-1
 382 324 l 1,15,-1
 382 358 l 2,16,17
 382 408 382 408 352 431 c 128,-1,18
 322 454 322 454 265 454 c 0,19,20
 237 454 237 454 200 447 c 128,-1,21
 163 440 163 440 125 427 c 1,22,-1
 97 506 l 1,23,24
 192 542 192 542 282 542 c 0,25,26
 387 542 387 542 440 496 c 128,-1,27
 493 450 493 450 493 365 c 2,28,-1
 493 129 l 2,29,0
 493 99 493 99 502 84.5 c 128,-1,1
330.5 87 m 128,-1,31
 363 105 363 105 382 137 c 1,32,-1
 382 254 l 1,33,-1
 320 254 l 2,34,35
 244 254 244 254 209 228.5 c 128,-1,36
 174 203 174 203 174 155 c 0,37,38
 174 113 174 113 196.5 91 c 128,-1,39
 219 69 219 69 263 69 c 0,40,30
 298 69 298 69 330.5 87 c 128,-1,31
EndSplineSet
Substitution2: "Single Substitution lookup 29 subtable" ordfeminine
Substitution2: "'aalt' Access All Alternates in Latin lookup 0 subtable" ordfeminine
EndChar
StartChar: b
Encoding: 98 98 148
Width: 600
GlyphClass: 2
Flags: W
AnchorPoint: "Anchor-5" 300 740 basechar 0
AnchorPoint: "Anchor-4" 300 0 basechar 0
LayerCount: 2
Fore
SplineSet
265.5 522 m 128,-1,1
 303 542 303 542 346 542 c 0,2,3
 447 542 447 542 495 469 c 128,-1,4
 543 396 543 396 543 265 c 0,5,6
 543 141 543 141 487.5 64 c 128,-1,7
 432 -13 432 -13 332 -13 c 0,8,9
 244 -13 244 -13 194 52 c 1,10,-1
 188 0 l 1,11,-1
 89 0 l 1,12,-1
 89 740 l 1,13,-1
 201 753 l 1,14,-1
 201 465 l 1,15,0
 228 502 228 502 265.5 522 c 128,-1,1
393.5 119.5 m 128,-1,17
 424 167 424 167 424 264 c 0,18,19
 424 364 424 364 396.5 410 c 128,-1,20
 369 456 369 456 315 456 c 0,21,22
 281 456 281 456 251.5 435 c 128,-1,23
 222 414 222 414 201 380 c 1,24,-1
 201 133 l 1,25,26
 241 72 241 72 305 72 c 0,27,16
 363 72 363 72 393.5 119.5 c 128,-1,17
EndSplineSet
EndChar
StartChar: c
Encoding: 99 99 149
Width: 600
GlyphClass: 2
Flags: W
AnchorPoint: "Anchor-5" 344 518 basechar 0
AnchorPoint: "Anchor-4" 339 0 basechar 0
LayerCount: 2
Fore
SplineSet
474 124 m 1,1,-1
 525 52 l 1,2,3
 490 22 490 22 441 4.5 c 128,-1,4
 392 -13 392 -13 340 -13 c 0,5,6
 219 -13 219 -13 151 61.5 c 128,-1,7
 83 136 83 136 83 261 c 0,8,9
 83 342 83 342 114 405.5 c 128,-1,10
 145 469 145 469 203.5 505.5 c 128,-1,11
 262 542 262 542 342 542 c 0,12,13
 447 542 447 542 525 478 c 1,14,-1
 473 408 l 1,15,16
 409 452 409 452 344 452 c 0,17,18
 278 452 278 452 240 404.5 c 128,-1,19
 202 357 202 357 202 261 c 0,20,21
 202 167 202 167 240 123 c 128,-1,22
 278 79 278 79 344 79 c 0,23,0
 407 79 407 79 474 124 c 1,1,-1
EndSplineSet
EndChar
StartChar: d
Encoding: 100 100 155
Width: 600
GlyphClass: 2
Flags: W
AnchorPoint: "Anchor-5" 300 740 basechar 0
AnchorPoint: "Anchor-4" 300 0 basechar 0
LayerCount: 2
Fore
SplineSet
511 740 m 1,0,-1
 511 0 l 1,1,-1
 412 0 l 1,2,-1
 404 65 l 1,3,4
 378 27 378 27 340 7 c 128,-1,5
 302 -13 302 -13 256 -13 c 0,6,7
 157 -13 157 -13 107 61 c 128,-1,8
 57 135 57 135 57 264 c 0,9,10
 57 345 57 345 82.5 408 c 128,-1,11
 108 471 108 471 155 506.5 c 128,-1,12
 202 542 202 542 266 542 c 0,13,14
 347 542 347 542 399 484 c 1,15,-1
 399 753 l 1,16,-1
 511 740 l 1,0,-1
206.5 408.5 m 128,-1,18
 176 361 176 361 176 264 c 0,19,20
 176 72 176 72 286 72 c 0,21,22
 352 72 352 72 399 148 c 1,23,-1
 399 397 l 1,24,25
 358 456 358 456 295 456 c 0,26,17
 237 456 237 456 206.5 408.5 c 128,-1,18
EndSplineSet
EndChar
StartChar: f
Encoding: 102 102 169
Width: 600
GlyphClass: 2
Flags: W
AnchorPoint: "Anchor-5" 370 740 basechar 0
AnchorPoint: "Anchor-4" 263 0 basechar 0
LayerCount: 2
Fore
SplineSet
568 722 m 1,1,-1
 534 644 l 1,2,3
 483 666 483 666 421 666 c 0,4,5
 369 666 369 666 344 646 c 128,-1,6
 319 626 319 626 319 584 c 2,7,-1
 319 490 l 1,8,-1
 496 490 l 1,9,-1
 483 407 l 1,10,-1
 319 407 l 1,11,-1
 319 0 l 1,12,-1
 207 0 l 1,13,-1
 207 407 l 1,14,-1
 87 407 l 1,15,-1
 87 490 l 1,16,-1
 207 490 l 1,17,-1
 207 585 l 2,18,19
 207 635 207 635 232.5 673 c 128,-1,20
 258 711 258 711 304 732 c 128,-1,21
 350 753 350 753 410 753 c 0,22,0
 496 753 496 753 568 722 c 1,1,-1
EndSplineSet
EndChar
StartChar: g
Encoding: 103 103 170
Width: 600
GlyphClass: 2
Flags: W
AnchorPoint: "Anchor-5" 296 528 basechar 0
AnchorPoint: "Anchor-4" 0 0 basechar 0
LayerCount: 2
Fore
SplineSet
563 502 m 1,0,1
 534 492 534 492 497.5 488.5 c 128,-1,2
 461 485 461 485 410 485 c 1,3,4
 458 463 458 463 482 430 c 128,-1,5
 506 397 506 397 506 350 c 0,6,7
 506 298 506 298 480.5 258 c 128,-1,8
 455 218 455 218 408 195 c 128,-1,9
 361 172 361 172 297 172 c 0,10,11
 252 172 252 172 225 181 c 1,12,13
 214 173 214 173 208 161.5 c 128,-1,14
 202 150 202 150 202 137 c 0,15,16
 202 97 202 97 267 97 c 2,17,-1
 359 97 l 2,18,19
 415 97 415 97 459 78 c 128,-1,20
 503 59 503 59 527.5 25.5 c 128,-1,21
 552 -8 552 -8 552 -50 c 0,22,23
 552 -129 552 -129 484 -172.5 c 128,-1,24
 416 -216 416 -216 288 -216 c 0,25,26
 199 -216 199 -216 147.5 -197.5 c 128,-1,27
 96 -179 96 -179 74.5 -143.5 c 128,-1,28
 53 -108 53 -108 53 -52 c 1,29,-1
 153 -52 l 1,30,31
 153 -82 153 -82 164.5 -99.5 c 128,-1,32
 176 -117 176 -117 205 -125.5 c 128,-1,33
 234 -134 234 -134 289 -134 c 0,34,35
 369 -134 369 -134 404 -114.5 c 128,-1,36
 439 -95 439 -95 439 -57 c 0,37,38
 439 -25 439 -25 411.5 -7.5 c 128,-1,39
 384 10 384 10 337 10 c 2,40,-1
 246 10 l 2,41,42
 175 10 175 10 138.5 39 c 128,-1,43
 102 68 102 68 102 112 c 0,44,45
 102 139 102 139 117 164 c 128,-1,46
 132 189 132 189 160 207 c 1,47,48
 113 232 113 232 91.5 267.5 c 128,-1,49
 70 303 70 303 70 355 c 0,50,51
 70 410 70 410 98 452.5 c 128,-1,52
 126 495 126 495 176 518.5 c 128,-1,53
 226 542 226 542 290 542 c 0,54,55
 376 541 376 541 426.5 554 c 128,-1,56
 477 567 477 567 534 595 c 1,57,-1
 563 502 l 1,0,1
211 434.5 m 128,-1,59
 184 405 184 405 184 355 c 0,60,61
 184 304 184 304 211.5 274.5 c 128,-1,62
 239 245 239 245 292 245 c 0,63,64
 342 245 342 245 368 274 c 128,-1,65
 394 303 394 303 394 357 c 0,66,67
 394 464 394 464 291 464 c 0,68,58
 238 464 238 464 211 434.5 c 128,-1,59
EndSplineSet
EndChar
StartChar: h
Encoding: 104 104 175
Width: 600
GlyphClass: 2
Flags: W
AnchorPoint: "Anchor-5" 300 740 basechar 0
AnchorPoint: "Anchor-4" 300 0 basechar 0
LayerCount: 2
Fore
SplineSet
201 463 m 1,0,1
 233 502 233 502 275.5 522 c 128,-1,2
 318 542 318 542 365 542 c 0,3,4
 438 542 438 542 475 501.5 c 128,-1,5
 512 461 512 461 512 385 c 2,6,-1
 512 0 l 1,7,-1
 400 0 l 1,8,-1
 400 368 l 2,9,10
 400 415 400 415 382 435.5 c 128,-1,11
 364 456 364 456 324 456 c 0,12,13
 289 456 289 456 256.5 433.5 c 128,-1,14
 224 411 224 411 201 378 c 1,15,-1
 201 0 l 1,16,-1
 89 0 l 1,17,-1
 89 739 l 1,18,-1
 201 751 l 1,19,-1
 201 463 l 1,0,1
EndSplineSet
EndChar
StartChar: i
Encoding: 105 105 178
Width: 600
GlyphClass: 2
Flags: W
AnchorPoint: "Anchor-5" 0 0 basechar 0
AnchorPoint: "Anchor-4" 300 0 basechar 0
LayerCount: 2
Fore
SplineSet
352.5 766.5 m 128,-1,1
 373 746 373 746 373 716 c 256,2,3
 373 686 373 686 352.5 666 c 128,-1,4
 332 646 332 646 300 646 c 0,5,6
 267 646 267 646 247 666 c 128,-1,7
 227 686 227 686 227 716 c 0,8,9
 227 747 227 747 247.5 767 c 128,-1,10
 268 787 268 787 300 787 c 256,11,0
 332 787 332 787 352.5 766.5 c 128,-1,1
377 82 m 1,12,-1
 521 82 l 1,13,-1
 521 0 l 1,14,-1
 108 0 l 1,15,-1
 108 82 l 1,16,-1
 265 82 l 1,17,-1
 265 446 l 1,18,-1
 113 446 l 1,19,-1
 113 528 l 1,20,-1
 377 528 l 1,21,-1
 377 82 l 1,12,-1
EndSplineSet
Substitution2: "'locl' Localized Forms in Latin lookup 10 subtable" i.loclTRK
Substitution2: "'locl' Localized Forms in Latin lookup 8 subtable" i.loclTRK
Substitution2: "'locl' Localized Forms in Latin lookup 6 subtable" i.loclTRK
Substitution2: "'locl' Localized Forms in Latin lookup 3 subtable" i.loclTRK
Substitution2: "'locl' Localized Forms in Latin lookup 2 subtable" i.loclTRK
Substitution2: "'aalt' Access All Alternates in Latin lookup 0 subtable" i.loclTRK
EndChar
StartChar: j
Encoding: 106 106 190
Width: 600
GlyphClass: 2
Flags: W
AnchorPoint: "Anchor-5" 369 528 basechar 0
AnchorPoint: "Anchor-4" 0 0 basechar 0
LayerCount: 2
Fore
SplineSet
421 767 m 128,-1,1
 441 747 441 747 441 716 c 0,2,3
 441 686 441 686 421 666 c 128,-1,4
 401 646 401 646 368 646 c 0,5,6
 336 646 336 646 315.5 666 c 128,-1,7
 295 686 295 686 295 716 c 256,8,9
 295 746 295 746 315.5 766.5 c 128,-1,10
 336 787 336 787 368 787 c 0,11,0
 401 787 401 787 421 767 c 128,-1,1
455 111 m 2,12,13
 455 -32 455 -32 368 -108 c 128,-1,14
 281 -184 281 -184 104 -216 c 1,15,-1
 86 -130 l 1,16,17
 214 -106 214 -106 278.5 -53 c 128,-1,18
 343 0 343 0 343 104 c 2,19,-1
 343 446 l 1,20,-1
 135 446 l 1,21,-1
 135 528 l 1,22,-1
 455 528 l 1,23,-1
 455 111 l 2,12,13
EndSplineSet
EndChar
StartChar: k
Encoding: 107 107 193
Width: 600
GlyphClass: 2
Flags: W
AnchorPoint: "Anchor-5" 300 740 basechar 0
AnchorPoint: "Anchor-4" 304 0 basechar 0
LayerCount: 2
Fore
SplineSet
204 0 m 1,0,-1
 92 0 l 1,1,-1
 92 740 l 1,2,-1
 204 753 l 1,3,-1
 204 0 l 1,0,-1
341 292 m 1,4,-1
 576 0 l 1,5,-1
 439 0 l 1,6,-1
 212 289 l 1,7,-1
 424 528 l 1,8,-1
 554 528 l 1,9,-1
 341 292 l 1,4,-1
EndSplineSet
EndChar
StartChar: l
Encoding: 108 108 196
Width: 600
GlyphClass: 2
Flags: W
AnchorPoint: "Anchor-5" 262 740 basechar 0
AnchorPoint: "Anchor-4" 359 0 basechar 0
LayerCount: 2
Fore
SplineSet
321 144 m 2,0,1
 321 77 321 77 401 77 c 0,2,3
 441 77 441 77 485 95 c 1,4,-1
 513 17 l 1,5,6
 458 -13 458 -13 377 -13 c 0,7,8
 298 -13 298 -13 253.5 31.5 c 128,-1,9
 209 76 209 76 209 154 c 2,10,-1
 209 658 l 1,11,-1
 50 658 l 1,12,-1
 50 740 l 1,13,-1
 321 740 l 1,14,-1
 321 144 l 2,0,1
EndSplineSet
EndChar
StartChar: m
Encoding: 109 109 202
Width: 600
GlyphClass: 2
Flags: W
AnchorPoint: "Anchor-5" 300 528 basechar 0
AnchorPoint: "Anchor-4" 300 0 basechar 0
LayerCount: 2
Fore
SplineSet
530 508 m 128,-1,1
 558 474 558 474 558 392 c 2,2,-1
 558 0 l 1,3,-1
 459 0 l 1,4,-1
 459 377 l 2,5,6
 459 421 459 421 452.5 438 c 128,-1,7
 446 455 446 455 424 455 c 0,8,9
 382 455 382 455 346 402 c 1,10,-1
 346 0 l 1,11,-1
 255 0 l 1,12,-1
 255 377 l 2,13,14
 255 421 255 421 248.5 438 c 128,-1,15
 242 455 242 455 220 455 c 0,16,17
 178 455 178 455 142 402 c 1,18,-1
 142 0 l 1,19,-1
 42 0 l 1,20,-1
 42 528 l 1,21,-1
 126 528 l 1,22,-1
 134 471 l 1,23,24
 159 506 159 506 185 524 c 128,-1,25
 211 542 211 542 247 542 c 0,26,27
 317 542 317 542 337 475 c 1,28,29
 361 507 361 507 389 524.5 c 128,-1,30
 417 542 417 542 453 542 c 0,31,0
 502 542 502 542 530 508 c 128,-1,1
EndSplineSet
EndChar
StartChar: n
Encoding: 110 110 203
Width: 600
GlyphClass: 2
Flags: W
AnchorPoint: "Anchor-5" 300 528 basechar 0
AnchorPoint: "Anchor-4" 301 0 basechar 0
LayerCount: 2
Fore
SplineSet
89 528 m 1,0,-1
 186 528 l 1,1,-1
 194 459 l 1,2,3
 227 499 227 499 271.5 520.5 c 128,-1,4
 316 542 316 542 365 542 c 0,5,6
 438 542 438 542 475 501 c 128,-1,7
 512 460 512 460 512 385 c 2,8,-1
 512 0 l 1,9,-1
 400 0 l 1,10,-1
 400 329 l 2,11,12
 400 378 400 378 394.5 404.5 c 128,-1,13
 389 431 389 431 373 443.5 c 128,-1,14
 357 456 357 456 325 456 c 0,15,16
 289 456 289 456 256.5 434 c 128,-1,17
 224 412 224 412 201 379 c 1,18,-1
 201 0 l 1,19,-1
 89 0 l 1,20,-1
 89 528 l 1,0,-1
EndSplineSet
EndChar
StartChar: p
Encoding: 112 112 222
Width: 600
GlyphClass: 2
Flags: W
AnchorPoint: "Anchor-5" 300 528 basechar 0
AnchorPoint: "Anchor-4" 300 0 basechar 0
LayerCount: 2
Fore
SplineSet
539 265 m 0,1,2
 539 140 539 140 486 63.5 c 128,-1,3
 433 -13 433 -13 335 -13 c 0,4,5
 252 -13 252 -13 201 45 c 1,6,-1
 201 -203 l 1,7,-1
 89 -216 l 1,8,-1
 89 528 l 1,9,-1
 186 528 l 1,10,-1
 193 460 l 1,11,12
 223 500 223 500 262.5 521 c 128,-1,13
 302 542 302 542 347 542 c 0,14,0
 539 542 539 542 539 265 c 0,1,2
252 435 m 128,-1,16
 223 414 223 414 201 380 c 1,17,-1
 201 133 l 1,18,19
 240 74 240 74 305 74 c 0,20,21
 363 74 363 74 392 120 c 128,-1,22
 421 166 421 166 421 264 c 0,23,24
 421 365 421 365 395 410.5 c 128,-1,25
 369 456 369 456 316 456 c 0,26,15
 281 456 281 456 252 435 c 128,-1,16
EndSplineSet
EndChar
StartChar: q
Encoding: 113 113 224
Width: 600
GlyphClass: 2
Flags: W
AnchorPoint: "Anchor-5" 300 528 basechar 0
AnchorPoint: "Anchor-4" 300 0 basechar 0
LayerCount: 2
Fore
SplineSet
407 476 m 1,1,-1
 414 528 l 1,2,-1
 511 528 l 1,3,-1
 511 -216 l 1,4,-1
 399 -203 l 1,5,-1
 399 58 l 1,6,7
 345 -13 345 -13 255 -13 c 0,8,9
 155 -13 155 -13 108 59.5 c 128,-1,10
 61 132 61 132 61 264 c 0,11,12
 61 388 61 388 115.5 465 c 128,-1,13
 170 542 170 542 267 542 c 0,14,0
 355 542 355 542 407 476 c 1,1,-1
179 264 m 0,16,17
 179 165 179 165 205.5 119.5 c 128,-1,18
 232 74 232 74 285 74 c 0,19,20
 321 74 321 74 349.5 94 c 128,-1,21
 378 114 378 114 399 148 c 1,22,-1
 399 397 l 1,23,24
 359 456 359 456 295 456 c 0,25,15
 179 456 179 456 179 264 c 0,16,17
EndSplineSet
EndChar
StartChar: r
Encoding: 114 114 225
Width: 600
GlyphClass: 2
Flags: W
AnchorPoint: "Anchor-5" 329 528 basechar 0
AnchorPoint: "Anchor-4" 228 0 basechar 0
LayerCount: 2
Fore
SplineSet
543 528 m 1,1,-1
 524 333 l 1,2,-1
 444 333 l 1,3,-1
 444 441 l 1,4,5
 389 440 389 440 348.5 397 c 128,-1,6
 308 354 308 354 284 276 c 1,7,-1
 284 80 l 1,8,-1
 390 80 l 1,9,-1
 390 0 l 1,10,-1
 94 0 l 1,11,-1
 94 80 l 1,12,-1
 172 80 l 1,13,-1
 172 448 l 1,14,-1
 94 448 l 1,15,-1
 94 528 l 1,16,-1
 257 528 l 1,17,-1
 277 406 l 1,18,19
 308 474 308 474 352.5 507.5 c 128,-1,20
 397 541 397 541 463 541 c 0,21,0
 504 541 504 541 543 528 c 1,1,-1
EndSplineSet
EndChar
StartChar: s
Encoding: 115 115 229
Width: 600
GlyphClass: 2
Flags: W
AnchorPoint: "Anchor-5" 309 528 basechar 0
AnchorPoint: "Anchor-4" 298 0 basechar 0
LayerCount: 2
Fore
SplineSet
364.5 91 m 128,-1,1
 395 110 395 110 395 143 c 0,2,3
 395 166 395 166 386 180.5 c 128,-1,4
 377 195 377 195 350 207.5 c 128,-1,5
 323 220 323 220 269 234 c 0,6,7
 182 256 182 256 138.5 290.5 c 128,-1,8
 95 325 95 325 95 390 c 0,9,10
 95 459 95 459 152 500.5 c 128,-1,11
 209 542 209 542 306 542 c 0,12,13
 423 542 423 542 507 481 c 1,14,-1
 459 410 l 1,15,16
 388 457 388 457 309 457 c 0,17,18
 209 457 209 457 209 399 c 0,19,20
 209 379 209 379 220.5 366 c 128,-1,21
 232 353 232 353 260 341.5 c 128,-1,22
 288 330 288 330 343 315 c 0,23,24
 429 291 429 291 471.5 256 c 128,-1,25
 514 221 514 221 514 151 c 0,26,27
 514 70 514 70 447 28.5 c 128,-1,28
 380 -13 380 -13 281 -13 c 0,29,30
 150 -13 150 -13 64 61 c 1,31,-1
 123 129 l 1,32,33
 156 103 156 103 196.5 87.5 c 128,-1,34
 237 72 237 72 281 72 c 0,35,0
 334 72 334 72 364.5 91 c 128,-1,1
EndSplineSet
EndChar
StartChar: t
Encoding: 116 116 236
Width: 600
GlyphClass: 2
Flags: W
AnchorPoint: "Anchor-5" 244 652 basechar 0
AnchorPoint: "Anchor-4" 367 0 basechar 0
LayerCount: 2
Fore
SplineSet
460 -2 m 128,-1,1
 420 -13 420 -13 376 -13 c 0,2,3
 286 -13 286 -13 237 33.5 c 128,-1,4
 188 80 188 80 188 160 c 2,5,-1
 188 446 l 1,6,-1
 71 446 l 1,7,-1
 71 528 l 1,8,-1
 188 528 l 1,9,-1
 188 646 l 1,10,-1
 300 659 l 1,11,-1
 300 528 l 1,12,-1
 479 528 l 1,13,-1
 466 446 l 1,14,-1
 300 446 l 1,15,-1
 300 161 l 2,16,17
 300 118 300 118 322 97.5 c 128,-1,18
 344 77 344 77 392 77 c 0,19,20
 445 77 445 77 490 102 c 1,21,-1
 530 28 l 1,22,0
 500 9 500 9 460 -2 c 128,-1,1
EndSplineSet
EndChar
StartChar: u
Encoding: 117 117 241
Width: 600
GlyphClass: 2
Flags: W
AnchorPoint: "Anchor-5" 300 528 basechar 0
AnchorPoint: "Anchor-4" 0 0 basechar 0
LayerCount: 2
Fore
SplineSet
201 159 m 2,0,1
 201 113 201 113 219.5 92.5 c 128,-1,2
 238 72 238 72 276 72 c 0,3,4
 312 72 312 72 345.5 93 c 128,-1,5
 379 114 379 114 399 146 c 1,6,-1
 399 528 l 1,7,-1
 511 528 l 1,8,-1
 511 0 l 1,9,-1
 414 0 l 1,10,-1
 407 68 l 1,11,12
 379 29 379 29 334 8 c 128,-1,13
 289 -13 289 -13 241 -13 c 0,14,15
 165 -13 165 -13 127 28 c 128,-1,16
 89 69 89 69 89 145 c 2,17,-1
 89 528 l 1,18,-1
 201 528 l 1,19,-1
 201 159 l 2,0,1
EndSplineSet
EndChar
StartChar: v
Encoding: 118 118 252
Width: 600
GlyphClass: 2
Flags: W
AnchorPoint: "Anchor-5" 300 528 basechar 0
AnchorPoint: "Anchor-4" 300 0 basechar 0
LayerCount: 2
Fore
SplineSet
365 0 m 1,0,-1
 235 0 l 1,1,-1
 48 528 l 1,2,-1
 169 528 l 1,3,-1
 302 93 l 1,4,-1
 437 528 l 1,5,-1
 552 528 l 1,6,-1
 365 0 l 1,0,-1
EndSplineSet
EndChar
StartChar: w
Encoding: 119 119 253
Width: 600
GlyphClass: 2
Flags: W
AnchorPoint: "Anchor-5" 300 528 basechar 0
AnchorPoint: "Anchor-4" 300 0 basechar 0
LayerCount: 2
Fore
SplineSet
362 0 m 1,0,-1
 302 375 l 1,1,-1
 238 0 l 1,2,-1
 101 0 l 1,3,-1
 12 528 l 1,4,-1
 120 528 l 1,5,-1
 175 70 l 1,6,-1
 249 461 l 1,7,-1
 361 461 l 1,8,-1
 429 70 l 1,9,-1
 484 528 l 1,10,-1
 588 528 l 1,11,-1
 502 0 l 1,12,-1
 362 0 l 1,0,-1
EndSplineSet
EndChar
StartChar: x
Encoding: 120 120 258
Width: 600
GlyphClass: 2
Flags: W
AnchorPoint: "Anchor-5" 300 528 basechar 0
AnchorPoint: "Anchor-4" 300 0 basechar 0
LayerCount: 2
Fore
SplineSet
43 0 m 1,0,-1
 233 278 l 1,1,-1
 64 528 l 1,2,-1
 193 528 l 1,3,-1
 301 342 l 1,4,-1
 409 528 l 1,5,-1
 532 528 l 1,6,-1
 367 283 l 1,7,-1
 557 0 l 1,8,-1
 426 0 l 1,9,-1
 296 216 l 1,10,-1
 167 0 l 1,11,-1
 43 0 l 1,0,-1
EndSplineSet
EndChar
StartChar: z
Encoding: 122 122 264
Width: 600
GlyphClass: 2
Flags: W
AnchorPoint: "Anchor-5" 309 528 basechar 0
AnchorPoint: "Anchor-4" 300 0 basechar 0
LayerCount: 2
Fore
SplineSet
508 90 m 1,0,-1
 496 0 l 1,1,-1
 91 0 l 1,2,-1
 91 82 l 1,3,-1
 372 438 l 1,4,-1
 113 438 l 1,5,-1
 113 528 l 1,6,-1
 504 528 l 1,7,-1
 504 446 l 1,8,-1
 225 90 l 1,9,-1
 508 90 l 1,0,-1
EndSplineSet
EndChar
StartChar: braceleft
Encoding: 123 123 1002
Width: 600
Flags: W
LayerCount: 2
Fore
SplineSet
457 754 m 1,0,1
 400 754 400 754 370 737.5 c 128,-1,2
 340 721 340 721 344 681 c 2,3,-1
 362 497 l 2,4,5
 363 488 363 488 363 472 c 0,6,7
 363 417 363 417 333.5 388.5 c 128,-1,8
 304 360 304 360 246 350 c 1,9,10
 306 340 306 340 334.5 313 c 128,-1,11
 363 286 363 286 363 230 c 0,12,13
 363 212 363 212 362 203 c 2,14,-1
 344 19 l 2,15,16
 340 -22 340 -22 370 -38 c 128,-1,17
 400 -54 400 -54 457 -54 c 1,18,-1
 457 -137 l 1,19,20
 352 -137 352 -137 295.5 -104.5 c 128,-1,21
 239 -72 239 -72 239 6 c 0,22,23
 239 21 239 21 240 29 c 2,24,-1
 259 202 l 2,25,26
 260 207 260 207 260 218 c 0,27,28
 260 264 260 264 226 284.5 c 128,-1,29
 192 305 192 305 113 305 c 1,30,-1
 113 395 l 1,31,32
 192 395 192 395 226 415.5 c 128,-1,33
 260 436 260 436 260 482 c 0,34,35
 260 492 260 492 259 497 c 2,36,-1
 240 670 l 2,37,38
 239 678 239 678 239 693 c 0,39,40
 239 771 239 771 295.5 804 c 128,-1,41
 352 837 352 837 457 837 c 1,42,-1
 457 754 l 1,0,1
EndSplineSet
Substitution2: "'case' Case-Sensitive Forms in Latin lookup 23 subtable" braceleft.case
Substitution2: "'aalt' Access All Alternates in Latin lookup 0 subtable" braceleft.case
EndChar
StartChar: bar
Encoding: 124 124 1375
Width: 600
GlyphClass: 2
Flags: W
LayerCount: 2
Fore
SplineSet
351 -103 m 1,0,-1
 248 -103 l 1,1,-1
 248 808 l 1,2,-1
 351 808 l 1,3,-1
 351 -103 l 1,0,-1
EndSplineSet
EndChar
StartChar: braceright
Encoding: 125 125 1003
Width: 600
Flags: W
LayerCount: 2
Fore
SplineSet
304.5 804.5 m 128,-1,1
 361 772 361 772 361 694 c 0,2,3
 361 679 361 679 360 671 c 2,4,-1
 341 497 l 1,5,-1
 340 483 l 2,6,7
 340 437 340 437 375.5 416 c 128,-1,8
 411 395 411 395 487 395 c 1,9,-1
 487 305 l 1,10,11
 411 305 411 305 375.5 283.5 c 128,-1,12
 340 262 340 262 340 216 c 2,13,-1
 341 202 l 1,14,-1
 360 30 l 2,15,16
 361 22 361 22 361 7 c 0,17,18
 361 -71 361 -71 304.5 -104 c 128,-1,19
 248 -137 248 -137 143 -137 c 1,20,-1
 143 -54 l 1,21,22
 200 -54 200 -54 230 -38 c 128,-1,23
 260 -22 260 -22 256 19 c 2,24,-1
 238 203 l 2,25,26
 237 212 237 212 237 229 c 0,27,28
 237 285 237 285 267 312.5 c 128,-1,29
 297 340 297 340 361 349 c 1,30,31
 298 360 298 360 267.5 388 c 128,-1,32
 237 416 237 416 237 472 c 0,33,34
 237 488 237 488 238 497 c 2,35,-1
 256 681 l 2,36,37
 260 721 260 721 229.5 737.5 c 128,-1,38
 199 754 199 754 143 754 c 1,39,-1
 143 837 l 1,40,0
 248 837 248 837 304.5 804.5 c 128,-1,1
EndSplineSet
Substitution2: "'case' Case-Sensitive Forms in Latin lookup 23 subtable" braceright.case
Substitution2: "'aalt' Access All Alternates in Latin lookup 0 subtable" braceright.case
EndChar
StartChar: asciitilde
Encoding: 126 126 1077
Width: 600
GlyphClass: 2
Flags: W
LayerCount: 2
Fore
SplineSet
267 397 m 128,-1,1
 293 382 293 382 326 353 c 0,2,3
 351 331 351 331 366 321.5 c 128,-1,4
 381 312 381 312 399 312 c 0,5,6
 427 312 427 312 450 333 c 128,-1,7
 473 354 473 354 494 394 c 1,8,-1
 565 360 l 1,9,10
 533 295 533 295 494.5 258 c 128,-1,11
 456 221 456 221 396 221 c 0,12,13
 361 221 361 221 335 236 c 128,-1,14
 309 251 309 251 277 279 c 0,15,16
 253 300 253 300 236.5 310.5 c 128,-1,17
 220 321 220 321 201 321 c 0,18,19
 172 321 172 321 150 300 c 128,-1,20
 128 279 128 279 106 239 c 1,21,-1
 35 273 l 1,22,23
 67 337 67 337 105.5 374.5 c 128,-1,24
 144 412 144 412 204 412 c 0,25,0
 241 412 241 412 267 397 c 128,-1,1
EndSplineSet
Substitution2: "'onum' Oldstyle Figures in Latin lookup 22 subtable" asciitilde.tosf
Substitution2: "'aalt' Access All Alternates in Latin lookup 0 subtable" asciitilde.tosf
EndChar
StartChar: exclamdown
Encoding: 161 161 985
Width: 600
Flags: W
LayerCount: 2
Fore
SplineSet
353 481.5 m 128,-1,1
 375 459 375 459 375 427 c 0,2,3
 375 396 375 396 353 374 c 128,-1,4
 331 352 331 352 299 352 c 0,5,6
 268 352 268 352 246 374 c 128,-1,7
 224 396 224 396 224 427 c 0,8,9
 224 459 224 459 246 481.5 c 128,-1,10
 268 504 268 504 299 504 c 0,11,0
 331 504 331 504 353 481.5 c 128,-1,1
362 -200 m 1,12,-1
 238 -200 l 1,13,-1
 253 252 l 1,14,-1
 346 252 l 1,15,-1
 362 -200 l 1,12,-1
EndSplineSet
Substitution2: "'case' Case-Sensitive Forms in Latin lookup 23 subtable" exclamdown.case
Substitution2: "'aalt' Access All Alternates in Latin lookup 0 subtable" exclamdown.case
EndChar
StartChar: cent
Encoding: 162 162 1055
Width: 600
GlyphClass: 2
Flags: W
LayerCount: 2
Fore
SplineSet
380 537 m 1,0,1
 450 528 450 528 504 482 c 1,2,-1
 452 412 l 1,3,4
 422 434 422 434 396.5 443 c 128,-1,5
 371 452 371 452 342 452 c 0,6,7
 281 452 281 452 248 405 c 128,-1,8
 215 358 215 358 215 261 c 0,9,10
 215 79 215 79 342 79 c 0,11,12
 371 79 371 79 396.5 88.5 c 128,-1,13
 422 98 422 98 452 121 c 1,14,-1
 504 46 l 1,15,16
 451 1 451 1 380 -8 c 1,17,-1
 380 -156 l 1,18,-1
 291 -156 l 1,19,-1
 291 -7 l 1,20,21
 196 7 196 7 146 77.5 c 128,-1,22
 96 148 96 148 96 261 c 0,23,24
 96 372 96 372 147 446 c 128,-1,25
 198 520 198 520 292 535 c 1,26,-1
 292 686 l 1,27,-1
 380 686 l 1,28,-1
 380 537 l 1,0,1
EndSplineSet
Substitution2: "'onum' Oldstyle Figures in Latin lookup 22 subtable" cent.tosf
Substitution2: "'aalt' Access All Alternates in Latin lookup 0 subtable" cent.tosf
EndChar
StartChar: sterling
Encoding: 163 163 1064
Width: 600
GlyphClass: 2
Flags: W
LayerCount: 2
Fore
SplineSet
538 612 m 1,1,-1
 466 558 l 1,2,3
 443 588 443 588 416.5 601.5 c 128,-1,4
 390 615 390 615 355 615 c 0,5,6
 256 615 256 615 256 504 c 2,7,-1
 256 393 l 1,8,-1
 453 393 l 1,9,-1
 453 325 l 1,10,-1
 256 325 l 1,11,-1
 256 219 l 2,12,13
 256 174 256 174 242.5 142 c 128,-1,14
 229 110 229 110 193 90 c 1,15,-1
 527 90 l 1,16,-1
 513 0 l 1,17,-1
 62 0 l 1,18,-1
 62 85 l 1,19,20
 99 97 99 97 117 115 c 128,-1,21
 135 133 135 133 139.5 156 c 128,-1,22
 144 179 144 179 144 219 c 2,23,-1
 144 325 l 1,24,-1
 66 325 l 1,25,-1
 66 393 l 1,26,-1
 144 393 l 1,27,-1
 144 510 l 2,28,29
 144 566 144 566 168.5 610 c 128,-1,30
 193 654 193 654 239.5 679 c 128,-1,31
 286 704 286 704 349 704 c 0,32,0
 472 704 472 704 538 612 c 1,1,-1
EndSplineSet
Substitution2: "'onum' Oldstyle Figures in Latin lookup 22 subtable" sterling.tosf
Substitution2: "'aalt' Access All Alternates in Latin lookup 0 subtable" sterling.tosf
EndChar
StartChar: currency
Encoding: 164 164 1056
Width: 600
GlyphClass: 2
Flags: W
LayerCount: 2
Fore
SplineSet
179 524 m 1,0,1
 231 556 231 556 301 556 c 256,2,3
 371 556 371 556 421 524 c 1,4,-1
 506 610 l 1,5,-1
 567 549 l 1,6,-1
 483 465 l 1,7,8
 518 413 518 413 518 342 c 0,9,10
 518 272 518 272 482 218 c 1,11,-1
 567 134 l 1,12,-1
 506 74 l 1,13,-1
 420 158 l 1,14,15
 369 127 369 127 301 127 c 0,16,17
 232 127 232 127 179 158 c 1,18,-1
 94 72 l 1,19,-1
 33 133 l 1,20,-1
 119 219 l 1,21,22
 85 270 85 270 85 342 c 0,23,24
 85 412 85 412 118 464 c 1,25,-1
 33 550 l 1,26,-1
 94 611 l 1,27,-1
 179 524 l 1,0,1
214 438.5 m 128,-1,29
 184 404 184 404 184 342 c 0,30,31
 184 279 184 279 214 245 c 128,-1,32
 244 211 244 211 301 211 c 256,33,34
 358 211 358 211 387.5 245 c 128,-1,35
 417 279 417 279 417 342 c 0,36,37
 417 404 417 404 387.5 438.5 c 128,-1,38
 358 473 358 473 301 473 c 256,39,28
 244 473 244 473 214 438.5 c 128,-1,29
EndSplineSet
Substitution2: "'onum' Oldstyle Figures in Latin lookup 22 subtable" currency.tosf
Substitution2: "'aalt' Access All Alternates in Latin lookup 0 subtable" currency.tosf
EndChar
StartChar: yen
Encoding: 165 165 1065
Width: 600
GlyphClass: 2
Flags: W
LayerCount: 2
Fore
SplineSet
385 348 m 1,0,-1
 497 348 l 1,1,-1
 497 281 l 1,2,-1
 358 281 l 1,3,-1
 358 201 l 1,4,-1
 497 201 l 1,5,-1
 497 134 l 1,6,-1
 358 134 l 1,7,-1
 358 0 l 1,8,-1
 243 0 l 1,9,-1
 243 134 l 1,10,-1
 106 134 l 1,11,-1
 106 201 l 1,12,-1
 243 201 l 1,13,-1
 243 281 l 1,14,-1
 106 281 l 1,15,-1
 106 348 l 1,16,-1
 215 348 l 1,17,-1
 27 690 l 1,18,-1
 150 690 l 1,19,-1
 301 386 l 1,20,-1
 305 386 l 1,21,-1
 456 690 l 1,22,-1
 573 690 l 1,23,-1
 385 348 l 1,0,-1
EndSplineSet
Substitution2: "'onum' Oldstyle Figures in Latin lookup 22 subtable" yen.tosf
Substitution2: "'aalt' Access All Alternates in Latin lookup 0 subtable" yen.tosf
EndChar
StartChar: brokenbar
Encoding: 166 166 1376
Width: 600
GlyphClass: 2
Flags: W
LayerCount: 2
Fore
SplineSet
351 450 m 1,0,-1
 248 450 l 1,1,-1
 248 808 l 1,2,-1
 351 808 l 1,3,-1
 351 450 l 1,0,-1
351 -103 m 1,4,-1
 248 -103 l 1,5,-1
 248 255 l 1,6,-1
 351 255 l 1,7,-1
 351 -103 l 1,4,-1
EndSplineSet
EndChar
StartChar: section
Encoding: 167 167 1382
Width: 600
GlyphClass: 2
Flags: W
LayerCount: 2
Fore
SplineSet
494 649 m 1,1,-1
 448 579 l 1,2,3
 417 600 417 600 386 610 c 128,-1,4
 355 620 355 620 317 620 c 0,5,6
 277 620 277 620 253.5 603 c 128,-1,7
 230 586 230 586 230 558 c 0,8,9
 230 537 230 537 239.5 523.5 c 128,-1,10
 249 510 249 510 274.5 497.5 c 128,-1,11
 300 485 300 485 351 468 c 0,12,13
 432 442 432 442 468 407.5 c 128,-1,14
 504 373 504 373 504 314 c 0,15,16
 504 274 504 274 482 241.5 c 128,-1,17
 460 209 460 209 424 187 c 1,18,19
 482 144 482 144 482 77 c 0,20,21
 482 8 482 8 426 -33.5 c 128,-1,22
 370 -75 370 -75 278 -75 c 0,23,24
 174 -75 174 -75 99 -20 c 1,25,-1
 144 52 l 1,26,27
 176 31 176 31 208.5 20 c 128,-1,28
 241 9 241 9 278 9 c 0,29,30
 319 9 319 9 344.5 26 c 128,-1,31
 370 43 370 43 370 71 c 0,32,33
 370 92 370 92 360.5 105.5 c 128,-1,34
 351 119 351 119 325.5 131.5 c 128,-1,35
 300 144 300 144 248 161 c 0,36,37
 167 188 167 188 131 222 c 128,-1,38
 95 256 95 256 95 315 c 0,39,40
 95 354 95 354 118 386.5 c 128,-1,41
 141 419 141 419 177 441 c 1,42,43
 118 486 118 486 118 552 c 0,44,45
 118 597 118 597 144 631.5 c 128,-1,46
 170 666 170 666 215.5 685 c 128,-1,47
 261 704 261 704 318 704 c 0,48,0
 416 704 416 704 494 649 c 1,1,-1
210 370.5 m 128,-1,50
 200 350 200 350 200 331 c 0,51,52
 200 304 200 304 212.5 289 c 128,-1,53
 225 274 225 274 255 261 c 128,-1,54
 285 248 285 248 360 221 c 1,55,56
 379 239 379 239 389.5 259.5 c 128,-1,57
 400 280 400 280 400 299 c 0,58,59
 400 324 400 324 387.5 339 c 128,-1,60
 375 354 375 354 344.5 367.5 c 128,-1,61
 314 381 314 381 240 408 c 1,62,49
 220 391 220 391 210 370.5 c 128,-1,50
EndSplineSet
Substitution2: "'onum' Oldstyle Figures in Latin lookup 22 subtable" section.tosf
Substitution2: "'aalt' Access All Alternates in Latin lookup 0 subtable" section.tosf
EndChar
StartChar: dieresis
Encoding: 168 168 1433
Width: 600
Flags: W
AnchorPoint: "Anchor-6" 300 707 basemark 0
LayerCount: 2
Fore
SplineSet
145 662 m 128,-1,1
 126 680 126 680 126 707 c 0,2,3
 126 735 126 735 145 753 c 128,-1,4
 164 771 164 771 192 771 c 0,5,6
 219 771 219 771 237.5 753 c 128,-1,7
 256 735 256 735 256 707 c 0,8,9
 256 680 256 680 237.5 662 c 128,-1,10
 219 644 219 644 192 644 c 0,11,0
 164 644 164 644 145 662 c 128,-1,1
362 662 m 128,-1,13
 343 680 343 680 343 707 c 256,14,15
 343 734 343 734 362 752.5 c 128,-1,16
 381 771 381 771 408 771 c 0,17,18
 436 771 436 771 454.5 753 c 128,-1,19
 473 735 473 735 473 707 c 0,20,21
 473 680 473 680 454.5 662 c 128,-1,22
 436 644 436 644 408 644 c 0,23,12
 381 644 381 644 362 662 c 128,-1,13
EndSplineSet
Substitution2: "'case' Case-Sensitive Forms in Latin lookup 23 subtable" dieresis.case
Substitution2: "'aalt' Access All Alternates in Latin lookup 0 subtable" dieresis.case
EndChar
StartChar: copyright
Encoding: 169 169 1380
Width: 600
GlyphClass: 2
Flags: W
LayerCount: 2
Fore
SplineSet
450 709 m 128,-1,1
 513 667 513 667 546 594 c 128,-1,2
 579 521 579 521 579 431 c 0,3,4
 579 342 579 342 546 269 c 128,-1,5
 513 196 513 196 450 154 c 128,-1,6
 387 112 387 112 301 112 c 0,7,8
 214 112 214 112 150.5 154 c 128,-1,9
 87 196 87 196 54 268.5 c 128,-1,10
 21 341 21 341 21 431 c 256,11,12
 21 521 21 521 54.5 593.5 c 128,-1,13
 88 666 88 666 151.5 708.5 c 128,-1,14
 215 751 215 751 301 751 c 256,15,0
 387 751 387 751 450 709 c 128,-1,1
142.5 620 m 128,-1,17
 88 546 88 546 88 431 c 0,18,19
 88 317 88 317 142.5 243.5 c 128,-1,20
 197 170 197 170 301 170 c 0,21,22
 404 170 404 170 458.5 243.5 c 128,-1,23
 513 317 513 317 513 431 c 0,24,25
 513 546 513 546 458.5 620 c 128,-1,26
 404 694 404 694 301 694 c 0,27,16
 197 694 197 694 142.5 620 c 128,-1,17
370 614 m 128,-1,29
 397 604 397 604 423 582 c 1,30,-1
 383 529 l 1,31,32
 349 556 349 556 313 556 c 0,33,34
 275 556 275 556 252 526 c 128,-1,35
 229 496 229 496 229 432 c 0,36,37
 229 370 229 370 251.5 340 c 128,-1,38
 274 310 274 310 313 310 c 0,39,40
 356 310 356 310 391 342 c 1,41,-1
 428 288 l 1,42,43
 376 240 376 240 307 240 c 0,44,45
 232 240 232 240 187 290.5 c 128,-1,46
 142 341 142 341 142 432 c 0,47,48
 142 492 142 492 163.5 535.5 c 128,-1,49
 185 579 185 579 222.5 601.5 c 128,-1,50
 260 624 260 624 306 624 c 0,51,28
 343 624 343 624 370 614 c 128,-1,29
EndSplineSet
EndChar
StartChar: ordfeminine
Encoding: 170 170 275
Width: 600
GlyphClass: 2
Flags: W
LayerCount: 2
Fore
SplineSet
422.5 715.5 m 128,-1,1
 466 678 466 678 466 608 c 2,2,-1
 466 423 l 2,3,4
 466 402 466 402 473.5 390.5 c 128,-1,5
 481 379 481 379 498 374 c 1,6,-1
 475 307 l 1,7,8
 439 311 439 311 416.5 324.5 c 128,-1,9
 394 338 394 338 381 365 c 1,10,11
 356 337 356 337 321 321.5 c 128,-1,12
 286 306 286 306 247 306 c 0,13,14
 179 306 179 306 137 343 c 128,-1,15
 95 380 95 380 95 441 c 0,16,17
 95 508 95 508 152 545 c 128,-1,18
 209 582 209 582 312 582 c 2,19,-1
 369 582 l 1,20,-1
 369 605 l 2,21,22
 369 643 369 643 346 659.5 c 128,-1,23
 323 676 323 676 276 676 c 0,24,25
 254 676 254 676 222 670 c 128,-1,26
 190 664 190 664 156 652 c 1,27,-1
 129 722 l 1,28,29
 214 753 214 753 290 753 c 0,30,0
 379 753 379 753 422.5 715.5 c 128,-1,1
321 515 m 2,31,32
 259 515 259 515 230.5 497.5 c 128,-1,33
 202 480 202 480 202 445 c 0,34,35
 202 412 202 412 220.5 395 c 128,-1,36
 239 378 239 378 274 378 c 0,37,38
 301 378 301 378 326 392 c 128,-1,39
 351 406 351 406 369 431 c 1,40,-1
 369 515 l 1,41,-1
 321 515 l 2,31,32
504 0 m 1,42,-1
 104 0 l 1,43,-1
 104 88 l 1,44,-1
 504 88 l 1,45,-1
 504 0 l 1,42,-1
EndSplineSet
EndChar
StartChar: guillemotleft
Encoding: 171 171 1031
Width: 600
Flags: W
LayerCount: 2
Fore
SplineSet
244 41 m 1,0,-1
 71 253 l 1,1,-1
 71 329 l 1,2,-1
 244 541 l 1,3,-1
 310 500 l 1,4,-1
 182 291 l 1,5,-1
 310 82 l 1,6,-1
 244 41 l 1,0,-1
463 41 m 1,7,-1
 288 253 l 1,8,-1
 288 329 l 1,9,-1
 463 541 l 1,10,-1
 529 500 l 1,11,-1
 401 291 l 1,12,-1
 529 82 l 1,13,-1
 463 41 l 1,7,-1
EndSplineSet
Substitution2: "'case' Case-Sensitive Forms in Latin lookup 23 subtable" guillemotleft.case
Substitution2: "'aalt' Access All Alternates in Latin lookup 0 subtable" guillemotleft.case
EndChar
StartChar: registered
Encoding: 174 174 1381
Width: 600
GlyphClass: 2
Flags: W
LayerCount: 2
Fore
SplineSet
432 716 m 128,-1,1
 492 681 492 681 526.5 621 c 128,-1,2
 561 561 561 561 561 489 c 256,3,4
 561 417 561 417 526.5 357.5 c 128,-1,5
 492 298 492 298 432 263.5 c 128,-1,6
 372 229 372 229 300 229 c 256,7,8
 228 229 228 229 168 263.5 c 128,-1,9
 108 298 108 298 73 357.5 c 128,-1,10
 38 417 38 417 38 489 c 256,11,12
 38 561 38 561 73 621 c 128,-1,13
 108 681 108 681 168 716 c 128,-1,14
 228 751 228 751 300 751 c 256,15,0
 372 751 372 751 432 716 c 128,-1,1
198 669.5 m 128,-1,17
 152 642 152 642 126 594 c 128,-1,18
 100 546 100 546 100 489 c 256,19,20
 100 432 100 432 126 384.5 c 128,-1,21
 152 337 152 337 197.5 310 c 128,-1,22
 243 283 243 283 300 283 c 0,23,24
 356 283 356 283 401.5 310 c 128,-1,25
 447 337 447 337 473 384.5 c 128,-1,26
 499 432 499 432 499 489 c 256,27,28
 499 546 499 546 473 594 c 128,-1,29
 447 642 447 642 401.5 669.5 c 128,-1,30
 356 697 356 697 300 697 c 256,31,16
 244 697 244 697 198 669.5 c 128,-1,17
410 550 m 0,33,34
 410 520 410 520 393 500 c 128,-1,35
 376 480 376 480 347 471 c 1,36,-1
 429 353 l 1,37,-1
 357 353 l 1,38,-1
 287 460 l 1,39,-1
 260 460 l 1,40,-1
 260 353 l 1,41,-1
 198 353 l 1,42,-1
 198 636 l 1,43,-1
 284 636 l 2,44,32
 410 636 410 636 410 550 c 0,33,34
260 588 m 1,45,-1
 260 508 l 1,46,-1
 289 508 l 2,47,48
 346 508 346 508 346 550 c 0,49,50
 346 588 346 588 287 588 c 2,51,-1
 260 588 l 1,45,-1
EndSplineSet
EndChar
StartChar: macron
Encoding: 175 175 1437
Width: 600
Flags: W
LayerCount: 2
Fore
SplineSet
158 669 m 1,0,-1
 158 750 l 1,1,-1
 441 750 l 1,2,-1
 441 669 l 1,3,-1
 158 669 l 1,0,-1
EndSplineSet
Substitution2: "'case' Case-Sensitive Forms in Latin lookup 23 subtable" macron.case
Substitution2: "'aalt' Access All Alternates in Latin lookup 0 subtable" macron.case
EndChar
StartChar: degree
Encoding: 176 176 1384
Width: 600
GlyphClass: 2
Flags: W
LayerCount: 2
Fore
SplineSet
318 733.5 m 128,-1,1
 357 714 357 714 380.5 677 c 128,-1,2
 404 640 404 640 404 591 c 256,3,4
 404 542 404 542 380.5 505.5 c 128,-1,5
 357 469 357 469 318 449.5 c 128,-1,6
 279 430 279 430 236 430 c 256,7,8
 193 430 193 430 154 449.5 c 128,-1,9
 115 469 115 469 91 506 c 128,-1,10
 67 543 67 543 67 592 c 256,11,12
 67 641 67 641 91 677.5 c 128,-1,13
 115 714 115 714 154 733.5 c 128,-1,14
 193 753 193 753 236 753 c 256,15,0
 279 753 279 753 318 733.5 c 128,-1,1
177.5 657.5 m 128,-1,17
 154 634 154 634 154 592 c 0,18,19
 154 549 154 549 177.5 525 c 128,-1,20
 201 501 201 501 236 501 c 256,21,22
 271 501 271 501 294.5 524.5 c 128,-1,23
 318 548 318 548 318 591 c 256,24,25
 318 634 318 634 294.5 657.5 c 128,-1,26
 271 681 271 681 236 681 c 256,27,16
 201 681 201 681 177.5 657.5 c 128,-1,17
EndSplineSet
Substitution2: "'onum' Oldstyle Figures in Latin lookup 22 subtable" degree.tosf
Substitution2: "'aalt' Access All Alternates in Latin lookup 0 subtable" degree.tosf
EndChar
StartChar: plusminus
Encoding: 177 177 1106
Width: 600
GlyphClass: 2
Flags: W
LayerCount: 2
Fore
SplineSet
350 394 m 1,0,-1
 497 394 l 1,1,-1
 497 304 l 1,2,-1
 350 304 l 1,3,-1
 350 167 l 1,4,-1
 250 167 l 1,5,-1
 250 304 l 1,6,-1
 103 304 l 1,7,-1
 103 394 l 1,8,-1
 250 394 l 1,9,-1
 250 546 l 1,10,-1
 350 546 l 1,11,-1
 350 394 l 1,0,-1
497 0 m 1,12,-1
 103 0 l 1,13,-1
 103 91 l 1,14,-1
 497 91 l 1,15,-1
 497 0 l 1,12,-1
EndSplineSet
Substitution2: "'onum' Oldstyle Figures in Latin lookup 22 subtable" plusminus.tosf
Substitution2: "'aalt' Access All Alternates in Latin lookup 0 subtable" plusminus.tosf
EndChar
StartChar: uni00B5
Encoding: 181 181 1095
Width: 600
GlyphClass: 2
Flags: W
LayerCount: 2
Fore
SplineSet
499 176 m 2,0,1
 499 94 499 94 521 0 c 1,2,-1
 418 -13 l 1,3,4
 412 1 412 1 406 24.5 c 128,-1,5
 400 48 400 48 398 69 c 1,6,7
 374 32 374 32 339 9.5 c 128,-1,8
 304 -13 304 -13 267 -13 c 0,9,10
 231 -13 231 -13 210.5 -2 c 128,-1,11
 190 9 190 9 169 37 c 1,12,13
 179 2 179 2 184 -23 c 128,-1,14
 189 -48 189 -48 189 -74 c 2,15,-1
 189 -203 l 1,16,-1
 80 -215 l 1,17,-1
 80 528 l 1,18,-1
 192 528 l 1,19,-1
 192 230 l 2,20,21
 192 174 192 174 197 143 c 128,-1,22
 202 112 202 112 218 95 c 128,-1,23
 234 78 234 78 268 78 c 0,24,25
 305 78 305 78 335 97 c 128,-1,26
 365 116 365 116 387 148 c 1,27,-1
 387 528 l 1,28,-1
 499 528 l 1,29,-1
 499 176 l 2,0,1
EndSplineSet
EndChar
StartChar: paragraph
Encoding: 182 182 1379
Width: 600
GlyphClass: 2
Flags: W
LayerCount: 2
Fore
SplineSet
566 -204 m 1,0,-1
 468 -215 l 1,1,-1
 468 606 l 1,2,-1
 367 606 l 1,3,-1
 367 -204 l 1,4,-1
 269 -215 l 1,5,-1
 269 280 l 1,6,7
 155 284 155 284 94.5 339.5 c 128,-1,8
 34 395 34 395 34 484 c 0,9,10
 34 543 34 543 63 590 c 128,-1,11
 92 637 92 637 149 663.5 c 128,-1,12
 206 690 206 690 287 690 c 2,13,-1
 566 690 l 1,14,-1
 566 -204 l 1,0,-1
EndSplineSet
EndChar
StartChar: periodcentered
Encoding: 183 183 979
Width: 600
Flags: W
LayerCount: 2
Fore
SplineSet
231 410 m 128,-1,1
 259 438 259 438 299 438 c 0,2,3
 340 438 340 438 368 410 c 128,-1,4
 396 382 396 382 396 342 c 0,5,6
 396 301 396 301 368 273 c 128,-1,7
 340 245 340 245 299 245 c 0,8,9
 259 245 259 245 231 273 c 128,-1,10
 203 301 203 301 203 342 c 0,11,0
 203 382 203 382 231 410 c 128,-1,1
EndSplineSet
EndChar
StartChar: cedilla
Encoding: 184 184 1431
Width: 600
Flags: W
LayerCount: 2
Fore
SplineSet
310.5 -111 m 128,-1,1
 289 -103 289 -103 244 -103 c 1,2,-1
 254 16 l 1,3,-1
 324 16 l 1,4,-1
 324 -54 l 1,5,6
 372 -58 372 -58 396.5 -82.5 c 128,-1,7
 421 -107 421 -107 421 -143 c 0,8,9
 421 -191 421 -191 383 -219 c 128,-1,10
 345 -247 345 -247 288 -247 c 0,11,12
 257 -247 257 -247 228 -240 c 128,-1,13
 199 -233 199 -233 179 -221 c 1,14,-1
 209 -163 l 1,15,16
 243 -180 243 -180 275 -180 c 0,17,18
 332 -180 332 -180 332 -142 c 0,19,0
 332 -119 332 -119 310.5 -111 c 128,-1,1
EndSplineSet
Substitution2: "'case' Case-Sensitive Forms in Latin lookup 23 subtable" cedilla.case
Substitution2: "'aalt' Access All Alternates in Latin lookup 0 subtable" cedilla.case
EndChar
StartChar: ordmasculine
Encoding: 186 186 276
Width: 600
GlyphClass: 2
Flags: W
LayerCount: 2
Fore
SplineSet
453.5 692 m 128,-1,1
 510 631 510 631 510 530 c 0,2,3
 510 464 510 464 484.5 413.5 c 128,-1,4
 459 363 459 363 411 334.5 c 128,-1,5
 363 306 363 306 300 306 c 0,6,7
 203 306 203 306 146 367 c 128,-1,8
 89 428 89 428 89 530 c 0,9,10
 89 595 89 595 115 645.5 c 128,-1,11
 141 696 141 696 189 724.5 c 128,-1,12
 237 753 237 753 300 753 c 0,13,0
 397 753 397 753 453.5 692 c 128,-1,1
222 640 m 128,-1,15
 194 604 194 604 194 530 c 256,16,17
 194 456 194 456 222 420 c 128,-1,18
 250 384 250 384 300 384 c 256,19,20
 350 384 350 384 377.5 420 c 128,-1,21
 405 456 405 456 405 530 c 256,22,23
 405 604 405 604 377.5 640 c 128,-1,24
 350 676 350 676 300 676 c 256,25,14
 250 676 250 676 222 640 c 128,-1,15
501 0 m 1,26,-1
 100 0 l 1,27,-1
 100 88 l 1,28,-1
 501 88 l 1,29,-1
 501 0 l 1,26,-1
EndSplineSet
EndChar
StartChar: guillemotright
Encoding: 187 187 1032
Width: 600
Flags: W
LayerCount: 2
Fore
SplineSet
71 500 m 1,0,-1
 137 541 l 1,1,-1
 310 329 l 1,2,-1
 310 253 l 1,3,-1
 137 41 l 1,4,-1
 71 82 l 1,5,-1
 198 291 l 1,6,-1
 71 500 l 1,0,-1
288 500 m 1,7,-1
 354 541 l 1,8,-1
 529 329 l 1,9,-1
 529 253 l 1,10,-1
 354 41 l 1,11,-1
 288 82 l 1,12,-1
 416 291 l 1,13,-1
 288 500 l 1,7,-1
EndSplineSet
Substitution2: "'case' Case-Sensitive Forms in Latin lookup 23 subtable" guillemotright.case
Substitution2: "'aalt' Access All Alternates in Latin lookup 0 subtable" guillemotright.case
EndChar
StartChar: questiondown
Encoding: 191 191 989
Width: 600
Flags: W
LayerCount: 2
Fore
SplineSet
374.5 481.5 m 128,-1,1
 397 459 397 459 397 427 c 0,2,3
 397 396 397 396 374.5 374 c 128,-1,4
 352 352 352 352 321 352 c 256,5,6
 290 352 290 352 268 374 c 128,-1,7
 246 396 246 396 246 427 c 0,8,9
 246 459 246 459 268 481.5 c 128,-1,10
 290 504 290 504 321 504 c 256,11,0
 352 504 352 504 374.5 481.5 c 128,-1,1
378 216 m 2,12,13
 378 173 378 173 363.5 142.5 c 128,-1,14
 349 112 349 112 328.5 92.5 c 128,-1,15
 308 73 308 73 276 49 c 0,16,17
 239 21 239 21 222 1.5 c 128,-1,18
 205 -18 205 -18 205 -48 c 0,19,20
 205 -84 205 -84 234 -104.5 c 128,-1,21
 263 -125 263 -125 309 -125 c 0,22,23
 345 -125 345 -125 380.5 -108 c 128,-1,24
 416 -91 416 -91 444 -56 c 1,25,-1
 519 -113 l 1,26,27
 433 -216 433 -216 298 -216 c 0,28,29
 233 -216 233 -216 185.5 -194 c 128,-1,30
 138 -172 138 -172 113 -135 c 128,-1,31
 88 -98 88 -98 88 -56 c 0,32,33
 88 -17 88 -17 101.5 10.5 c 128,-1,34
 115 38 115 38 134 55.5 c 128,-1,35
 153 73 153 73 185 96 c 0,36,37
 228 127 228 127 249.5 153 c 128,-1,38
 271 179 271 179 271 223 c 2,39,-1
 271 252 l 1,40,-1
 378 252 l 1,41,-1
 378 216 l 2,12,13
EndSplineSet
Substitution2: "'case' Case-Sensitive Forms in Latin lookup 23 subtable" questiondown.case
Substitution2: "'aalt' Access All Alternates in Latin lookup 0 subtable" questiondown.case
EndChar
StartChar: AE
Encoding: 198 198 14
Width: 600
GlyphClass: 2
Flags: W
AnchorPoint: "Anchor-5" 357 690 basechar 0
AnchorPoint: "Anchor-4" 300 0 basechar 0
LayerCount: 2
Fore
SplineSet
144 167 m 1,0,-1
 103 0 l 1,1,-1
 -12 0 l 1,2,-1
 180 690 l 1,3,-1
 566 690 l 1,4,-1
 553 604 l 1,5,-1
 337 604 l 1,6,-1
 382 393 l 1,7,-1
 557 393 l 1,8,-1
 557 307 l 1,9,-1
 397 307 l 1,10,-1
 443 86 l 1,11,-1
 606 86 l 1,12,-1
 606 0 l 1,13,-1
 355 0 l 1,14,-1
 324 167 l 1,15,-1
 144 167 l 1,0,-1
307 254 m 1,16,-1
 242 606 l 1,17,-1
 164 254 l 1,18,-1
 307 254 l 1,16,-1
EndSplineSet
EndChar
StartChar: Ccedilla
Encoding: 199 199 20
Width: 600
GlyphClass: 2
Flags: W
AnchorPoint: "Anchor-5" 364 690 basechar 0
AnchorPoint: "Anchor-4" 351 0 basechar 0
LayerCount: 2
Fore
SplineSet
447.5 -82.5 m 128,-1,1
 472 -107 472 -107 472 -143 c 0,2,3
 472 -191 472 -191 434 -219 c 128,-1,4
 396 -247 396 -247 339 -247 c 0,5,6
 308 -247 308 -247 279 -240 c 128,-1,7
 250 -233 250 -233 230 -221 c 1,8,-1
 260 -163 l 1,9,10
 294 -180 294 -180 326 -180 c 0,11,12
 383 -180 383 -180 383 -142 c 0,13,14
 383 -119 383 -119 361.5 -111 c 128,-1,15
 340 -103 340 -103 295 -103 c 1,16,-1
 303 -9 l 1,17,18
 189 10 189 10 120.5 102 c 128,-1,19
 52 194 52 194 52 346 c 0,20,21
 52 458 52 458 92.5 539 c 128,-1,22
 133 620 133 620 203 662 c 128,-1,23
 273 704 273 704 358 704 c 0,24,25
 426 704 426 704 474 687 c 128,-1,26
 522 670 522 670 566 634 c 1,27,-1
 506 562 l 1,28,29
 443 613 443 613 363 613 c 0,30,31
 279 613 279 613 226 548.5 c 128,-1,32
 173 484 173 484 173 346 c 0,33,34
 173 210 173 210 225 145.5 c 128,-1,35
 277 81 277 81 364 81 c 0,36,37
 414 81 414 81 449.5 96.5 c 128,-1,38
 485 112 485 112 520 140 c 1,39,-1
 576 69 l 1,40,41
 498 -9 498 -9 375 -13 c 1,42,-1
 375 -54 l 1,43,0
 423 -58 423 -58 447.5 -82.5 c 128,-1,1
EndSplineSet
EndChar
StartChar: Eth
Encoding: 208 208 24
Width: 600
GlyphClass: 2
Flags: W
AnchorPoint: "Anchor-5" 296 690 basechar 0
AnchorPoint: "Anchor-4" 311 0 basechar 0
LayerCount: 2
Fore
SplineSet
480.5 617 m 128,-1,1
 572 544 572 544 572 349 c 0,2,3
 572 153 572 153 481 76.5 c 128,-1,4
 390 0 390 0 251 0 c 2,5,-1
 82 0 l 1,6,-1
 82 314 l 1,7,-1
 16 314 l 1,8,-1
 16 392 l 1,9,-1
 82 392 l 1,10,-1
 82 690 l 1,11,-1
 240 690 l 2,12,0
 389 690 389 690 480.5 617 c 128,-1,1
450 349 m 0,14,15
 450 497 450 497 398.5 549 c 128,-1,16
 347 601 347 601 262 601 c 2,17,-1
 198 601 l 1,18,-1
 198 392 l 1,19,-1
 342 392 l 1,20,-1
 342 314 l 1,21,-1
 198 314 l 1,22,-1
 198 88 l 1,23,-1
 263 88 l 2,24,13
 450 88 450 88 450 349 c 0,14,15
EndSplineSet
EndChar
StartChar: multiply
Encoding: 215 215 1099
Width: 600
GlyphClass: 2
Flags: W
LayerCount: 2
Fore
SplineSet
485 427 m 1,0,-1
 365 307 l 1,1,-1
 485 187 l 1,2,-1
 420 122 l 1,3,-1
 300 242 l 1,4,-1
 180 122 l 1,5,-1
 115 187 l 1,6,-1
 235 307 l 1,7,-1
 115 427 l 1,8,-1
 180 493 l 1,9,-1
 300 372 l 1,10,-1
 420 493 l 1,11,-1
 485 427 l 1,0,-1
EndSplineSet
Substitution2: "'onum' Oldstyle Figures in Latin lookup 22 subtable" multiply.tosf
Substitution2: "'aalt' Access All Alternates in Latin lookup 0 subtable" multiply.tosf
EndChar
StartChar: Oslash
Encoding: 216 216 82
Width: 600
GlyphClass: 2
Flags: W
AnchorPoint: "Anchor-5" 300 690 basechar 0
AnchorPoint: "Anchor-4" 300 0 basechar 0
LayerCount: 2
Fore
SplineSet
531 535.5 m 128,-1,1
 562 454 562 454 562 345 c 0,2,3
 562 181 562 181 494.5 84 c 128,-1,4
 427 -13 427 -13 300 -13 c 0,5,6
 268 -13 268 -13 241 -7 c 1,7,-1
 210 -110 l 1,8,-1
 121 -85 l 1,9,-1
 158 31 l 1,10,11
 100 74 100 74 69 154.5 c 128,-1,12
 38 235 38 235 38 344 c 0,13,14
 38 508 38 508 105.5 606 c 128,-1,15
 173 704 173 704 300 704 c 0,16,17
 333 704 333 704 360 697 c 1,18,-1
 391 803 l 1,19,-1
 479 778 l 1,20,-1
 442 660 l 1,21,0
 500 617 500 617 531 535.5 c 128,-1,1
190 548 m 128,-1,23
 156 482 156 482 156 344 c 0,24,25
 156 181 156 181 201 121 c 1,26,-1
 342 609 l 1,27,28
 322 614 322 614 300 614 c 0,29,22
 224 614 224 614 190 548 c 128,-1,23
410 142 m 128,-1,31
 444 208 444 208 444 345 c 0,32,33
 444 429 444 429 433.5 484 c 128,-1,34
 423 539 423 539 400 570 c 1,35,-1
 258 81 l 1,36,37
 280 76 280 76 300 76 c 0,38,30
 376 76 376 76 410 142 c 128,-1,31
EndSplineSet
EndChar
StartChar: Thorn
Encoding: 222 222 87
Width: 600
GlyphClass: 2
Flags: W
AnchorPoint: "Anchor-5" 300 690 basechar 0
AnchorPoint: "Anchor-4" 300 0 basechar 0
LayerCount: 2
Fore
SplineSet
205 575 m 1,0,-1
 287 575 l 2,1,2
 420 575 420 575 492 520 c 128,-1,3
 564 465 564 465 564 355 c 0,4,5
 564 238 564 238 492.5 181 c 128,-1,6
 421 124 421 124 295 124 c 2,7,-1
 205 124 l 1,8,-1
 205 0 l 1,9,-1
 89 0 l 1,10,-1
 89 690 l 1,11,-1
 205 690 l 1,12,-1
 205 575 l 1,0,-1
205 488 m 1,13,-1
 205 212 l 1,14,-1
 298 212 l 2,15,16
 367 212 367 212 404.5 244 c 128,-1,17
 442 276 442 276 442 353 c 0,18,19
 442 423 442 423 404 455.5 c 128,-1,20
 366 488 366 488 296 488 c 2,21,-1
 205 488 l 1,13,-1
EndSplineSet
EndChar
StartChar: germandbls
Encoding: 223 223 235
Width: 600
GlyphClass: 2
Flags: W
LayerCount: 2
Fore
SplineSet
429 711 m 128,-1,1
 479 669 479 669 479 604 c 0,2,3
 479 569 479 569 463.5 546.5 c 128,-1,4
 448 524 448 524 418 497 c 0,5,6
 395 476 395 476 384.5 462.5 c 128,-1,7
 374 449 374 449 374 430 c 0,8,9
 374 407 374 407 391 390 c 128,-1,10
 408 373 408 373 444 349 c 0,11,12
 482 323 482 323 506 302 c 128,-1,13
 530 281 530 281 547.5 247.5 c 128,-1,14
 565 214 565 214 565 167 c 0,15,16
 565 111 565 111 539.5 70 c 128,-1,17
 514 29 514 29 470.5 8 c 128,-1,18
 427 -13 427 -13 373 -13 c 0,19,20
 300 -13 300 -13 245 20 c 1,21,-1
 285 96 l 1,22,23
 322 75 322 75 361 75 c 0,24,25
 404 75 404 75 427 97.5 c 128,-1,26
 450 120 450 120 450 164 c 0,27,28
 450 203 450 203 428 228 c 128,-1,29
 406 253 406 253 363 283 c 0,30,31
 333 304 333 304 314.5 319.5 c 128,-1,32
 296 335 296 335 283.5 358.5 c 128,-1,33
 271 382 271 382 271 413 c 0,34,35
 271 446 271 446 285 468.5 c 128,-1,36
 299 491 299 491 325 517 c 0,37,38
 348 539 348 539 359.5 556.5 c 128,-1,39
 371 574 371 574 371 597 c 0,40,41
 371 627 371 627 352 648 c 128,-1,42
 333 669 333 669 293 669 c 0,43,44
 243 669 243 669 218.5 638 c 128,-1,45
 194 607 194 607 194 539 c 2,46,-1
 194 0 l 1,47,-1
 82 0 l 1,48,-1
 82 532 l 2,49,50
 82 639 82 639 137.5 696 c 128,-1,51
 193 753 193 753 295 753 c 0,52,0
 379 753 379 753 429 711 c 128,-1,1
EndSplineSet
EndChar
StartChar: ae
Encoding: 230 230 146
Width: 600
GlyphClass: 2
Flags: W
AnchorPoint: "Anchor-5" 306 528 basechar 0
AnchorPoint: "Anchor-4" 0 0 basechar 0
LayerCount: 2
Fore
SplineSet
604 278 m 0,1,2
 604 258 604 258 602 230 c 1,3,-1
 344 230 l 1,4,5
 351 147 351 147 376 108.5 c 128,-1,6
 401 70 401 70 450 70 c 0,7,8
 476 70 476 70 498 79 c 128,-1,9
 520 88 520 88 545 107 c 1,10,-1
 592 41 l 1,11,12
 560 15 560 15 525 1 c 128,-1,13
 490 -13 490 -13 446 -13 c 0,14,15
 344 -13 344 -13 293 74 c 1,16,17
 260 27 260 27 227 7 c 128,-1,18
 194 -13 194 -13 145 -13 c 0,19,20
 76 -13 76 -13 35 32 c 128,-1,21
 -6 77 -6 77 -6 151 c 0,22,23
 -6 235 -6 235 47 279 c 128,-1,24
 100 323 100 323 204 323 c 2,25,-1
 248 323 l 1,26,-1
 248 358 l 2,27,28
 248 462 248 462 157 462 c 0,29,30
 133 462 133 462 111.5 456 c 128,-1,31
 90 450 90 450 57 435 c 1,32,-1
 30 507 l 1,33,34
 105 542 105 542 168 542 c 0,35,36
 223 542 223 542 255.5 521 c 128,-1,37
 288 500 288 500 306 461 c 1,38,39
 322 499 322 499 354.5 520.5 c 128,-1,40
 387 542 387 542 432 542 c 0,41,0
 604 542 604 542 604 278 c 0,1,2
368 425.5 m 128,-1,43
 348 390 348 390 344 304 c 1,44,-1
 508 304 l 1,45,46
 507 385 507 385 489.5 423 c 128,-1,47
 472 461 472 461 428 461 c 0,48,42
 388 461 388 461 368 425.5 c 128,-1,43
213 254 m 2,49,50
 152 254 152 254 126 229.5 c 128,-1,51
 100 205 100 205 100 157 c 0,52,53
 100 113 100 113 117 89.5 c 128,-1,54
 134 66 134 66 164 66 c 0,55,56
 191 66 191 66 212.5 86 c 128,-1,57
 234 106 234 106 258 149 c 1,58,59
 248 195 248 195 248 254 c 1,60,-1
 213 254 l 2,49,50
EndSplineSet
EndChar
StartChar: ccedilla
Encoding: 231 231 152
Width: 600
GlyphClass: 2
Flags: W
AnchorPoint: "Anchor-5" 344 518 basechar 0
AnchorPoint: "Anchor-4" 339 0 basechar 0
LayerCount: 2
Fore
SplineSet
435.5 -82.5 m 128,-1,1
 460 -107 460 -107 460 -143 c 0,2,3
 460 -191 460 -191 422 -219 c 128,-1,4
 384 -247 384 -247 327 -247 c 0,5,6
 296 -247 296 -247 267 -240 c 128,-1,7
 238 -233 238 -233 218 -221 c 1,8,-1
 248 -163 l 1,9,10
 282 -180 282 -180 314 -180 c 0,11,12
 371 -180 371 -180 371 -142 c 0,13,14
 371 -119 371 -119 349.5 -111 c 128,-1,15
 328 -103 328 -103 283 -103 c 1,16,-1
 291 -10 l 1,17,18
 192 5 192 5 137.5 77 c 128,-1,19
 83 149 83 149 83 261 c 0,20,21
 83 342 83 342 114 405.5 c 128,-1,22
 145 469 145 469 203.5 505.5 c 128,-1,23
 262 542 262 542 342 542 c 0,24,25
 447 542 447 542 525 478 c 1,26,-1
 473 408 l 1,27,28
 409 452 409 452 344 452 c 0,29,30
 278 452 278 452 240 404.5 c 128,-1,31
 202 357 202 357 202 261 c 0,32,33
 202 167 202 167 240 123 c 128,-1,34
 278 79 278 79 344 79 c 0,35,36
 407 79 407 79 474 124 c 1,37,-1
 525 52 l 1,38,39
 494 25 494 25 451.5 8 c 128,-1,40
 409 -9 409 -9 363 -13 c 1,41,-1
 363 -54 l 1,42,0
 411 -58 411 -58 435.5 -82.5 c 128,-1,1
EndSplineSet
EndChar
StartChar: eth
Encoding: 240 240 156
Width: 600
GlyphClass: 2
Flags: W
LayerCount: 2
Fore
SplineSet
225 641 m 1,0,1
 181 660 181 660 118 672 c 1,2,-1
 141 752 l 1,3,4
 226 737 226 737 289 708 c 1,5,-1
 360 782 l 1,6,-1
 423 728 l 1,7,-1
 364 668 l 1,8,9
 455 607 455 607 498 508.5 c 128,-1,10
 541 410 541 410 541 269 c 0,11,12
 541 186 541 186 511.5 122 c 128,-1,13
 482 58 482 58 426 22.5 c 128,-1,14
 370 -13 370 -13 295 -13 c 0,15,16
 228 -13 228 -13 174 16.5 c 128,-1,17
 120 46 120 46 88.5 102 c 128,-1,18
 57 158 57 158 57 235 c 0,19,20
 57 307 57 307 86 363 c 128,-1,21
 115 419 115 419 164 450 c 128,-1,22
 213 481 213 481 270 481 c 0,23,24
 317 481 317 481 353.5 465.5 c 128,-1,25
 390 450 390 450 419 419 c 1,26,27
 390 535 390 535 298 601 c 1,28,-1
 228 529 l 1,29,-1
 153 565 l 1,30,-1
 225 641 l 1,0,1
426 331 m 1,32,33
 403 363 403 363 368.5 380.5 c 128,-1,34
 334 398 334 398 292 398 c 0,35,36
 239 398 239 398 205 357.5 c 128,-1,37
 171 317 171 317 171 238 c 0,38,39
 171 157 171 157 204.5 114.5 c 128,-1,40
 238 72 238 72 295 72 c 0,41,42
 359 72 359 72 393.5 120.5 c 128,-1,43
 428 169 428 169 428 263 c 0,44,31
 428 287 428 287 426 331 c 1,32,33
EndSplineSet
EndChar
StartChar: divide
Encoding: 247 247 1079
Width: 600
GlyphClass: 2
Flags: W
LayerCount: 2
Fore
SplineSet
354 571 m 128,-1,1
 376 549 376 549 376 517 c 0,2,3
 376 486 376 486 354 464 c 128,-1,4
 332 442 332 442 300 442 c 256,5,6
 268 442 268 442 246 464 c 128,-1,7
 224 486 224 486 224 517 c 0,8,9
 224 549 224 549 246 571 c 128,-1,10
 268 593 268 593 300 593 c 256,11,0
 332 593 332 593 354 571 c 128,-1,1
497 269 m 1,12,-1
 103 269 l 1,13,-1
 103 360 l 1,14,-1
 497 360 l 1,15,-1
 497 269 l 1,12,-1
354 165 m 128,-1,17
 376 143 376 143 376 112 c 0,18,19
 376 80 376 80 354 58 c 128,-1,20
 332 36 332 36 300 36 c 256,21,22
 268 36 268 36 246 58 c 128,-1,23
 224 80 224 80 224 112 c 0,24,25
 224 143 224 143 246 165 c 128,-1,26
 268 187 268 187 300 187 c 256,27,16
 332 187 332 187 354 165 c 128,-1,17
EndSplineSet
Substitution2: "'onum' Oldstyle Figures in Latin lookup 22 subtable" divide.tosf
Substitution2: "'aalt' Access All Alternates in Latin lookup 0 subtable" divide.tosf
EndChar
StartChar: oslash
Encoding: 248 248 218
Width: 600
GlyphClass: 2
Flags: W
AnchorPoint: "Anchor-5" 300 528 basechar 0
AnchorPoint: "Anchor-4" 0 0 basechar 0
LayerCount: 2
Fore
SplineSet
510 412.5 m 128,-1,1
 539 350 539 350 539 265 c 0,2,3
 539 137 539 137 476 62 c 128,-1,4
 413 -13 413 -13 300 -13 c 0,5,6
 278 -13 278 -13 257 -10 c 1,7,-1
 220 -133 l 1,8,-1
 133 -107 l 1,9,-1
 174 19 l 1,10,11
 120 52 120 52 90.5 115 c 128,-1,12
 61 178 61 178 61 264 c 0,13,14
 61 390 61 390 124.5 466 c 128,-1,15
 188 542 188 542 301 542 c 0,16,17
 322 542 322 542 343 539 c 1,18,-1
 381 657 l 1,19,-1
 468 632 l 1,20,-1
 427 509 l 1,21,0
 481 475 481 475 510 412.5 c 128,-1,1
208.5 409 m 128,-1,23
 178 362 178 362 178 264 c 0,24,25
 178 146 178 146 217 102 c 1,26,-1
 327 454 l 1,27,28
 311 456 311 456 301 456 c 0,29,22
 239 456 239 456 208.5 409 c 128,-1,23
392 119 m 128,-1,31
 422 166 422 166 422 265 c 0,32,33
 422 383 422 383 384 425 c 1,34,-1
 274 74 l 1,35,36
 290 72 290 72 300 72 c 0,37,30
 362 72 362 72 392 119 c 128,-1,31
EndSplineSet
EndChar
StartChar: thorn
Encoding: 254 254 223
Width: 600
GlyphClass: 2
Flags: W
AnchorPoint: "Anchor-5" 300 740 basechar 0
AnchorPoint: "Anchor-4" 300 -208 basechar 0
LayerCount: 2
Fore
SplineSet
201 467 m 1,0,1
 228 503 228 503 266 522.5 c 128,-1,2
 304 542 304 542 347 542 c 0,3,4
 539 542 539 542 539 265 c 0,5,6
 539 140 539 140 486 63.5 c 128,-1,7
 433 -13 433 -13 335 -13 c 0,8,9
 252 -13 252 -13 201 45 c 1,10,-1
 201 -203 l 1,11,-1
 89 -216 l 1,12,-1
 89 740 l 1,13,-1
 201 753 l 1,14,-1
 201 467 l 1,0,1
252 435 m 128,-1,16
 223 414 223 414 201 380 c 1,17,-1
 201 133 l 1,18,19
 240 74 240 74 305 74 c 0,20,21
 363 74 363 74 392 120 c 128,-1,22
 421 166 421 166 421 264 c 0,23,24
 421 365 421 365 395 410.5 c 128,-1,25
 369 456 369 456 316 456 c 0,26,15
 281 456 281 456 252 435 c 128,-1,16
EndSplineSet
EndChar
StartChar: Aogonek
Encoding: 260 260 11
Width: 600
GlyphClass: 2
Flags: W
AnchorPoint: "Anchor-5" 300 690 basechar 0
AnchorPoint: "Anchor-4" 298 0 basechar 0
LayerCount: 2
Fore
SplineSet
441.5 -54.5 m 128,-1,1
 416 -81 416 -81 416 -113 c 0,2,3
 416 -161 416 -161 472 -161 c 0,4,5
 500 -161 500 -161 531 -154 c 1,6,-1
 521 -231 l 1,7,8
 488 -238 488 -238 459 -238 c 0,9,10
 400 -238 400 -238 363 -208.5 c 128,-1,11
 326 -179 326 -179 326 -131 c 0,12,13
 326 -80 326 -80 360.5 -44 c 128,-1,14
 395 -8 395 -8 463 19 c 1,15,-1
 421 166 l 1,16,-1
 175 166 l 1,17,-1
 127 0 l 1,18,-1
 8 0 l 1,19,-1
 228 690 l 1,20,-1
 372 690 l 1,21,-1
 592 0 l 1,22,-1
 536 0 l 1,23,0
 467 -28 467 -28 441.5 -54.5 c 128,-1,1
397 256 m 1,24,-1
 298 600 l 1,25,-1
 199 256 l 1,26,-1
 397 256 l 1,24,-1
EndSplineSet
EndChar
StartChar: aogonek
Encoding: 261 261 143
Width: 600
GlyphClass: 2
Flags: W
AnchorPoint: "Anchor-5" 292 528 basechar 0
AnchorPoint: "Anchor-4" 300 0 basechar 0
LayerCount: 2
Fore
SplineSet
507 -13 m 1,0,-1
 507 -13 l 1,1,2
 438 -41 438 -41 412.5 -67.5 c 128,-1,3
 387 -94 387 -94 387 -126 c 0,4,5
 387 -174 387 -174 443 -174 c 0,6,7
 471 -174 471 -174 502 -167 c 1,8,-1
 492 -244 l 1,9,10
 459 -251 459 -251 430 -251 c 0,11,12
 371 -251 371 -251 334 -221.5 c 128,-1,13
 297 -192 297 -192 297 -144 c 0,14,15
 297 -92 297 -92 332.5 -55.5 c 128,-1,16
 368 -19 368 -19 440 8 c 1,17,18
 413 26 413 26 398 60 c 1,19,20
 369 24 369 24 325.5 5.5 c 128,-1,21
 282 -13 282 -13 230 -13 c 0,22,23
 150 -13 150 -13 103 32 c 128,-1,24
 56 77 56 77 56 151 c 0,25,26
 56 234 56 234 121.5 279 c 128,-1,27
 187 324 187 324 307 324 c 2,28,-1
 382 324 l 1,29,-1
 382 358 l 2,30,31
 382 408 382 408 352 431 c 128,-1,32
 322 454 322 454 265 454 c 0,33,34
 237 454 237 454 200 447 c 128,-1,35
 163 440 163 440 125 427 c 1,36,-1
 97 506 l 1,37,38
 192 542 192 542 282 542 c 0,39,40
 387 542 387 542 440 496 c 128,-1,41
 493 450 493 450 493 365 c 2,42,-1
 493 129 l 2,43,44
 493 99 493 99 502 84.5 c 128,-1,45
 511 70 511 70 533 63 c 1,46,-1
 507 -13 l 1,0,-1
382 254 m 1,47,-1
 320 254 l 2,48,49
 244 254 244 254 209 228.5 c 128,-1,50
 174 203 174 203 174 155 c 0,51,52
 174 113 174 113 196.5 91 c 128,-1,53
 219 69 219 69 263 69 c 0,54,55
 298 69 298 69 330.5 87 c 128,-1,56
 363 105 363 105 382 137 c 1,57,-1
 382 254 l 1,47,-1
EndSplineSet
EndChar
StartChar: dcroat
Encoding: 273 273 158
Width: 600
GlyphClass: 2
Flags: W
AnchorPoint: "Anchor-5" 294 740 basechar 0
AnchorPoint: "Anchor-4" 294 0 basechar 0
LayerCount: 2
Fore
SplineSet
585 596 m 1,0,-1
 506 596 l 1,1,-1
 506 0 l 1,2,-1
 407 0 l 1,3,-1
 399 65 l 1,4,5
 343 -13 343 -13 250 -13 c 0,6,7
 152 -13 152 -13 102 61 c 128,-1,8
 52 135 52 135 52 264 c 0,9,10
 52 345 52 345 77 408 c 128,-1,11
 102 471 102 471 149 506.5 c 128,-1,12
 196 542 196 542 260 542 c 0,13,14
 342 542 342 542 394 484 c 1,15,-1
 394 596 l 1,16,-1
 241 596 l 1,17,-1
 241 673 l 1,18,-1
 394 673 l 1,19,-1
 394 753 l 1,20,-1
 506 740 l 1,21,-1
 506 673 l 1,22,-1
 585 673 l 1,23,-1
 585 596 l 1,0,-1
394 397 m 1,24,25
 351 456 351 456 290 456 c 0,26,27
 232 456 232 456 201 408.5 c 128,-1,28
 170 361 170 361 170 264 c 0,29,30
 170 72 170 72 280 72 c 0,31,32
 345 72 345 72 394 148 c 1,33,-1
 394 397 l 1,24,25
EndSplineSet
EndChar
StartChar: Eogonek
Encoding: 280 280 36
Width: 600
GlyphClass: 2
Flags: W
AnchorPoint: "Anchor-5" 321 690 basechar 0
AnchorPoint: "Anchor-4" 324 0 basechar 0
LayerCount: 2
Fore
SplineSet
534 88 m 1,0,-1
 534 0 l 1,1,-1
 467 0 l 1,2,3
 398 -28 398 -28 372.5 -54.5 c 128,-1,4
 347 -81 347 -81 347 -113 c 0,5,6
 347 -161 347 -161 403 -161 c 0,7,8
 431 -161 431 -161 462 -154 c 1,9,-1
 452 -231 l 1,10,11
 419 -238 419 -238 390 -238 c 0,12,13
 331 -238 331 -238 294 -208.5 c 128,-1,14
 257 -179 257 -179 257 -131 c 0,15,16
 257 -88 257 -88 280.5 -56.5 c 128,-1,17
 304 -25 304 -25 352 0 c 1,18,-1
 113 0 l 1,19,-1
 113 690 l 1,20,-1
 528 690 l 1,21,-1
 515 602 l 1,22,-1
 229 602 l 1,23,-1
 229 394 l 1,24,-1
 479 394 l 1,25,-1
 479 307 l 1,26,-1
 229 307 l 1,27,-1
 229 88 l 1,28,-1
 534 88 l 1,0,-1
EndSplineSet
EndChar
StartChar: eogonek
Encoding: 281 281 168
Width: 600
GlyphClass: 2
Flags: W
AnchorPoint: "Anchor-5" 309 528 basechar 0
AnchorPoint: "Anchor-4" 300 0 basechar 0
LayerCount: 2
Fore
SplineSet
532 228 m 1,1,-1
 182 228 l 1,2,3
 187 151 187 151 226.5 112.5 c 128,-1,4
 266 74 266 74 326 74 c 0,5,6
 363 74 363 74 396.5 85.5 c 128,-1,7
 430 97 430 97 465 120 c 1,8,-1
 513 52 l 1,9,10
 469 17 469 17 410 -1 c 1,11,12
 342 -29 342 -29 317 -55.5 c 128,-1,13
 292 -82 292 -82 292 -113 c 0,14,15
 292 -161 292 -161 348 -161 c 0,16,17
 376 -161 376 -161 407 -154 c 1,18,-1
 397 -231 l 1,19,20
 364 -238 364 -238 335 -238 c 0,21,22
 276 -238 276 -238 239 -208.5 c 128,-1,23
 202 -179 202 -179 202 -131 c 0,24,25
 202 -56 202 -56 289 -12 c 1,26,27
 183 -2 183 -2 124.5 72.5 c 128,-1,28
 66 147 66 147 66 264 c 0,29,30
 66 343 66 343 95 406.5 c 128,-1,31
 124 470 124 470 179 506 c 128,-1,32
 234 542 234 542 307 542 c 0,33,34
 412 542 412 542 473.5 471.5 c 128,-1,35
 535 401 535 401 535 278 c 0,36,0
 535 248 535 248 532 228 c 1,1,-1
426 304 m 1,37,38
 424 379 424 379 394 419 c 128,-1,39
 364 459 364 459 308 459 c 0,40,41
 254 459 254 459 220 420 c 128,-1,42
 186 381 186 381 181 304 c 1,43,-1
 426 304 l 1,37,38
EndSplineSet
EndChar
StartChar: gcommaaccent
Encoding: 291 291 173
Width: 600
GlyphClass: 2
Flags: W
AnchorPoint: "Anchor-5" 296 528 basechar 0
AnchorPoint: "Anchor-4" 0 0 basechar 0
LayerCount: 2
Fore
SplineSet
248.5 614.5 m 128,-1,1
 230 632 230 632 230 659 c 0,2,3
 230 687 230 687 248 724 c 2,4,-1
 298 828 l 1,5,-1
 360 828 l 1,6,-1
 331 711 l 1,7,8
 357 692 357 692 357 659 c 0,9,10
 357 633 357 633 339 615 c 128,-1,11
 321 597 321 597 294 597 c 256,12,0
 267 597 267 597 248.5 614.5 c 128,-1,1
563 502 m 1,13,14
 534 492 534 492 497.5 488.5 c 128,-1,15
 461 485 461 485 410 485 c 1,16,17
 458 463 458 463 482 430 c 128,-1,18
 506 397 506 397 506 350 c 0,19,20
 506 298 506 298 480.5 258 c 128,-1,21
 455 218 455 218 408 195 c 128,-1,22
 361 172 361 172 297 172 c 0,23,24
 252 172 252 172 225 181 c 1,25,26
 214 173 214 173 208 161.5 c 128,-1,27
 202 150 202 150 202 137 c 0,28,29
 202 97 202 97 267 97 c 2,30,-1
 359 97 l 2,31,32
 415 97 415 97 459 78 c 128,-1,33
 503 59 503 59 527.5 25.5 c 128,-1,34
 552 -8 552 -8 552 -50 c 0,35,36
 552 -129 552 -129 484 -172.5 c 128,-1,37
 416 -216 416 -216 288 -216 c 0,38,39
 199 -216 199 -216 147.5 -197.5 c 128,-1,40
 96 -179 96 -179 74.5 -143.5 c 128,-1,41
 53 -108 53 -108 53 -52 c 1,42,-1
 153 -52 l 1,43,44
 153 -82 153 -82 164.5 -99.5 c 128,-1,45
 176 -117 176 -117 205 -125.5 c 128,-1,46
 234 -134 234 -134 289 -134 c 0,47,48
 369 -134 369 -134 404 -114.5 c 128,-1,49
 439 -95 439 -95 439 -57 c 0,50,51
 439 -25 439 -25 411.5 -7.5 c 128,-1,52
 384 10 384 10 337 10 c 2,53,-1
 246 10 l 2,54,55
 175 10 175 10 138.5 39 c 128,-1,56
 102 68 102 68 102 112 c 0,57,58
 102 139 102 139 117 164 c 128,-1,59
 132 189 132 189 160 207 c 1,60,61
 113 232 113 232 91.5 267.5 c 128,-1,62
 70 303 70 303 70 355 c 0,63,64
 70 410 70 410 98 452.5 c 128,-1,65
 126 495 126 495 176 518.5 c 128,-1,66
 226 542 226 542 290 542 c 0,67,68
 376 541 376 541 426.5 554 c 128,-1,69
 477 567 477 567 534 595 c 1,70,-1
 563 502 l 1,13,14
211 434.5 m 128,-1,72
 184 405 184 405 184 355 c 0,73,74
 184 304 184 304 211.5 274.5 c 128,-1,75
 239 245 239 245 292 245 c 0,76,77
 342 245 342 245 368 274 c 128,-1,78
 394 303 394 303 394 357 c 0,79,80
 394 464 394 464 291 464 c 0,81,71
 238 464 238 464 211 434.5 c 128,-1,72
EndSplineSet
EndChar
StartChar: Hbar
Encoding: 294 294 44
Width: 600
GlyphClass: 2
Flags: W
LayerCount: 2
Fore
SplineSet
598 506 m 1,0,-1
 527 506 l 1,1,-1
 527 0 l 1,2,-1
 411 0 l 1,3,-1
 411 315 l 1,4,-1
 189 315 l 1,5,-1
 189 0 l 1,6,-1
 73 0 l 1,7,-1
 73 506 l 1,8,-1
 2 506 l 1,9,-1
 2 581 l 1,10,-1
 73 581 l 1,11,-1
 73 690 l 1,12,-1
 189 690 l 1,13,-1
 189 581 l 1,14,-1
 411 581 l 1,15,-1
 411 690 l 1,16,-1
 527 690 l 1,17,-1
 527 581 l 1,18,-1
 598 581 l 1,19,-1
 598 506 l 1,0,-1
411 506 m 1,20,-1
 189 506 l 1,21,-1
 189 408 l 1,22,-1
 411 408 l 1,23,-1
 411 506 l 1,20,-1
EndSplineSet
EndChar
StartChar: hbar
Encoding: 295 295 176
Width: 600
GlyphClass: 2
Flags: W
AnchorPoint: "Anchor-5" 300 740 basechar 0
AnchorPoint: "Anchor-4" 300 0 basechar 0
LayerCount: 2
Fore
SplineSet
475 501.5 m 128,-1,1
 512 461 512 461 512 385 c 2,2,-1
 512 0 l 1,3,-1
 400 0 l 1,4,-1
 400 368 l 2,5,6
 400 415 400 415 382 435.5 c 128,-1,7
 364 456 364 456 324 456 c 0,8,9
 289 456 289 456 256.5 433.5 c 128,-1,10
 224 411 224 411 201 378 c 1,11,-1
 201 0 l 1,12,-1
 89 0 l 1,13,-1
 89 596 l 1,14,-1
 15 596 l 1,15,-1
 15 673 l 1,16,-1
 89 673 l 1,17,-1
 89 739 l 1,18,-1
 201 751 l 1,19,-1
 201 673 l 1,20,-1
 359 673 l 1,21,-1
 359 596 l 1,22,-1
 201 596 l 1,23,-1
 201 463 l 1,24,25
 233 502 233 502 275.5 522 c 128,-1,26
 318 542 318 542 365 542 c 0,27,0
 438 542 438 542 475 501.5 c 128,-1,1
EndSplineSet
EndChar
StartChar: Iogonek
Encoding: 302 302 55
Width: 600
GlyphClass: 2
Flags: W
AnchorPoint: "Anchor-5" 300 690 basechar 0
AnchorPoint: "Anchor-4" 300 0 basechar 0
LayerCount: 2
Fore
SplineSet
358 602 m 1,0,-1
 358 89 l 1,1,-1
 508 89 l 1,2,-1
 508 0 l 1,3,-1
 358 0 l 1,4,5
 289 -28 289 -28 263.5 -54.5 c 128,-1,6
 238 -81 238 -81 238 -113 c 0,7,8
 238 -161 238 -161 294 -161 c 0,9,10
 322 -161 322 -161 353 -154 c 1,11,-1
 343 -231 l 1,12,13
 310 -238 310 -238 281 -238 c 0,14,15
 222 -238 222 -238 185 -208.5 c 128,-1,16
 148 -179 148 -179 148 -131 c 0,17,18
 148 -88 148 -88 171.5 -56.5 c 128,-1,19
 195 -25 195 -25 243 0 c 1,20,-1
 92 0 l 1,21,-1
 92 89 l 1,22,-1
 242 89 l 1,23,-1
 242 602 l 1,24,-1
 92 602 l 1,25,-1
 92 690 l 1,26,-1
 508 690 l 1,27,-1
 508 602 l 1,28,-1
 358 602 l 1,0,-1
EndSplineSet
EndChar
StartChar: iogonek
Encoding: 303 303 188
Width: 600
GlyphClass: 2
Flags: W
AnchorPoint: "Anchor-5" 300 528 basechar 0
AnchorPoint: "Anchor-4" 0 0 basechar 0
LayerCount: 2
Fore
SplineSet
246.5 666 m 128,-1,1
 226 686 226 686 226 716 c 256,2,3
 226 746 226 746 246.5 766.5 c 128,-1,4
 267 787 267 787 299 787 c 0,5,6
 332 787 332 787 352.5 766.5 c 128,-1,7
 373 746 373 746 373 716 c 256,8,9
 373 686 373 686 352.5 666 c 128,-1,10
 332 646 332 646 299 646 c 0,11,0
 267 646 267 646 246.5 666 c 128,-1,1
521 82 m 1,12,-1
 521 0 l 1,13,-1
 377 0 l 1,14,15
 308 -28 308 -28 282.5 -54.5 c 128,-1,16
 257 -81 257 -81 257 -113 c 0,17,18
 257 -161 257 -161 313 -161 c 0,19,20
 341 -161 341 -161 372 -154 c 1,21,-1
 362 -231 l 1,22,23
 329 -238 329 -238 300 -238 c 0,24,25
 241 -238 241 -238 204 -208.5 c 128,-1,26
 167 -179 167 -179 167 -131 c 0,27,28
 167 -88 167 -88 190.5 -56.5 c 128,-1,29
 214 -25 214 -25 262 0 c 1,30,-1
 108 0 l 1,31,-1
 108 82 l 1,32,-1
 265 82 l 1,33,-1
 265 446 l 1,34,-1
 113 446 l 1,35,-1
 113 528 l 1,36,-1
 377 528 l 1,37,-1
 377 82 l 1,38,-1
 521 82 l 1,12,-1
EndSplineSet
EndChar
StartChar: dotlessi
Encoding: 305 305 179
Width: 600
GlyphClass: 2
Flags: W
AnchorPoint: "Anchor-5" 300 528 basechar 0
AnchorPoint: "Anchor-4" 0 0 basechar 0
LayerCount: 2
Fore
SplineSet
377 82 m 1,0,-1
 521 82 l 1,1,-1
 521 0 l 1,2,-1
 108 0 l 1,3,-1
 108 82 l 1,4,-1
 265 82 l 1,5,-1
 265 446 l 1,6,-1
 113 446 l 1,7,-1
 113 528 l 1,8,-1
 377 528 l 1,9,-1
 377 82 l 1,0,-1
EndSplineSet
EndChar
StartChar: IJ
Encoding: 306 306 47
Width: 600
GlyphClass: 2
Flags: W
LayerCount: 2
Fore
SplineSet
336 -27.5 m 128,-1,1
 388 4 388 4 407.5 54.5 c 128,-1,2
 427 105 427 105 427 182 c 2,3,-1
 427 607 l 1,4,-1
 213 607 l 1,5,-1
 213 83 l 1,6,-1
 282 83 l 1,7,-1
 282 0 l 1,8,-1
 10 0 l 1,9,-1
 10 83 l 1,10,-1
 100 83 l 1,11,-1
 100 607 l 1,12,-1
 10 607 l 1,13,-1
 10 690 l 1,14,-1
 541 690 l 1,15,-1
 541 181 l 2,16,17
 541 42 541 42 465 -45 c 128,-1,18
 389 -132 389 -132 203 -154 c 1,19,-1
 189 -71 l 1,20,0
 284 -59 284 -59 336 -27.5 c 128,-1,1
EndSplineSet
EndChar
StartChar: ij
Encoding: 307 307 186
Width: 600
GlyphClass: 2
Flags: W
LayerCount: 2
Fore
SplineSet
237 766.5 m 128,-1,1
 258 746 258 746 258 716 c 256,2,3
 258 686 258 686 237 666 c 128,-1,4
 216 646 216 646 183 646 c 0,5,6
 151 646 151 646 131 666 c 128,-1,7
 111 686 111 686 111 716 c 256,8,9
 111 746 111 746 131 766.5 c 128,-1,10
 151 787 151 787 183 787 c 0,11,0
 216 787 216 787 237 766.5 c 128,-1,1
504 766.5 m 128,-1,13
 525 746 525 746 525 716 c 256,14,15
 525 686 525 686 504 666 c 128,-1,16
 483 646 483 646 451 646 c 256,17,18
 419 646 419 646 398.5 666 c 128,-1,19
 378 686 378 686 378 716 c 256,20,21
 378 746 378 746 398.5 766.5 c 128,-1,22
 419 787 419 787 451 787 c 256,23,12
 483 787 483 787 504 766.5 c 128,-1,13
517 80 m 2,24,25
 517 -39 517 -39 447.5 -106.5 c 128,-1,26
 378 -174 378 -174 245 -216 c 1,27,-1
 210 -131 l 1,28,29
 273 -109 273 -109 314.5 -85 c 128,-1,30
 356 -61 356 -61 381.5 -22.5 c 128,-1,31
 407 16 407 16 407 72 c 2,32,-1
 407 448 l 1,33,-1
 237 448 l 1,34,-1
 237 82 l 1,35,-1
 316 82 l 1,36,-1
 316 0 l 1,37,-1
 43 0 l 1,38,-1
 43 82 l 1,39,-1
 128 82 l 1,40,-1
 128 448 l 1,41,-1
 48 448 l 1,42,-1
 48 528 l 1,43,-1
 517 528 l 1,44,-1
 517 80 l 2,24,25
EndSplineSet
EndChar
StartChar: kgreenlandic
Encoding: 312 312 195
Width: 600
GlyphClass: 2
Flags: W
AnchorPoint: "Anchor-5" 300 528 basechar 0
AnchorPoint: "Anchor-4" 300 0 basechar 0
LayerCount: 2
Fore
SplineSet
201 0 m 1,0,-1
 89 0 l 1,1,-1
 89 528 l 1,2,-1
 201 528 l 1,3,-1
 201 0 l 1,0,-1
335 288 m 1,4,-1
 573 0 l 1,5,-1
 436 0 l 1,6,-1
 209 280 l 1,7,-1
 420 528 l 1,8,-1
 550 528 l 1,9,-1
 335 288 l 1,4,-1
EndSplineSet
EndChar
StartChar: Lslash
Encoding: 321 321 66
Width: 600
GlyphClass: 2
Flags: W
AnchorPoint: "Anchor-5" 182 690 basechar 0
AnchorPoint: "Anchor-4" 331 0 basechar 0
LayerCount: 2
Fore
SplineSet
549 97 m 1,0,-1
 536 0 l 1,1,-1
 124 0 l 1,2,-1
 124 253 l 1,3,-1
 71 220 l 1,4,-1
 28 289 l 1,5,-1
 124 347 l 1,6,-1
 124 690 l 1,7,-1
 240 690 l 1,8,-1
 240 419 l 1,9,-1
 389 512 l 1,10,-1
 433 445 l 1,11,-1
 240 325 l 1,12,-1
 240 97 l 1,13,-1
 549 97 l 1,0,-1
EndSplineSet
EndChar
StartChar: lslash
Encoding: 322 322 201
Width: 600
GlyphClass: 2
Flags: W
AnchorPoint: "Anchor-5" 262 740 basechar 0
AnchorPoint: "Anchor-4" 359 0 basechar 0
LayerCount: 2
Fore
SplineSet
513 17 m 1,0,1
 458 -13 458 -13 377 -13 c 0,2,3
 298 -13 298 -13 253.5 31.5 c 128,-1,4
 209 76 209 76 209 154 c 2,5,-1
 209 288 l 1,6,-1
 150 252 l 1,7,-1
 107 319 l 1,8,-1
 209 381 l 1,9,-1
 209 658 l 1,10,-1
 50 658 l 1,11,-1
 50 740 l 1,12,-1
 321 740 l 1,13,-1
 321 450 l 1,14,-1
 401 500 l 1,15,-1
 445 432 l 1,16,-1
 321 356 l 1,17,-1
 321 144 l 2,18,19
 321 77 321 77 401 77 c 0,20,21
 441 77 441 77 485 95 c 1,22,-1
 513 17 l 1,0,1
EndSplineSet
EndChar
StartChar: napostrophe
Encoding: 329 329 205
Width: 600
GlyphClass: 2
Flags: W
AnchorPoint: "Anchor-5" 313 528 basechar 0
AnchorPoint: "Anchor-4" 314 0 basechar 0
LayerCount: 2
Fore
SplineSet
106.5 738.5 m 128,-1,1
 125 721 125 721 125 695 c 0,2,3
 125 680 125 680 120 664.5 c 128,-1,4
 115 649 115 649 100 619 c 2,5,-1
 59 534 l 1,6,-1
 -2 534 l 1,7,-1
 25 643 l 1,8,9
 -2 665 -2 665 -2 695 c 0,10,11
 -2 721 -2 721 16.5 738.5 c 128,-1,12
 35 756 35 756 62 756 c 0,13,0
 88 756 88 756 106.5 738.5 c 128,-1,1
102 528 m 1,14,-1
 199 528 l 1,15,-1
 207 459 l 1,16,17
 240 499 240 499 284.5 520.5 c 128,-1,18
 329 542 329 542 377 542 c 0,19,20
 450 542 450 542 487.5 501 c 128,-1,21
 525 460 525 460 525 385 c 2,22,-1
 525 0 l 1,23,-1
 413 0 l 1,24,-1
 413 329 l 2,25,26
 413 378 413 378 407.5 404.5 c 128,-1,27
 402 431 402 431 385.5 443.5 c 128,-1,28
 369 456 369 456 337 456 c 0,29,30
 301 456 301 456 269 434 c 128,-1,31
 237 412 237 412 214 379 c 1,32,-1
 214 0 l 1,33,-1
 102 0 l 1,34,-1
 102 528 l 1,14,-1
EndSplineSet
Ligature2: "'locl' Localized Forms in Latin lookup 11 subtable" quoteright n
Ligature2: "'locl' Localized Forms in Latin lookup 11 subtable" quotesingle n
EndChar
StartChar: Eng
Encoding: 330 330 72
Width: 600
GlyphClass: 2
Flags: W
AnchorPoint: "Anchor-5" 303 690 basechar 0
AnchorPoint: "Anchor-4" 300 0 basechar 0
LayerCount: 2
Fore
SplineSet
485.5 -175 m 128,-1,1
 442 -218 442 -218 363 -218 c 0,2,3
 295 -218 295 -218 242 -178 c 1,4,-1
 285 -108 l 1,5,6
 305 -119 305 -119 319.5 -124 c 128,-1,7
 334 -129 334 -129 355 -129 c 0,8,9
 413 -129 413 -129 413 -57 c 2,10,-1
 413 0 l 1,11,-1
 378 0 l 1,12,-1
 158 587 l 1,13,14
 174 423 174 423 174 313 c 2,15,-1
 174 0 l 1,16,-1
 71 0 l 1,17,-1
 71 690 l 1,18,-1
 222 690 l 1,19,-1
 442 103 l 1,20,21
 435 177 435 177 430.5 236.5 c 128,-1,22
 426 296 426 296 426 376 c 2,23,-1
 426 690 l 1,24,-1
 529 690 l 1,25,-1
 529 -49 l 2,26,0
 529 -132 529 -132 485.5 -175 c 128,-1,1
EndSplineSet
EndChar
StartChar: eng
Encoding: 331 331 208
Width: 600
GlyphClass: 2
Flags: W
LayerCount: 2
Fore
SplineSet
492 -83 m 128,-1,1
 472 -130 472 -130 435.5 -159 c 128,-1,2
 399 -188 399 -188 336 -215 c 1,3,-1
 295 -133 l 1,4,5
 334 -115 334 -115 355.5 -98 c 128,-1,6
 377 -81 377 -81 388.5 -50 c 128,-1,7
 400 -19 400 -19 400 33 c 2,8,-1
 400 329 l 2,9,10
 400 379 400 379 394.5 405 c 128,-1,11
 389 431 389 431 373 443.5 c 128,-1,12
 357 456 357 456 324 456 c 0,13,14
 289 456 289 456 256.5 433.5 c 128,-1,15
 224 411 224 411 201 378 c 1,16,-1
 201 0 l 1,17,-1
 89 0 l 1,18,-1
 89 528 l 1,19,-1
 186 528 l 1,20,-1
 194 459 l 1,21,22
 226 499 226 499 271.5 520.5 c 128,-1,23
 317 542 317 542 365 542 c 0,24,25
 438 542 438 542 475 501.5 c 128,-1,26
 512 461 512 461 512 385 c 2,27,-1
 512 41 l 2,28,0
 512 -36 512 -36 492 -83 c 128,-1,1
EndSplineSet
EndChar
StartChar: OE
Encoding: 338 338 85
Width: 600
GlyphClass: 2
Flags: W
AnchorPoint: "Anchor-5" 300 690 basechar 0
AnchorPoint: "Anchor-4" 300 0 basechar 0
LayerCount: 2
Fore
SplineSet
297 690 m 1,1,-1
 604 690 l 1,2,-1
 591 604 l 1,3,-1
 371 604 l 1,4,5
 419 538 419 538 426 393 c 1,6,-1
 567 393 l 1,7,-1
 567 307 l 1,8,-1
 426 307 l 1,9,10
 422 159 422 159 366 86 c 1,11,-1
 609 86 l 1,12,-1
 609 0 l 1,13,-1
 294 0 l 1,14,15
 253 -13 253 -13 217 -13 c 0,16,17
 108 -13 108 -13 55.5 77 c 128,-1,18
 3 167 3 167 3 344 c 0,19,20
 3 519 3 519 56 611.5 c 128,-1,21
 109 704 109 704 217 704 c 0,22,0
 255 704 255 704 297 690 c 1,1,-1
138 554 m 128,-1,24
 114 491 114 491 114 344 c 0,25,26
 114 199 114 199 139 135.5 c 128,-1,27
 164 72 164 72 217 72 c 0,28,29
 273 72 273 72 297.5 135.5 c 128,-1,30
 322 199 322 199 322 345 c 0,31,32
 322 445 322 445 311.5 504 c 128,-1,33
 301 563 301 563 278 590 c 128,-1,34
 255 617 255 617 217 617 c 0,35,23
 162 617 162 617 138 554 c 128,-1,24
EndSplineSet
EndChar
StartChar: oe
Encoding: 339 339 221
Width: 600
GlyphClass: 2
Flags: W
LayerCount: 2
Fore
SplineSet
572 474.5 m 128,-1,1
 612 407 612 407 612 278 c 0,2,3
 612 251 612 251 609 230 c 1,4,-1
 357 230 l 1,5,6
 364 146 364 146 388.5 108 c 128,-1,7
 413 70 413 70 461 70 c 0,8,9
 486 70 486 70 506.5 79 c 128,-1,10
 527 88 527 88 552 107 c 1,11,-1
 599 41 l 1,12,13
 567 14 567 14 533 0.5 c 128,-1,14
 499 -13 499 -13 457 -13 c 0,15,16
 351 -13 351 -13 306 80 c 1,17,18
 287 35 287 35 255 11 c 128,-1,19
 223 -13 223 -13 170 -13 c 0,20,21
 82 -13 82 -13 39 59.5 c 128,-1,22
 -4 132 -4 132 -4 264 c 0,23,24
 -4 394 -4 394 39 468 c 128,-1,25
 82 542 82 542 170 542 c 0,26,27
 226 542 226 542 258 517.5 c 128,-1,28
 290 493 290 493 308 446 c 1,29,30
 349 542 349 542 445 542 c 0,31,0
 532 542 532 542 572 474.5 c 128,-1,1
381.5 425.5 m 128,-1,33
 362 390 362 390 357 304 c 1,34,-1
 516 304 l 1,35,36
 514 386 514 386 498 423.5 c 128,-1,37
 482 461 482 461 441 461 c 0,38,32
 401 461 401 461 381.5 425.5 c 128,-1,33
119 410.5 m 128,-1,40
 101 365 101 365 101 264 c 0,41,42
 101 161 101 161 118.5 117 c 128,-1,43
 136 73 136 73 179 73 c 0,44,45
 208 73 208 73 224.5 91.5 c 128,-1,46
 241 110 241 110 248.5 151.5 c 128,-1,47
 256 193 256 193 256 265 c 0,48,49
 256 366 256 366 238.5 411 c 128,-1,50
 221 456 221 456 179 456 c 256,51,39
 137 456 137 456 119 410.5 c 128,-1,40
EndSplineSet
EndChar
StartChar: Scedilla
Encoding: 350 350 96
Width: 600
GlyphClass: 2
Flags: W
AnchorPoint: "Anchor-5" 307 690 basechar 0
AnchorPoint: "Anchor-4" 298 0 basechar 0
LayerCount: 2
Fore
SplineSet
489 53 m 128,-1,1
 429 -3 429 -3 322 -12 c 1,2,-1
 322 -54 l 1,3,4
 370 -58 370 -58 394.5 -82.5 c 128,-1,5
 419 -107 419 -107 419 -143 c 0,6,7
 419 -191 419 -191 381 -219 c 128,-1,8
 343 -247 343 -247 286 -247 c 0,9,10
 255 -247 255 -247 226 -240 c 128,-1,11
 197 -233 197 -233 177 -221 c 1,12,-1
 207 -163 l 1,13,14
 241 -180 241 -180 273 -180 c 0,15,16
 330 -180 330 -180 330 -142 c 0,17,18
 330 -119 330 -119 308.5 -111 c 128,-1,19
 287 -103 287 -103 242 -103 c 1,20,-1
 250 -12 l 1,21,22
 115 -2 115 -2 31 79 c 1,23,-1
 95 150 l 1,24,25
 173 78 173 78 285 78 c 0,26,27
 347 78 347 78 387.5 107 c 128,-1,28
 428 136 428 136 428 189 c 0,29,30
 428 220 428 220 415.5 241 c 128,-1,31
 403 262 403 262 373 278.5 c 128,-1,32
 343 295 343 295 287 312 c 0,33,34
 172 346 172 346 118 393 c 128,-1,35
 64 440 64 440 64 517 c 0,36,37
 64 572 64 572 94.5 614.5 c 128,-1,38
 125 657 125 657 179 680.5 c 128,-1,39
 233 704 233 704 301 704 c 0,40,41
 440 704 440 704 532 621 c 1,42,-1
 471 552 l 1,43,44
 400 613 400 613 308 613 c 0,45,46
 252 613 252 613 217.5 590 c 128,-1,47
 183 567 183 567 183 524 c 0,48,49
 183 497 183 497 197.5 478 c 128,-1,50
 212 459 212 459 246.5 443.5 c 128,-1,51
 281 428 281 428 344 409 c 0,52,53
 444 379 444 379 496.5 332 c 128,-1,54
 549 285 549 285 549 195 c 0,55,0
 549 109 549 109 489 53 c 128,-1,1
EndSplineSet
Substitution2: "'locl' Localized Forms in Latin lookup 5 subtable" Scommaaccent
Substitution2: "'locl' Localized Forms in Latin lookup 4 subtable" Scommaaccent
Substitution2: "'aalt' Access All Alternates in Latin lookup 0 subtable" Scommaaccent
EndChar
StartChar: scedilla
Encoding: 351 351 232
Width: 600
GlyphClass: 2
Flags: W
AnchorPoint: "Anchor-5" 309 528 basechar 0
AnchorPoint: "Anchor-4" 298 0 basechar 0
LayerCount: 2
Fore
SplineSet
460 38 m 128,-1,1
 406 -3 406 -3 322 -12 c 1,2,-1
 322 -54 l 1,3,4
 370 -58 370 -58 394.5 -82.5 c 128,-1,5
 419 -107 419 -107 419 -143 c 0,6,7
 419 -191 419 -191 381 -219 c 128,-1,8
 343 -247 343 -247 286 -247 c 0,9,10
 255 -247 255 -247 226 -240 c 128,-1,11
 197 -233 197 -233 177 -221 c 1,12,-1
 207 -163 l 1,13,14
 241 -180 241 -180 273 -180 c 0,15,16
 330 -180 330 -180 330 -142 c 0,17,18
 330 -119 330 -119 308.5 -111 c 128,-1,19
 287 -103 287 -103 242 -103 c 1,20,-1
 250 -12 l 1,21,22
 137 -4 137 -4 64 61 c 1,23,-1
 123 129 l 1,24,25
 156 103 156 103 196.5 87.5 c 128,-1,26
 237 72 237 72 281 72 c 0,27,28
 334 72 334 72 364.5 91 c 128,-1,29
 395 110 395 110 395 143 c 0,30,31
 395 166 395 166 386 180.5 c 128,-1,32
 377 195 377 195 350 207.5 c 128,-1,33
 323 220 323 220 269 234 c 0,34,35
 182 256 182 256 138.5 290.5 c 128,-1,36
 95 325 95 325 95 390 c 0,37,38
 95 459 95 459 152 500.5 c 128,-1,39
 209 542 209 542 306 542 c 0,40,41
 423 542 423 542 507 481 c 1,42,-1
 459 410 l 1,43,44
 388 457 388 457 309 457 c 0,45,46
 209 457 209 457 209 399 c 0,47,48
 209 379 209 379 220.5 366 c 128,-1,49
 232 353 232 353 260 341.5 c 128,-1,50
 288 330 288 330 343 315 c 0,51,52
 429 291 429 291 471.5 256 c 128,-1,53
 514 221 514 221 514 151 c 0,54,0
 514 79 514 79 460 38 c 128,-1,1
EndSplineSet
Substitution2: "'locl' Localized Forms in Latin lookup 5 subtable" scommaaccent
Substitution2: "'locl' Localized Forms in Latin lookup 4 subtable" scommaaccent
Substitution2: "'aalt' Access All Alternates in Latin lookup 0 subtable" scommaaccent
EndChar
StartChar: uni0162
Encoding: 354 354 102
Width: 600
GlyphClass: 2
Flags: W
AnchorPoint: "Anchor-5" 299 690 basechar 0
AnchorPoint: "Anchor-4" 299 0 basechar 0
LayerCount: 2
Fore
SplineSet
335 0 m 1,0,-1
 335 -54 l 1,1,2
 383 -58 383 -58 407.5 -82.5 c 128,-1,3
 432 -107 432 -107 432 -143 c 0,4,5
 432 -191 432 -191 394.5 -219 c 128,-1,6
 357 -247 357 -247 300 -247 c 0,7,8
 269 -247 269 -247 239.5 -240 c 128,-1,9
 210 -233 210 -233 190 -221 c 1,10,-1
 221 -163 l 1,11,12
 253 -180 253 -180 287 -180 c 0,13,14
 344 -180 344 -180 344 -142 c 0,15,16
 344 -119 344 -119 322.5 -111 c 128,-1,17
 301 -103 301 -103 255 -103 c 1,18,-1
 265 0 l 1,19,-1
 241 0 l 1,20,-1
 241 596 l 1,21,-1
 33 596 l 1,22,-1
 33 690 l 1,23,-1
 568 690 l 1,24,-1
 556 596 l 1,25,-1
 357 596 l 1,26,-1
 357 0 l 1,27,-1
 335 0 l 1,0,-1
EndSplineSet
Substitution2: "'locl' Localized Forms in Latin lookup 5 subtable" uni021A
Substitution2: "'locl' Localized Forms in Latin lookup 4 subtable" uni021A
Substitution2: "'aalt' Access All Alternates in Latin lookup 0 subtable" uni021A
EndChar
StartChar: uni0163
Encoding: 355 355 239
Width: 600
GlyphClass: 2
Flags: W
AnchorPoint: "Anchor-5" 244 652 basechar 0
AnchorPoint: "Anchor-4" 367 0 basechar 0
LayerCount: 2
Fore
SplineSet
463.5 -82.5 m 128,-1,1
 488 -107 488 -107 488 -143 c 0,2,3
 488 -191 488 -191 450 -219 c 128,-1,4
 412 -247 412 -247 355 -247 c 0,5,6
 324 -247 324 -247 295 -240 c 128,-1,7
 266 -233 266 -233 246 -221 c 1,8,-1
 276 -163 l 1,9,10
 310 -180 310 -180 342 -180 c 0,11,12
 399 -180 399 -180 399 -142 c 0,13,14
 399 -119 399 -119 377.5 -111 c 128,-1,15
 356 -103 356 -103 311 -103 c 1,16,-1
 319 -8 l 1,17,18
 255 6 255 6 221.5 50.5 c 128,-1,19
 188 95 188 95 188 160 c 2,20,-1
 188 446 l 1,21,-1
 71 446 l 1,22,-1
 71 528 l 1,23,-1
 188 528 l 1,24,-1
 188 646 l 1,25,-1
 300 659 l 1,26,-1
 300 528 l 1,27,-1
 479 528 l 1,28,-1
 466 446 l 1,29,-1
 300 446 l 1,30,-1
 300 161 l 2,31,32
 300 118 300 118 322 97.5 c 128,-1,33
 344 77 344 77 392 77 c 0,34,35
 445 77 445 77 490 102 c 1,36,-1
 530 28 l 1,37,38
 503 10 503 10 466.5 -1 c 128,-1,39
 430 -12 430 -12 391 -13 c 1,40,-1
 391 -54 l 1,41,0
 439 -58 439 -58 463.5 -82.5 c 128,-1,1
EndSplineSet
Substitution2: "'locl' Localized Forms in Latin lookup 5 subtable" uni021B
Substitution2: "'locl' Localized Forms in Latin lookup 4 subtable" uni021B
Substitution2: "'aalt' Access All Alternates in Latin lookup 0 subtable" uni021B
EndChar
StartChar: Tbar
Encoding: 358 358 100
Width: 600
GlyphClass: 2
Flags: W
AnchorPoint: "Anchor-5" 299 690 basechar 0
AnchorPoint: "Anchor-4" 299 0 basechar 0
LayerCount: 2
Fore
SplineSet
357 596 m 1,0,-1
 357 413 l 1,1,-1
 483 413 l 1,2,-1
 483 336 l 1,3,-1
 357 336 l 1,4,-1
 357 0 l 1,5,-1
 241 0 l 1,6,-1
 241 336 l 1,7,-1
 116 336 l 1,8,-1
 116 413 l 1,9,-1
 241 413 l 1,10,-1
 241 596 l 1,11,-1
 33 596 l 1,12,-1
 33 690 l 1,13,-1
 568 690 l 1,14,-1
 556 596 l 1,15,-1
 357 596 l 1,0,-1
EndSplineSet
EndChar
StartChar: tbar
Encoding: 359 359 237
Width: 600
GlyphClass: 2
Flags: W
AnchorPoint: "Anchor-5" 244 652 basechar 0
AnchorPoint: "Anchor-4" 367 0 basechar 0
LayerCount: 2
Fore
SplineSet
530 28 m 1,0,1
 500 9 500 9 460 -2 c 128,-1,2
 420 -13 420 -13 376 -13 c 0,3,4
 286 -13 286 -13 237 33.5 c 128,-1,5
 188 80 188 80 188 160 c 2,6,-1
 188 278 l 1,7,-1
 82 278 l 1,8,-1
 82 355 l 1,9,-1
 188 355 l 1,10,-1
 188 446 l 1,11,-1
 71 446 l 1,12,-1
 71 528 l 1,13,-1
 188 528 l 1,14,-1
 188 646 l 1,15,-1
 300 659 l 1,16,-1
 300 528 l 1,17,-1
 479 528 l 1,18,-1
 466 446 l 1,19,-1
 300 446 l 1,20,-1
 300 355 l 1,21,-1
 466 355 l 1,22,-1
 466 278 l 1,23,-1
 300 278 l 1,24,-1
 300 161 l 2,25,26
 300 118 300 118 322 97.5 c 128,-1,27
 344 77 344 77 392 77 c 0,28,29
 445 77 445 77 490 102 c 1,30,-1
 530 28 l 1,0,1
EndSplineSet
EndChar
StartChar: Uogonek
Encoding: 370 370 112
Width: 600
GlyphClass: 2
Flags: W
AnchorPoint: "Anchor-5" 300 690 basechar 0
AnchorPoint: "Anchor-4" 300 0 basechar 0
LayerCount: 2
Fore
SplineSet
539 690 m 1,0,-1
 539 226 l 2,1,2
 539 141 539 141 497.5 80 c 128,-1,3
 456 19 456 19 381 -3 c 1,4,5
 315 -30 315 -30 291 -56 c 128,-1,6
 267 -82 267 -82 267 -113 c 0,7,8
 267 -161 267 -161 323 -161 c 0,9,10
 351 -161 351 -161 382 -154 c 1,11,-1
 372 -231 l 1,12,13
 339 -238 339 -238 310 -238 c 0,14,15
 251 -238 251 -238 214 -208.5 c 128,-1,16
 177 -179 177 -179 177 -131 c 0,17,18
 177 -93 177 -93 196.5 -63.5 c 128,-1,19
 216 -34 216 -34 254 -10 c 1,20,21
 162 3 162 3 111.5 66 c 128,-1,22
 61 129 61 129 61 226 c 2,23,-1
 61 690 l 1,24,-1
 177 690 l 1,25,-1
 177 248 l 2,26,27
 177 162 177 162 206.5 120.5 c 128,-1,28
 236 79 236 79 299 79 c 0,29,30
 363 79 363 79 392.5 120.5 c 128,-1,31
 422 162 422 162 422 248 c 2,32,-1
 422 690 l 1,33,-1
 539 690 l 1,0,-1
EndSplineSet
EndChar
StartChar: uogonek
Encoding: 371 371 249
Width: 600
GlyphClass: 2
Flags: W
AnchorPoint: "Anchor-5" 300 528 basechar 0
AnchorPoint: "Anchor-4" 0 0 basechar 0
LayerCount: 2
Fore
SplineSet
511 528 m 1,0,-1
 511 0 l 1,1,2
 442 -28 442 -28 416.5 -54.5 c 128,-1,3
 391 -81 391 -81 391 -113 c 0,4,5
 391 -161 391 -161 447 -161 c 0,6,7
 475 -161 475 -161 506 -154 c 1,8,-1
 496 -231 l 1,9,10
 463 -238 463 -238 434 -238 c 0,11,12
 375 -238 375 -238 338 -208.5 c 128,-1,13
 301 -179 301 -179 301 -131 c 0,14,15
 301 -85 301 -85 329 -51 c 128,-1,16
 357 -17 357 -17 413 9 c 1,17,-1
 407 68 l 1,18,19
 379 29 379 29 334 8 c 128,-1,20
 289 -13 289 -13 241 -13 c 0,21,22
 165 -13 165 -13 127 28 c 128,-1,23
 89 69 89 69 89 145 c 2,24,-1
 89 528 l 1,25,-1
 201 528 l 1,26,-1
 201 159 l 2,27,28
 201 113 201 113 219.5 92.5 c 128,-1,29
 238 72 238 72 276 72 c 0,30,31
 312 72 312 72 345.5 93 c 128,-1,32
 379 114 379 114 399 146 c 1,33,-1
 399 528 l 1,34,-1
 511 528 l 1,0,-1
EndSplineSet
EndChar
StartChar: florin
Encoding: 402 402 1060
Width: 600
GlyphClass: 2
Flags: W
LayerCount: 2
Fore
SplineSet
442 745.5 m 128,-1,1
 473 738 473 738 507 723 c 1,2,-1
 473 646 l 1,3,4
 429 666 429 666 383 666 c 0,5,6
 341 666 341 666 324 648 c 128,-1,7
 307 630 307 630 307 591 c 2,8,-1
 307 528 l 1,9,-1
 435 528 l 1,10,-1
 422 445 l 1,11,-1
 307 445 l 1,12,-1
 307 48 l 2,13,14
 307 -32 307 -32 287.5 -81 c 128,-1,15
 268 -130 268 -130 231 -159.5 c 128,-1,16
 194 -189 194 -189 132 -215 c 1,17,-1
 92 -134 l 1,18,19
 131 -116 131 -116 152.5 -98.5 c 128,-1,20
 174 -81 174 -81 185 -50 c 128,-1,21
 196 -19 196 -19 196 33 c 2,22,-1
 196 445 l 1,23,-1
 112 445 l 1,24,-1
 112 528 l 1,25,-1
 196 528 l 1,26,-1
 196 592 l 2,27,28
 196 663 196 663 242 708 c 128,-1,29
 288 753 288 753 372 753 c 0,30,0
 411 753 411 753 442 745.5 c 128,-1,1
EndSplineSet
EndChar
StartChar: uni0237
Encoding: 567 567 191
Width: 600
GlyphClass: 2
Flags: W
AnchorPoint: "Anchor-5" 369 528 basechar 0
AnchorPoint: "Anchor-4" 0 0 basechar 0
LayerCount: 2
Fore
SplineSet
455 111 m 2,0,1
 455 -32 455 -32 368 -108 c 128,-1,2
 281 -184 281 -184 104 -216 c 1,3,-1
 86 -130 l 1,4,5
 214 -106 214 -106 278.5 -53 c 128,-1,6
 343 0 343 0 343 104 c 2,7,-1
 343 446 l 1,8,-1
 135 446 l 1,9,-1
 135 528 l 1,10,-1
 455 528 l 1,11,-1
 455 111 l 2,0,1
EndSplineSet
EndChar
StartChar: uni02B9
Encoding: 697 697 1427
Width: 600
Flags: W
LayerCount: 2
Fore
SplineSet
286 690 m 1,0,-1
 398 690 l 1,1,-1
 282 423 l 1,2,-1
 202 423 l 1,3,-1
 286 690 l 1,0,-1
EndSplineSet
EndChar
StartChar: uni02BC
Encoding: 700 700 1478
Width: 600
Flags: W
LayerCount: 2
Fore
SplineSet
337.5 734.5 m 128,-1,1
 356 717 356 717 356 691 c 0,2,3
 356 677 356 677 350 660.5 c 128,-1,4
 344 644 344 644 329 613 c 2,5,-1
 290 533 l 1,6,-1
 229 533 l 1,7,-1
 255 638 l 1,8,9
 228 658 228 658 228 690 c 0,10,11
 228 716 228 716 246.5 734 c 128,-1,12
 265 752 265 752 292 752 c 256,13,0
 319 752 319 752 337.5 734.5 c 128,-1,1
EndSplineSet
EndChar
StartChar: circumflex
Encoding: 710 710 1432
Width: 600
Flags: W
LayerCount: 2
Fore
SplineSet
127 672 m 1,0,-1
 264 799 l 1,1,-1
 336 799 l 1,2,-1
 473 672 l 1,3,-1
 428 622 l 1,4,-1
 301 714 l 1,5,-1
 173 622 l 1,6,-1
 127 672 l 1,0,-1
EndSplineSet
Substitution2: "'case' Case-Sensitive Forms in Latin lookup 23 subtable" circumflex.case
Substitution2: "'aalt' Access All Alternates in Latin lookup 0 subtable" circumflex.case
EndChar
StartChar: caron
Encoding: 711 711 1430
Width: 600
Flags: W
LayerCount: 2
Fore
SplineSet
473 749 m 1,0,-1
 336 622 l 1,1,-1
 264 622 l 1,2,-1
 127 749 l 1,3,-1
 173 799 l 1,4,-1
 301 707 l 1,5,-1
 428 799 l 1,6,-1
 473 749 l 1,0,-1
EndSplineSet
Substitution2: "'case' Case-Sensitive Forms in Latin lookup 23 subtable" caron.case
Substitution2: "'aalt' Access All Alternates in Latin lookup 0 subtable" caron.case
EndChar
StartChar: breve
Encoding: 728 728 1429
Width: 600
Flags: W
LayerCount: 2
Fore
SplineSet
189.5 668 m 128,-1,1
 149 713 149 713 142 774 c 1,2,-1
 211 787 l 1,3,4
 221 748 221 748 243 726 c 128,-1,5
 265 704 265 704 299 704 c 256,6,7
 333 704 333 704 355.5 726 c 128,-1,8
 378 748 378 748 389 787 c 1,9,-1
 457 774 l 1,10,11
 453 736 453 736 433.5 701.5 c 128,-1,12
 414 667 414 667 379.5 645 c 128,-1,13
 345 623 345 623 299 623 c 0,14,0
 230 623 230 623 189.5 668 c 128,-1,1
EndSplineSet
Substitution2: "'case' Case-Sensitive Forms in Latin lookup 23 subtable" breve.case
Substitution2: "'aalt' Access All Alternates in Latin lookup 0 subtable" breve.case
EndChar
StartChar: dotaccent
Encoding: 729 729 1434
Width: 600
Flags: W
LayerCount: 2
Fore
SplineSet
352.5 766.5 m 128,-1,1
 373 746 373 746 373 716 c 256,2,3
 373 686 373 686 352.5 666 c 128,-1,4
 332 646 332 646 299 646 c 0,5,6
 267 646 267 646 246.5 666 c 128,-1,7
 226 686 226 686 226 716 c 256,8,9
 226 746 226 746 246.5 766.5 c 128,-1,10
 267 787 267 787 299 787 c 0,11,0
 332 787 332 787 352.5 766.5 c 128,-1,1
EndSplineSet
Substitution2: "'case' Case-Sensitive Forms in Latin lookup 23 subtable" dotaccent.case
Substitution2: "'aalt' Access All Alternates in Latin lookup 0 subtable" dotaccent.case
EndChar
StartChar: ring
Encoding: 730 730 1439
Width: 600
Flags: W
LayerCount: 2
Fore
SplineSet
387.5 806.5 m 128,-1,1
 421 774 421 774 421 726 c 256,2,3
 421 678 421 678 387.5 645 c 128,-1,4
 354 612 354 612 300 612 c 256,5,6
 246 612 246 612 212 645 c 128,-1,7
 178 678 178 678 178 726 c 256,8,9
 178 774 178 774 212 806.5 c 128,-1,10
 246 839 246 839 300 839 c 256,11,0
 354 839 354 839 387.5 806.5 c 128,-1,1
262.5 765 m 128,-1,13
 249 751 249 751 249 726 c 0,14,15
 249 700 249 700 262.5 685.5 c 128,-1,16
 276 671 276 671 300 671 c 0,17,18
 323 671 323 671 336.5 685.5 c 128,-1,19
 350 700 350 700 350 726 c 0,20,21
 350 751 350 751 336.5 765 c 128,-1,22
 323 779 323 779 300 779 c 0,23,12
 276 779 276 779 262.5 765 c 128,-1,13
EndSplineSet
Substitution2: "'case' Case-Sensitive Forms in Latin lookup 23 subtable" ring.case
Substitution2: "'aalt' Access All Alternates in Latin lookup 0 subtable" ring.case
EndChar
StartChar: ogonek
Encoding: 731 731 1438
Width: 600
Flags: W
LayerCount: 2
Fore
SplineSet
399 0 m 1,0,1
 330 -28 330 -28 304.5 -54.5 c 128,-1,2
 279 -81 279 -81 279 -113 c 0,3,4
 279 -161 279 -161 335 -161 c 0,5,6
 363 -161 363 -161 394 -154 c 1,7,-1
 384 -231 l 1,8,9
 351 -238 351 -238 322 -238 c 0,10,11
 263 -238 263 -238 226 -208.5 c 128,-1,12
 189 -179 189 -179 189 -131 c 0,13,14
 189 -70 189 -70 237.5 -30.5 c 128,-1,15
 286 9 286 9 384 39 c 1,16,-1
 399 0 l 1,0,1
EndSplineSet
EndChar
StartChar: hungarumlaut
Encoding: 733 733 1436
Width: 600
Flags: W
LayerCount: 2
Fore
SplineSet
215 844 m 1,0,-1
 302 803 l 1,1,-1
 194 632 l 1,2,-1
 129 662 l 1,3,-1
 215 844 l 1,0,-1
385 844 m 1,4,-1
 471 800 l 1,5,-1
 356 630 l 1,6,-1
 293 662 l 1,7,-1
 385 844 l 1,4,-1
EndSplineSet
Substitution2: "'case' Case-Sensitive Forms in Latin lookup 23 subtable" hungarumlaut.case
Substitution2: "'aalt' Access All Alternates in Latin lookup 0 subtable" hungarumlaut.case
EndChar
StartChar: gravecomb
Encoding: 768 768 1417
Width: 0
GlyphClass: 4
Flags: W
AnchorPoint: "Anchor-8" -300 528 mark 0
AnchorPoint: "Anchor-6" -300 528 mark 0
AnchorPoint: "Anchor-5" -300 528 mark 0
AnchorPoint: "Anchor-3" -300 528 mark 0
AnchorPoint: "Anchor-1" -300 528 mark 0
LayerCount: 2
Fore
SplineSet
-174 692 m 1,0,-1
 -207 633 l 1,1,-1
 -426 722 l 1,2,-1
 -379 811 l 1,3,-1
 -174 692 l 1,0,-1
EndSplineSet
EndChar
StartChar: acutecomb
Encoding: 769 769 1406
Width: 0
GlyphClass: 4
Flags: W
AnchorPoint: "Anchor-8" -300 528 mark 0
AnchorPoint: "Anchor-6" -300 528 mark 0
AnchorPoint: "Anchor-5" -300 528 mark 0
AnchorPoint: "Anchor-3" -300 528 mark 0
AnchorPoint: "Anchor-1" -300 528 mark 0
LayerCount: 2
Fore
SplineSet
-172 722 m 1,0,-1
 -391 633 l 1,1,-1
 -424 692 l 1,2,-1
 -219 811 l 1,3,-1
 -172 722 l 1,0,-1
EndSplineSet
EndChar
StartChar: uni0302
Encoding: 770 770 1410
Width: 0
GlyphClass: 4
Flags: W
AnchorPoint: "Anchor-8" -300 528 mark 0
AnchorPoint: "Anchor-6" -300 528 mark 0
AnchorPoint: "Anchor-5" -300 528 mark 0
AnchorPoint: "Anchor-3" -300 528 mark 0
AnchorPoint: "Anchor-1" -300 528 mark 0
LayerCount: 2
Fore
SplineSet
-127 645 m 1,0,-1
 -171 594 l 1,1,-1
 -300 676 l 1,2,-1
 -428 594 l 1,3,-1
 -473 645 l 1,4,-1
 -335 761 l 1,5,-1
 -263 761 l 1,6,-1
 -127 645 l 1,0,-1
EndSplineSet
EndChar
StartChar: uni0306
Encoding: 774 774 1407
Width: 0
GlyphClass: 4
Flags: W
AnchorPoint: "Anchor-8" -300 528 mark 0
AnchorPoint: "Anchor-6" -300 528 mark 0
AnchorPoint: "Anchor-5" -300 528 mark 0
AnchorPoint: "Anchor-3" -300 528 mark 0
AnchorPoint: "Anchor-1" -300 528 mark 0
LayerCount: 2
Fore
SplineSet
-409.5 623.5 m 128,-1,1
 -452 660 -452 660 -458 719 c 1,2,-1
 -389 733 l 1,3,4
 -368 669 -368 669 -301 669 c 0,5,6
 -266 669 -266 669 -243.5 685.5 c 128,-1,7
 -221 702 -221 702 -211 733 c 1,8,-1
 -142 719 l 1,9,10
 -148 660 -148 660 -191 623.5 c 128,-1,11
 -234 587 -234 587 -301 587 c 0,12,0
 -367 587 -367 587 -409.5 623.5 c 128,-1,1
EndSplineSet
EndChar
StartChar: uni0307
Encoding: 775 775 1416
Width: 0
GlyphClass: 4
Flags: W
AnchorPoint: "Anchor-8" -300 528 mark 0
AnchorPoint: "Anchor-6" -300 528 mark 0
AnchorPoint: "Anchor-5" -300 528 mark 0
AnchorPoint: "Anchor-3" -300 528 mark 0
AnchorPoint: "Anchor-1" -300 528 mark 0
LayerCount: 2
Fore
SplineSet
-246.5 719 m 128,-1,1
 -226 699 -226 699 -226 669 c 0,2,3
 -226 638 -226 638 -246.5 618 c 128,-1,4
 -267 598 -267 598 -300 598 c 0,5,6
 -332 598 -332 598 -352.5 618 c 128,-1,7
 -373 638 -373 638 -373 669 c 0,8,9
 -373 699 -373 699 -352.5 719 c 128,-1,10
 -332 739 -332 739 -300 739 c 0,11,0
 -267 739 -267 739 -246.5 719 c 128,-1,1
EndSplineSet
EndChar
StartChar: uni030C
Encoding: 780 780 1408
Width: 0
GlyphClass: 4
Flags: W
AnchorPoint: "Anchor-8" -300 528 mark 0
AnchorPoint: "Anchor-6" -300 528 mark 0
AnchorPoint: "Anchor-5" -300 528 mark 0
AnchorPoint: "Anchor-3" -300 528 mark 0
AnchorPoint: "Anchor-1" -300 528 mark 0
LayerCount: 2
Fore
SplineSet
-127 700 m 1,0,-1
 -263 584 l 1,1,-1
 -335 584 l 1,2,-1
 -473 700 l 1,3,-1
 -428 751 l 1,4,-1
 -300 669 l 1,5,-1
 -171 751 l 1,6,-1
 -127 700 l 1,0,-1
EndSplineSet
EndChar
StartChar: uni030F
Encoding: 783 783 1414
Width: 0
GlyphClass: 4
Flags: W
AnchorPoint: "Anchor-8" -249 528 mark 0
AnchorPoint: "Anchor-6" -306 841 basemark 0
AnchorPoint: "Anchor-6" -249 528 mark 0
AnchorPoint: "Anchor-5" -249 528 mark 0
AnchorPoint: "Anchor-3" -249 528 mark 0
AnchorPoint: "Anchor-1" -249 528 mark 0
LayerCount: 2
Fore
SplineSet
-356 630 m 1,0,-1
 -471 800 l 1,1,-1
 -385 844 l 1,2,-1
 -293 662 l 1,3,-1
 -356 630 l 1,0,-1
-194 632 m 1,4,-1
 -302 803 l 1,5,-1
 -215 844 l 1,6,-1
 -129 662 l 1,7,-1
 -194 632 l 1,4,-1
EndSplineSet
EndChar
StartChar: uni0314
Encoding: 788 788 1413
Width: 0
GlyphClass: 4
Flags: W
AnchorPoint: "Anchor-8" -303 528 mark 0
AnchorPoint: "Anchor-6" -303 528 mark 0
AnchorPoint: "Anchor-5" -303 528 mark 0
AnchorPoint: "Anchor-3" -303 528 mark 0
AnchorPoint: "Anchor-1" -303 528 mark 0
LayerCount: 2
Fore
SplineSet
-348.5 580 m 128,-1,1
 -367 598 -367 598 -367 625 c 256,2,3
 -367 652 -367 652 -348 690 c 2,4,-1
 -299 793 l 1,5,-1
 -237 793 l 1,6,-1
 -265 677 l 1,7,8
 -253 668 -253 668 -246.5 654 c 128,-1,9
 -240 640 -240 640 -240 625 c 0,10,11
 -240 598 -240 598 -258 580 c 128,-1,12
 -276 562 -276 562 -303 562 c 256,13,0
 -330 562 -330 562 -348.5 580 c 128,-1,1
EndSplineSet
EndChar
StartChar: uni0335
Encoding: 821 821 1422
Width: 0
Flags: W
LayerCount: 2
Fore
SplineSet
-482 279 m 1,0,-1
 -482 356 l 1,1,-1
 -119 356 l 1,2,-1
 -119 279 l 1,3,-1
 -482 279 l 1,0,-1
EndSplineSet
EndChar
StartChar: uni0342
Encoding: 834 834 1456
Width: 0
GlyphClass: 4
Flags: W
AnchorPoint: "Anchor-8" -297 736 basemark 0
AnchorPoint: "Anchor-8" -300 528 mark 0
AnchorPoint: "Anchor-6" -300 528 mark 0
AnchorPoint: "Anchor-5" -300 528 mark 0
AnchorPoint: "Anchor-3" -300 528 mark 0
AnchorPoint: "Anchor-1" -300 528 mark 0
LayerCount: 2
Fore
SplineSet
-278.5 657 m 128,-1,1
 -294 664 -294 664 -313 677 c 0,2,3
 -328 688 -328 688 -337.5 692.5 c 128,-1,4
 -347 697 -347 697 -358 697 c 0,5,6
 -375 697 -375 697 -386.5 686 c 128,-1,7
 -398 675 -398 675 -411 651 c 1,8,-1
 -474 682 l 1,9,10
 -454 726 -454 726 -425 753 c 128,-1,11
 -396 780 -396 780 -359 780 c 0,12,13
 -338 780 -338 780 -321.5 772.5 c 128,-1,14
 -305 765 -305 765 -287 752 c 0,15,16
 -273 742 -273 742 -263.5 737 c 128,-1,17
 -254 732 -254 732 -243 732 c 0,18,19
 -228 732 -228 732 -216 742.5 c 128,-1,20
 -204 753 -204 753 -190 776 c 1,21,-1
 -127 745 l 1,22,23
 -147 699 -147 699 -176.5 674.5 c 128,-1,24
 -206 650 -206 650 -243 650 c 0,25,0
 -263 650 -263 650 -278.5 657 c 128,-1,1
EndSplineSet
EndChar
StartChar: uni0345
Encoding: 837 837 1457
Width: 0
GlyphClass: 4
Flags: W
AnchorPoint: "Anchor-7" -289 -194 basemark 0
AnchorPoint: "Anchor-7" -365 0 mark 0
AnchorPoint: "Anchor-4" -365 0 mark 0
AnchorPoint: "Anchor-2" -365 0 mark 0
AnchorPoint: "Anchor-0" -365 0 mark 0
LayerCount: 2
Fore
SplineSet
-379 -163.5 m 128,-1,1
 -410 -133 -410 -133 -410 -82 c 2,2,-1
 -410 -40 l 1,3,-1
 -321 -40 l 1,4,-1
 -321 -80 l 2,5,6
 -321 -121 -321 -121 -280 -121 c 0,7,8
 -263 -121 -263 -121 -251 -117.5 c 128,-1,9
 -239 -114 -239 -114 -225 -105 c 1,10,-1
 -189 -159 l 1,11,12
 -234 -194 -234 -194 -292 -194 c 0,13,0
 -348 -194 -348 -194 -379 -163.5 c 128,-1,1
EndSplineSet
EndChar
StartChar: uni0370
Encoding: 880 880 600
Width: 600
GlyphClass: 2
Flags: W
AnchorPoint: "Anchor-3" 300 690 basechar 0
AnchorPoint: "Anchor-2" 300 0 basechar 0
LayerCount: 2
Fore
SplineSet
223 314 m 1,0,-1
 223 0 l 1,1,-1
 107 0 l 1,2,-1
 107 690 l 1,3,-1
 223 690 l 1,4,-1
 223 409 l 1,5,-1
 493 409 l 1,6,-1
 493 314 l 1,7,-1
 223 314 l 1,0,-1
EndSplineSet
EndChar
StartChar: uni0371
Encoding: 881 881 751
Width: 600
GlyphClass: 2
Flags: W
AnchorPoint: "Anchor-3" 300 528 basechar 0
AnchorPoint: "Anchor-2" 300 0 basechar 0
LayerCount: 2
Fore
SplineSet
527 225 m 1,0,-1
 238 225 l 1,1,-1
 238 0 l 1,2,-1
 126 0 l 1,3,-1
 126 365 l 2,4,5
 126 453 126 453 101 526 c 1,6,-1
 204 541 l 1,7,8
 220 508 220 508 229 462.5 c 128,-1,9
 238 417 238 417 238 341 c 2,10,-1
 238 316 l 1,11,-1
 527 316 l 1,12,-1
 527 225 l 1,0,-1
EndSplineSet
EndChar
StartChar: uni0372
Encoding: 882 882 601
Width: 600
GlyphClass: 2
Flags: W
AnchorPoint: "Anchor-3" 300 690 basechar 0
AnchorPoint: "Anchor-2" 300 0 basechar 0
LayerCount: 2
Fore
SplineSet
572 690 m 1,0,-1
 572 415 l 1,1,-1
 479 415 l 1,2,-1
 479 596 l 1,3,-1
 358 596 l 1,4,-1
 358 0 l 1,5,-1
 242 0 l 1,6,-1
 242 596 l 1,7,-1
 122 596 l 1,8,-1
 122 414 l 1,9,-1
 29 414 l 1,10,-1
 29 690 l 1,11,-1
 572 690 l 1,0,-1
EndSplineSet
EndChar
StartChar: uni0373
Encoding: 883 883 752
Width: 600
GlyphClass: 2
Flags: W
AnchorPoint: "Anchor-3" 300 528 basechar 0
AnchorPoint: "Anchor-2" 300 -208 basechar 0
LayerCount: 2
Fore
SplineSet
568 440 m 1,0,-1
 355 440 l 1,1,-1
 355 -203 l 1,2,-1
 243 -216 l 1,3,-1
 243 440 l 1,4,-1
 127 440 l 2,5,6
 97 440 97 440 77.5 438 c 128,-1,7
 58 436 58 436 34 429 c 1,8,-1
 16 512 l 1,9,10
 41 521 41 521 64.5 524.5 c 128,-1,11
 88 528 88 528 127 528 c 2,12,-1
 568 528 l 1,13,-1
 568 440 l 1,0,-1
EndSplineSet
EndChar
StartChar: uni0375
Encoding: 885 885 1405
Width: 600
GlyphClass: 2
Flags: W
LayerCount: 2
Fore
SplineSet
314 -133 m 1,0,-1
 202 -133 l 1,1,-1
 318 134 l 1,2,-1
 398 134 l 1,3,-1
 314 -133 l 1,0,-1
EndSplineSet
EndChar
StartChar: uni0377
Encoding: 887 887 753
Width: 600
GlyphClass: 2
Flags: W
AnchorPoint: "Anchor-3" 300 528 basechar 0
AnchorPoint: "Anchor-2" 300 0 basechar 0
LayerCount: 2
Fore
SplineSet
515 98.5 m 128,-1,1
 525 81 525 81 550 69 c 1,2,-1
 515 -13 l 1,3,4
 453 2 453 2 424 39.5 c 128,-1,5
 395 77 395 77 395 144 c 0,6,7
 395 182 395 182 404 279 c 128,-1,8
 413 376 413 376 419 415 c 1,9,-1
 209 0 l 1,10,-1
 84 0 l 1,11,-1
 84 528 l 1,12,-1
 193 528 l 1,13,-1
 193 310 l 2,14,15
 193 253 193 253 188 196 c 128,-1,16
 183 139 183 139 177 116 c 1,17,-1
 384 528 l 1,18,-1
 505 528 l 1,19,-1
 505 152 l 2,20,0
 505 116 505 116 515 98.5 c 128,-1,1
EndSplineSet
EndChar
StartChar: uni037B
Encoding: 891 891 754
Width: 600
GlyphClass: 2
Flags: W
LayerCount: 2
Fore
SplineSet
162 2.5 m 128,-1,1
 118 18 118 18 79 48 c 1,2,-1
 130 119 l 1,3,4
 165 98 165 98 192 88.5 c 128,-1,5
 219 79 219 79 255 79 c 0,6,7
 323 79 323 79 361 122.5 c 128,-1,8
 399 166 399 166 399 261 c 0,9,10
 399 360 399 360 365.5 406 c 128,-1,11
 332 452 332 452 265 452 c 0,12,13
 225 452 225 452 194.5 442.5 c 128,-1,14
 164 433 164 433 131 413 c 1,15,-1
 79 482 l 1,16,17
 125 514 125 514 168.5 528 c 128,-1,18
 212 542 212 542 268 542 c 0,19,20
 387 542 387 542 452.5 466.5 c 128,-1,21
 518 391 518 391 518 260 c 0,22,23
 518 176 518 176 486.5 114.5 c 128,-1,24
 455 53 455 53 397 20 c 128,-1,25
 339 -13 339 -13 261 -13 c 0,26,0
 206 -13 206 -13 162 2.5 c 128,-1,1
EndSplineSet
EndChar
StartChar: uni037C
Encoding: 892 892 755
Width: 600
GlyphClass: 2
Flags: W
AnchorPoint: "Anchor-3" 300 528 basechar 0
AnchorPoint: "Anchor-2" 300 0 basechar 0
LayerCount: 2
Fore
SplineSet
474 124 m 1,1,-1
 525 52 l 1,2,3
 490 22 490 22 441 4.5 c 128,-1,4
 392 -13 392 -13 340 -13 c 0,5,6
 219 -13 219 -13 151 61.5 c 128,-1,7
 83 136 83 136 83 261 c 0,8,9
 83 342 83 342 114 405.5 c 128,-1,10
 145 469 145 469 203.5 505.5 c 128,-1,11
 262 542 262 542 342 542 c 0,12,13
 447 542 447 542 525 478 c 1,14,-1
 473 408 l 1,15,16
 409 452 409 452 344 452 c 0,17,18
 278 452 278 452 240 404.5 c 128,-1,19
 202 357 202 357 202 261 c 0,20,21
 202 167 202 167 240 123 c 128,-1,22
 278 79 278 79 344 79 c 0,23,0
 407 79 407 79 474 124 c 1,1,-1
407 315 m 128,-1,25
 427 296 427 296 427 267 c 0,26,27
 427 237 427 237 407 217.5 c 128,-1,28
 387 198 387 198 356 198 c 256,29,30
 325 198 325 198 305 217.5 c 128,-1,31
 285 237 285 237 285 267 c 0,32,33
 285 296 285 296 305 315 c 128,-1,34
 325 334 325 334 356 334 c 256,35,24
 387 334 387 334 407 315 c 128,-1,25
EndSplineSet
EndChar
StartChar: uni037D
Encoding: 893 893 756
Width: 600
GlyphClass: 2
Flags: W
LayerCount: 2
Fore
SplineSet
162 2.5 m 128,-1,1
 118 18 118 18 79 48 c 1,2,-1
 130 119 l 1,3,4
 165 98 165 98 192 88.5 c 128,-1,5
 219 79 219 79 255 79 c 0,6,7
 323 79 323 79 361 122.5 c 128,-1,8
 399 166 399 166 399 261 c 0,9,10
 399 360 399 360 365.5 406 c 128,-1,11
 332 452 332 452 265 452 c 0,12,13
 225 452 225 452 194.5 442.5 c 128,-1,14
 164 433 164 433 131 413 c 1,15,-1
 79 482 l 1,16,17
 125 514 125 514 168.5 528 c 128,-1,18
 212 542 212 542 268 542 c 0,19,20
 387 542 387 542 452.5 466.5 c 128,-1,21
 518 391 518 391 518 260 c 0,22,23
 518 176 518 176 486.5 114.5 c 128,-1,24
 455 53 455 53 397 20 c 128,-1,25
 339 -13 339 -13 261 -13 c 0,26,0
 206 -13 206 -13 162 2.5 c 128,-1,1
293 315 m 128,-1,28
 313 296 313 296 313 267 c 0,29,30
 313 237 313 237 293 217.5 c 128,-1,31
 273 198 273 198 242 198 c 256,32,33
 211 198 211 198 191 217.5 c 128,-1,34
 171 237 171 237 171 267 c 0,35,36
 171 296 171 296 191 315 c 128,-1,37
 211 334 211 334 242 334 c 256,38,27
 273 334 273 334 293 315 c 128,-1,28
EndSplineSet
EndChar
StartChar: tonos
Encoding: 900 900 1458
Width: 600
Flags: W
LayerCount: 2
Fore
SplineSet
376 800 m 1,0,-1
 302 593 l 1,1,-1
 225 605 l 1,2,-1
 262 823 l 1,3,-1
 376 800 l 1,0,-1
EndSplineSet
Substitution2: "'case' Case-Sensitive Forms in Latin lookup 23 subtable" tonos.case
Substitution2: "'aalt' Access All Alternates in Latin lookup 0 subtable" tonos.case
EndChar
StartChar: dieresistonos
Encoding: 901 901 1460
Width: 600
Flags: W
LayerCount: 2
Fore
SplineSet
396 908 m 1,0,-1
 332 732 l 1,1,-1
 263 743 l 1,2,-1
 292 929 l 1,3,-1
 396 908 l 1,0,-1
232.5 726 m 128,-1,5
 251 708 251 708 251 681 c 256,6,7
 251 654 251 654 232.5 635.5 c 128,-1,8
 214 617 214 617 187 617 c 0,9,10
 159 617 159 617 140.5 635.5 c 128,-1,11
 122 654 122 654 122 681 c 256,12,13
 122 708 122 708 140.5 726 c 128,-1,14
 159 744 159 744 187 744 c 0,15,4
 214 744 214 744 232.5 726 c 128,-1,5
458.5 726 m 128,-1,17
 477 708 477 708 477 681 c 256,18,19
 477 654 477 654 458.5 635.5 c 128,-1,20
 440 617 440 617 412 617 c 0,21,22
 385 617 385 617 366.5 635.5 c 128,-1,23
 348 654 348 654 348 681 c 256,24,25
 348 708 348 708 366.5 726 c 128,-1,26
 385 744 385 744 412 744 c 0,27,16
 440 744 440 744 458.5 726 c 128,-1,17
EndSplineSet
EndChar
StartChar: uni0394
Encoding: 916 916 570
Width: 600
GlyphClass: 2
Flags: W
AnchorPoint: "Anchor-3" 300 690 basechar 0
AnchorPoint: "Anchor-2" 300 0 basechar 0
LayerCount: 2
Fore
SplineSet
592 0 m 1,0,-1
 8 0 l 1,1,-1
 228 690 l 1,2,-1
 372 690 l 1,3,-1
 592 0 l 1,0,-1
153 95 m 1,4,-1
 442 95 l 1,5,-1
 298 599 l 1,6,-1
 153 95 l 1,4,-1
EndSplineSet
EndChar
StartChar: Eta
Encoding: 919 919 573
Width: 600
GlyphClass: 2
Flags: W
AnchorPoint: "Anchor-3" 300 690 basechar 0
AnchorPoint: "Anchor-2" 300 0 basechar 0
LayerCount: 2
Fore
SplineSet
413 314 m 1,0,-1
 187 314 l 1,1,-1
 187 0 l 1,2,-1
 71 0 l 1,3,-1
 71 690 l 1,4,-1
 187 690 l 1,5,-1
 187 409 l 1,6,-1
 413 409 l 1,7,-1
 413 690 l 1,8,-1
 529 690 l 1,9,-1
 529 0 l 1,10,-1
 413 0 l 1,11,-1
 413 314 l 1,0,-1
EndSplineSet
EndChar
StartChar: Theta
Encoding: 920 920 574
Width: 600
GlyphClass: 2
Flags: W
AnchorPoint: "Anchor-3" 300 690 basechar 0
AnchorPoint: "Anchor-2" 300 0 basechar 0
LayerCount: 2
Fore
SplineSet
494.5 84 m 128,-1,1
 427 -13 427 -13 300 -13 c 256,2,3
 173 -13 173 -13 105.5 82.5 c 128,-1,4
 38 178 38 178 38 344 c 0,5,6
 38 508 38 508 105.5 606 c 128,-1,7
 173 704 173 704 300 704 c 256,8,9
 427 704 427 704 494.5 607.5 c 128,-1,10
 562 511 562 511 562 345 c 0,11,0
 562 181 562 181 494.5 84 c 128,-1,1
409.5 547 m 128,-1,13
 375 613 375 613 300 613 c 256,14,15
 225 613 225 613 190.5 547 c 128,-1,16
 156 481 156 481 156 344 c 0,17,18
 156 209 156 209 191 143 c 128,-1,19
 226 77 226 77 300 77 c 0,20,21
 375 77 375 77 409.5 143 c 128,-1,22
 444 209 444 209 444 345 c 256,23,12
 444 481 444 481 409.5 547 c 128,-1,13
207 313 m 1,24,-1
 207 392 l 1,25,-1
 392 392 l 1,26,-1
 392 313 l 1,27,-1
 207 313 l 1,24,-1
EndSplineSet
EndChar
StartChar: Iota
Encoding: 921 921 575
Width: 600
GlyphClass: 2
Flags: W
AnchorPoint: "Anchor-3" 300 690 basechar 0
AnchorPoint: "Anchor-2" 300 0 basechar 0
LayerCount: 2
Fore
SplineSet
508 602 m 1,0,-1
 358 602 l 1,1,-1
 358 89 l 1,2,-1
 508 89 l 1,3,-1
 508 0 l 1,4,-1
 92 0 l 1,5,-1
 92 89 l 1,6,-1
 242 89 l 1,7,-1
 242 602 l 1,8,-1
 92 602 l 1,9,-1
 92 690 l 1,10,-1
 508 690 l 1,11,-1
 508 602 l 1,0,-1
EndSplineSet
Substitution2: "Single Substitution lookup 29 subtable" Iotadieresis
Substitution2: "'aalt' Access All Alternates in Latin lookup 0 subtable" Iotadieresis
EndChar
StartChar: Lambda
Encoding: 923 923 577
Width: 600
GlyphClass: 2
Flags: W
LayerCount: 2
Fore
SplineSet
587 0 m 1,0,-1
 464 0 l 1,1,-1
 298 594 l 1,2,-1
 132 0 l 1,3,-1
 12 0 l 1,4,-1
 228 690 l 1,5,-1
 372 690 l 1,6,-1
 587 0 l 1,0,-1
EndSplineSet
EndChar
StartChar: Xi
Encoding: 926 926 580
Width: 600
GlyphClass: 2
Flags: W
AnchorPoint: "Anchor-3" 300 690 basechar 0
AnchorPoint: "Anchor-2" 300 0 basechar 0
LayerCount: 2
Fore
SplineSet
511 592 m 1,0,-1
 68 592 l 1,1,-1
 68 690 l 1,2,-1
 526 690 l 1,3,-1
 511 592 l 1,0,-1
472 302 m 1,4,-1
 121 302 l 1,5,-1
 121 398 l 1,6,-1
 472 398 l 1,7,-1
 472 302 l 1,4,-1
532 0 m 1,8,-1
 68 0 l 1,9,-1
 68 101 l 1,10,-1
 532 101 l 1,11,-1
 532 0 l 1,8,-1
EndSplineSet
EndChar
StartChar: Rho
Encoding: 929 929 583
Width: 600
GlyphClass: 2
Flags: W
AnchorPoint: "Anchor-3" 300 690 basechar 0
AnchorPoint: "Anchor-2" 300 0 basechar 0
LayerCount: 2
Fore
SplineSet
492 301.5 m 128,-1,1
 420 246 420 246 295 246 c 2,2,-1
 211 246 l 1,3,-1
 211 0 l 1,4,-1
 96 0 l 1,5,-1
 96 690 l 1,6,-1
 287 690 l 2,7,8
 420 690 420 690 492 635.5 c 128,-1,9
 564 581 564 581 564 473 c 0,10,0
 564 357 564 357 492 301.5 c 128,-1,1
295 603 m 2,12,-1
 211 603 l 1,13,-1
 211 334 l 1,14,-1
 296 334 l 2,15,16
 366 334 366 334 404.5 366 c 128,-1,17
 443 398 443 398 443 473 c 0,18,11
 443 603 443 603 295 603 c 2,12,-1
EndSplineSet
EndChar
StartChar: Sigma
Encoding: 931 931 584
Width: 600
GlyphClass: 2
Flags: W
AnchorPoint: "Anchor-3" 300 690 basechar 0
AnchorPoint: "Anchor-2" 300 0 basechar 0
LayerCount: 2
Fore
SplineSet
197 91 m 1,0,-1
 534 91 l 1,1,-1
 534 0 l 1,2,-1
 66 0 l 1,3,-1
 66 90 l 1,4,-1
 305 343 l 1,5,-1
 66 599 l 1,6,-1
 66 690 l 1,7,-1
 534 690 l 1,8,-1
 534 600 l 1,9,-1
 197 600 l 1,10,-1
 411 377 l 1,11,-1
 411 314 l 1,12,-1
 197 91 l 1,0,-1
EndSplineSet
EndChar
StartChar: Phi
Encoding: 934 934 587
Width: 600
GlyphClass: 2
Flags: W
AnchorPoint: "Anchor-3" 300 690 basechar 0
AnchorPoint: "Anchor-2" 300 0 basechar 0
LayerCount: 2
Fore
SplineSet
348 611 m 1,0,1
 471 606 471 606 531.5 541 c 128,-1,2
 592 476 592 476 592 348 c 0,3,4
 592 219 592 219 530 152 c 128,-1,5
 468 85 468 85 348 81 c 1,6,-1
 348 0 l 1,7,-1
 252 0 l 1,8,-1
 252 81 l 1,9,10
 131 85 131 85 69.5 151.5 c 128,-1,11
 8 218 8 218 8 348 c 0,12,13
 8 476 8 476 68 541 c 128,-1,14
 128 606 128 606 252 611 c 1,15,-1
 252 690 l 1,16,-1
 348 690 l 1,17,-1
 348 611 l 1,0,1
150.5 492.5 m 128,-1,19
 118 449 118 449 118 348 c 0,20,21
 118 250 118 250 150 204.5 c 128,-1,22
 182 159 182 159 257 155 c 1,23,-1
 257 538 l 1,24,18
 183 536 183 536 150.5 492.5 c 128,-1,19
343 155 m 1,25,26
 418 159 418 159 450 204.5 c 128,-1,27
 482 250 482 250 482 348 c 0,28,29
 482 449 482 449 449 493 c 128,-1,30
 416 537 416 537 343 538 c 1,31,-1
 343 155 l 1,25,26
EndSplineSet
EndChar
StartChar: Psi
Encoding: 936 936 589
Width: 600
GlyphClass: 2
Flags: W
AnchorPoint: "Anchor-3" 300 690 basechar 0
AnchorPoint: "Anchor-2" 300 0 basechar 0
LayerCount: 2
Fore
SplineSet
245 189 m 1,0,1
 128 201 128 201 70 263.5 c 128,-1,2
 12 326 12 326 12 427 c 2,3,-1
 12 690 l 1,4,-1
 120 690 l 1,5,-1
 120 429 l 2,6,7
 120 357 120 357 148.5 320 c 128,-1,8
 177 283 177 283 250 274 c 1,9,-1
 250 690 l 1,10,-1
 351 690 l 1,11,-1
 351 275 l 1,12,13
 422 284 422 284 451 321 c 128,-1,14
 480 358 480 358 480 429 c 2,15,-1
 480 690 l 1,16,-1
 588 690 l 1,17,-1
 588 427 l 2,18,19
 588 327 588 327 529.5 264.5 c 128,-1,20
 471 202 471 202 355 190 c 1,21,-1
 355 0 l 1,22,-1
 245 0 l 1,23,-1
 245 189 l 1,0,1
EndSplineSet
EndChar
StartChar: uni03A9
Encoding: 937 937 590
Width: 600
GlyphClass: 2
Flags: W
AnchorPoint: "Anchor-3" 300 690 basechar 0
AnchorPoint: "Anchor-2" 301 0 basechar 0
LayerCount: 2
Fore
SplineSet
192.5 552.5 m 128,-1,1
 157 492 157 492 157 360 c 0,2,3
 157 245 157 245 184.5 179 c 128,-1,4
 212 113 212 113 269 84 c 1,5,-1
 269 0 l 1,6,-1
 49 0 l 1,7,-1
 49 88 l 1,8,-1
 167 88 l 1,9,10
 38 154 38 154 38 360 c 0,11,12
 38 465 38 465 69.5 543 c 128,-1,13
 101 621 101 621 160 662.5 c 128,-1,14
 219 704 219 704 300 704 c 256,15,16
 381 704 381 704 440 662.5 c 128,-1,17
 499 621 499 621 530.5 543 c 128,-1,18
 562 465 562 465 562 360 c 0,19,20
 562 257 562 257 529.5 190 c 128,-1,21
 497 123 497 123 432 88 c 1,22,-1
 551 88 l 1,23,-1
 551 0 l 1,24,-1
 332 0 l 1,25,-1
 332 84 l 1,26,27
 388 113 388 113 415.5 179 c 128,-1,28
 443 245 443 245 443 360 c 0,29,30
 443 491 443 491 407.5 552 c 128,-1,31
 372 613 372 613 300 613 c 256,32,0
 228 613 228 613 192.5 552.5 c 128,-1,1
EndSplineSet
EndChar
StartChar: alpha
Encoding: 945 945 715
Width: 600
GlyphClass: 2
Flags: W
AnchorPoint: "Anchor-3" 278 528 basechar 0
AnchorPoint: "Anchor-2" 301 0 basechar 0
LayerCount: 2
Fore
SplineSet
362 504.5 m 128,-1,1
 402 467 402 467 415 385 c 1,2,-1
 441 528 l 1,3,-1
 542 528 l 1,4,-1
 479 260 l 1,5,-1
 505 132 l 2,6,7
 510 107 510 107 521 94.5 c 128,-1,8
 532 82 532 82 554 75 c 1,9,-1
 516 -14 l 1,10,11
 433 0 433 0 418 81 c 2,12,-1
 408 136 l 1,13,14
 364 -13 364 -13 244 -13 c 0,15,16
 152 -13 152 -13 101 57 c 128,-1,17
 50 127 50 127 50 260 c 0,18,19
 50 386 50 386 103.5 464 c 128,-1,20
 157 542 157 542 252 542 c 0,21,0
 322 542 322 542 362 504.5 c 128,-1,1
191.5 406 m 128,-1,23
 166 356 166 356 166 260 c 0,24,25
 166 72 166 72 260 72 c 0,26,27
 299 72 299 72 332 114 c 128,-1,28
 365 156 365 156 385 267 c 1,29,30
 367 372 367 372 338.5 414 c 128,-1,31
 310 456 310 456 264 456 c 0,32,22
 217 456 217 456 191.5 406 c 128,-1,23
EndSplineSet
EndChar
StartChar: beta
Encoding: 946 946 716
Width: 600
GlyphClass: 2
Flags: W
AnchorPoint: "Anchor-3" 300 740 basechar 0
AnchorPoint: "Anchor-2" 300 -208 basechar 0
LayerCount: 2
Fore
SplineSet
554 205 m 0,1,2
 554 140 554 140 524.5 90 c 128,-1,3
 495 40 495 40 444.5 13 c 128,-1,4
 394 -14 394 -14 332 -14 c 0,5,6
 254 -14 254 -14 189 34 c 1,7,-1
 189 -201 l 1,8,-1
 77 -218 l 1,9,-1
 77 543 l 2,10,11
 77 642 77 642 134.5 698 c 128,-1,12
 192 754 192 754 289 754 c 0,13,14
 349 754 349 754 397.5 731 c 128,-1,15
 446 708 446 708 473.5 666 c 128,-1,16
 501 624 501 624 501 570 c 0,17,18
 501 499 501 499 462.5 458 c 128,-1,19
 424 417 424 417 356 405 c 1,20,0
 554 383 554 383 554 205 c 0,1,2
402.5 108 m 128,-1,22
 439 143 439 143 439 209 c 0,23,24
 439 281 439 281 398.5 318.5 c 128,-1,25
 358 356 358 356 283 356 c 2,26,-1
 237 356 l 1,27,-1
 247 439 l 1,28,-1
 288 439 l 2,29,30
 334 439 334 439 362.5 469 c 128,-1,31
 391 499 391 499 391 559 c 0,32,33
 391 614 391 614 364 641.5 c 128,-1,34
 337 669 337 669 290 669 c 0,35,36
 189 669 189 669 189 546 c 2,37,-1
 189 112 l 1,38,39
 238 73 238 73 310 73 c 0,40,21
 366 73 366 73 402.5 108 c 128,-1,22
EndSplineSet
EndChar
StartChar: gamma
Encoding: 947 947 717
Width: 600
GlyphClass: 2
Flags: W
AnchorPoint: "Anchor-3" 300 528 basechar 0
AnchorPoint: "Anchor-2" 300 -208 basechar 0
LayerCount: 2
Fore
SplineSet
568 515 m 1,0,-1
 353 20 l 2,1,2
 329 -36 329 -36 329 -101 c 0,3,4
 329 -143 329 -143 340 -203 c 1,5,-1
 251 -215 l 1,6,7
 224 -161 224 -161 224 -96 c 0,8,9
 224 -39 224 -39 245 17 c 1,10,11
 208 169 208 169 150.5 302 c 128,-1,12
 93 435 93 435 32 501 c 1,13,-1
 144 541 l 1,14,15
 193 477 193 477 236 366 c 128,-1,16
 279 255 279 255 303 120 c 1,17,-1
 455 541 l 1,18,-1
 568 515 l 1,0,-1
EndSplineSet
EndChar
StartChar: delta
Encoding: 948 948 718
Width: 600
GlyphClass: 2
Flags: W
AnchorPoint: "Anchor-3" 300 740 basechar 0
AnchorPoint: "Anchor-2" 300 0 basechar 0
LayerCount: 2
Fore
SplineSet
493 692 m 1,1,-1
 439 628 l 1,2,3
 408 651 408 651 379.5 660.5 c 128,-1,4
 351 670 351 670 317 670 c 0,5,6
 277 670 277 670 255 654 c 128,-1,7
 233 638 233 638 233 610 c 0,8,9
 233 589 233 589 242.5 575.5 c 128,-1,10
 252 562 252 562 274 550 c 128,-1,11
 296 538 296 538 342 520 c 0,12,13
 415 490 415 490 459 455 c 128,-1,14
 503 420 503 420 525 369.5 c 128,-1,15
 547 319 547 319 547 245 c 0,16,17
 547 173 547 173 517 114 c 128,-1,18
 487 55 487 55 431.5 21 c 128,-1,19
 376 -13 376 -13 302 -13 c 0,20,21
 227 -13 227 -13 172 20.5 c 128,-1,22
 117 54 117 54 87.5 112 c 128,-1,23
 58 170 58 170 58 243 c 0,24,25
 58 326 58 326 100.5 386 c 128,-1,26
 143 446 143 446 216 476 c 1,27,28
 162 503 162 503 140 534 c 128,-1,29
 118 565 118 565 118 609 c 0,30,31
 118 676 118 676 172 714.5 c 128,-1,32
 226 753 226 753 318 753 c 0,33,0
 419 753 419 753 493 692 c 1,1,-1
202 363.5 m 128,-1,35
 176 316 176 316 176 245 c 0,36,37
 176 163 176 163 209 118 c 128,-1,38
 242 73 242 73 302 73 c 0,39,40
 363 73 363 73 395.5 116.5 c 128,-1,41
 428 160 428 160 428 245 c 0,42,43
 428 302 428 302 415.5 336.5 c 128,-1,44
 403 371 403 371 373.5 395 c 128,-1,45
 344 419 344 419 288 443 c 1,46,34
 228 411 228 411 202 363.5 c 128,-1,35
EndSplineSet
EndChar
StartChar: epsilon
Encoding: 949 949 719
Width: 600
GlyphClass: 2
Flags: W
AnchorPoint: "Anchor-3" 316 528 basechar 0
AnchorPoint: "Anchor-2" 313 0 basechar 0
LayerCount: 2
Fore
SplineSet
308 234 m 2,0,1
 248 234 248 234 221 215.5 c 128,-1,2
 194 197 194 197 194 158 c 0,3,4
 194 118 194 118 228 95 c 128,-1,5
 262 72 262 72 324 72 c 0,6,7
 422 72 422 72 502 124 c 1,8,-1
 557 55 l 1,9,10
 513 24 513 24 451.5 5.5 c 128,-1,11
 390 -13 390 -13 316 -13 c 0,12,13
 209 -13 209 -13 142.5 30 c 128,-1,14
 76 73 76 73 76 151 c 0,15,16
 76 210 76 210 109.5 241.5 c 128,-1,17
 143 273 143 273 211 282 c 1,18,19
 154 295 154 295 125 325.5 c 128,-1,20
 96 356 96 356 96 400 c 0,21,22
 96 467 96 467 158 504.5 c 128,-1,23
 220 542 220 542 316 542 c 0,24,25
 374 542 374 542 429.5 528.5 c 128,-1,26
 485 515 485 515 526 487 c 1,27,-1
 474 423 l 1,28,29
 414 458 414 458 325 458 c 0,30,31
 211 458 211 458 211 387 c 0,32,33
 211 354 211 354 238 334.5 c 128,-1,34
 265 315 265 315 315 315 c 2,35,-1
 414 315 l 1,36,-1
 402 234 l 1,37,-1
 308 234 l 2,0,1
EndSplineSet
EndChar
StartChar: zeta
Encoding: 950 950 720
Width: 600
GlyphClass: 2
Flags: W
AnchorPoint: "Anchor-3" 300 740 basechar 0
AnchorPoint: "Anchor-2" 300 -208 basechar 0
LayerCount: 2
Fore
SplineSet
543 669 m 1,0,1
 430 578 430 578 361.5 508.5 c 128,-1,2
 293 439 293 439 258.5 378 c 128,-1,3
 224 317 224 317 224 256 c 0,4,5
 224 211 224 211 238 184 c 128,-1,6
 252 157 252 157 282.5 139 c 128,-1,7
 313 121 313 121 371 101 c 0,8,9
 435 79 435 79 468 62.5 c 128,-1,10
 501 46 501 46 518.5 22 c 128,-1,11
 536 -2 536 -2 536 -39 c 0,12,13
 536 -97 536 -97 495.5 -141.5 c 128,-1,14
 455 -186 455 -186 369 -224 c 1,15,-1
 326 -150 l 1,16,17
 372 -126 372 -126 395 -104 c 128,-1,18
 418 -82 418 -82 418 -51 c 0,19,20
 418 -36 418 -36 409.5 -26 c 128,-1,21
 401 -16 401 -16 382 -7.5 c 128,-1,22
 363 1 363 1 322 15 c 0,23,24
 243 44 243 44 197.5 72 c 128,-1,25
 152 100 152 100 128.5 142.5 c 128,-1,26
 105 185 105 185 105 252 c 0,27,28
 105 354 105 354 183 451.5 c 128,-1,29
 261 549 261 549 436 667 c 1,30,31
 407 654 407 654 276 654 c 2,32,-1
 143 654 l 1,33,-1
 156 740 l 1,34,-1
 530 740 l 1,35,-1
 543 669 l 1,0,1
EndSplineSet
EndChar
StartChar: eta
Encoding: 951 951 721
Width: 600
GlyphClass: 2
Flags: W
AnchorPoint: "Anchor-3" 303 528 basechar 0
AnchorPoint: "Anchor-2" 136 0 basechar 0
LayerCount: 2
Fore
SplineSet
477 501.5 m 128,-1,1
 514 461 514 461 514 385 c 2,2,-1
 514 -203 l 1,3,-1
 402 -216 l 1,4,-1
 402 329 l 2,5,6
 402 378 402 378 396.5 404.5 c 128,-1,7
 391 431 391 431 374.5 443.5 c 128,-1,8
 358 456 358 456 326 456 c 0,9,10
 291 456 291 456 258.5 433.5 c 128,-1,11
 226 411 226 411 203 378 c 1,12,-1
 203 0 l 1,13,-1
 91 0 l 1,14,-1
 91 365 l 2,15,16
 91 437 91 437 66 526 c 1,17,-1
 170 541 l 1,18,19
 177 528 177 528 184 503.5 c 128,-1,20
 191 479 191 479 194 457 c 1,21,22
 228 498 228 498 273.5 520 c 128,-1,23
 319 542 319 542 366 542 c 0,24,0
 440 542 440 542 477 501.5 c 128,-1,1
EndSplineSet
EndChar
StartChar: theta
Encoding: 952 952 722
Width: 600
GlyphClass: 2
Flags: W
AnchorPoint: "Anchor-3" 300 740 basechar 0
AnchorPoint: "Anchor-2" 300 0 basechar 0
LayerCount: 2
Fore
SplineSet
477.5 654 m 128,-1,1
 539 555 539 555 539 372 c 0,2,3
 539 191 539 191 476.5 89 c 128,-1,4
 414 -13 414 -13 300 -13 c 0,5,6
 185 -13 185 -13 123 87.5 c 128,-1,7
 61 188 61 188 61 371 c 0,8,9
 61 552 61 552 123.5 652.5 c 128,-1,10
 186 753 186 753 301 753 c 256,11,0
 416 753 416 753 477.5 654 c 128,-1,1
207.5 606.5 m 128,-1,13
 177 547 177 547 174 410 c 1,14,-1
 426 410 l 1,15,16
 423 547 423 547 393 606.5 c 128,-1,17
 363 666 363 666 301 666 c 0,18,12
 238 666 238 666 207.5 606.5 c 128,-1,13
174 333 m 1,19,20
 178 194 178 194 208.5 133.5 c 128,-1,21
 239 73 239 73 300 73 c 256,22,23
 361 73 361 73 391 133.5 c 128,-1,24
 421 194 421 194 425 333 c 1,25,-1
 174 333 l 1,19,20
EndSplineSet
EndChar
StartChar: iota
Encoding: 953 953 723
Width: 600
GlyphClass: 2
Flags: W
AnchorPoint: "Anchor-3" 286 528 basechar 0
AnchorPoint: "Anchor-2" 300 0 basechar 0
LayerCount: 2
Fore
SplineSet
53 440 m 1,0,-1
 64 528 l 1,1,-1
 337 528 l 1,2,-1
 337 144 l 2,3,4
 337 77 337 77 417 77 c 0,5,6
 458 77 458 77 501 95 c 1,7,-1
 529 17 l 1,8,9
 507 4 507 4 470 -4.5 c 128,-1,10
 433 -13 433 -13 393 -13 c 0,11,12
 316 -13 316 -13 270.5 30 c 128,-1,13
 225 73 225 73 225 148 c 2,14,-1
 225 440 l 1,15,-1
 53 440 l 1,0,-1
EndSplineSet
EndChar
StartChar: kappa
Encoding: 954 954 724
Width: 600
GlyphClass: 2
Flags: W
AnchorPoint: "Anchor-3" 300 528 basechar 0
AnchorPoint: "Anchor-2" 300 0 basechar 0
LayerCount: 2
Fore
SplineSet
540 489 m 1,0,-1
 339 286 l 1,1,-1
 472 139 l 2,2,3
 499 109 499 109 520 95.5 c 128,-1,4
 541 82 541 82 569 76 c 1,5,-1
 530 -14 l 1,6,7
 485 -8 485 -8 453.5 13 c 128,-1,8
 422 34 422 34 387 77 c 2,9,-1
 214 281 l 1,10,-1
 447 541 l 1,11,-1
 540 489 l 1,0,-1
203 435.5 m 128,-1,13
 210 383 210 383 210 329 c 2,14,-1
 210 0 l 1,15,-1
 98 0 l 1,16,-1
 98 343 l 2,17,18
 98 438 98 438 74 528 c 1,19,-1
 182 528 l 1,20,12
 196 488 196 488 203 435.5 c 128,-1,13
EndSplineSet
EndChar
StartChar: lambda
Encoding: 955 955 725
Width: 600
GlyphClass: 2
Flags: W
AnchorPoint: "Anchor-3" 300 740 basechar 0
AnchorPoint: "Anchor-2" 300 0 basechar 0
LayerCount: 2
Fore
SplineSet
268 528 m 1,0,1
 253 574 253 574 233.5 602 c 128,-1,2
 214 630 214 630 181.5 647 c 128,-1,3
 149 664 149 664 95 672 c 1,4,-1
 110 754 l 1,5,6
 197 742 197 742 250 712.5 c 128,-1,7
 303 683 303 683 335.5 629 c 128,-1,8
 368 575 368 575 390 483 c 0,9,10
 434 299 434 299 474.5 192.5 c 128,-1,11
 515 86 515 86 571 25 c 1,12,-1
 458 -13 l 1,13,14
 404 58 404 58 365.5 168 c 128,-1,15
 327 278 327 278 296 446 c 1,16,-1
 149 -14 l 1,17,-1
 40 11 l 1,18,-1
 227 528 l 1,19,-1
 268 528 l 1,0,1
EndSplineSet
EndChar
StartChar: nu
Encoding: 957 957 727
Width: 600
GlyphClass: 2
Flags: W
AnchorPoint: "Anchor-3" 300 528 basechar 0
AnchorPoint: "Anchor-2" 300 0 basechar 0
LayerCount: 2
Fore
SplineSet
135 309 m 128,-1,1
 82 451 82 451 26 503 c 1,2,-1
 133 541 l 1,3,4
 184 481 184 481 226 362.5 c 128,-1,5
 268 244 268 244 296 91 c 1,6,-1
 447 542 l 1,7,-1
 558 517 l 1,8,-1
 356 0 l 1,9,-1
 224 0 l 1,10,0
 188 167 188 167 135 309 c 128,-1,1
EndSplineSet
EndChar
StartChar: xi
Encoding: 958 958 728
Width: 600
GlyphClass: 2
Flags: W
AnchorPoint: "Anchor-3" 300 740 basechar 0
AnchorPoint: "Anchor-2" 300 -208 basechar 0
LayerCount: 2
Fore
SplineSet
560 693 m 1,1,-1
 508 630 l 1,2,3
 477 650 477 650 440 660 c 128,-1,4
 403 670 403 670 366 670 c 0,5,6
 308 670 308 670 275 646 c 128,-1,7
 242 622 242 622 242 578 c 0,8,9
 242 530 242 530 272.5 506 c 128,-1,10
 303 482 303 482 360 482 c 2,11,-1
 473 482 l 1,12,-1
 460 396 l 1,13,-1
 353 396 l 2,14,15
 286 396 286 396 247 361 c 128,-1,16
 208 326 208 326 208 270 c 0,17,18
 208 222 208 222 225.5 195 c 128,-1,19
 243 168 243 168 279.5 149.5 c 128,-1,20
 316 131 316 131 394 105 c 0,21,22
 453 85 453 85 486 67.5 c 128,-1,23
 519 50 519 50 535.5 25 c 128,-1,24
 552 0 552 0 552 -39 c 0,25,26
 552 -97 552 -97 511 -141.5 c 128,-1,27
 470 -186 470 -186 385 -224 c 1,28,-1
 342 -150 l 1,29,30
 385 -129 385 -129 409 -104.5 c 128,-1,31
 433 -80 433 -80 433 -47 c 0,32,33
 433 -24 433 -24 417 -12 c 128,-1,34
 401 0 401 0 352 16 c 0,35,36
 257 49 257 49 204 77 c 128,-1,37
 151 105 151 105 120.5 149 c 128,-1,38
 90 193 90 193 90 264 c 0,39,40
 90 343 90 343 139.5 387.5 c 128,-1,41
 189 432 189 432 253 444 c 1,42,43
 195 465 195 465 161.5 497.5 c 128,-1,44
 128 530 128 530 128 584 c 0,45,46
 128 635 128 635 159 673.5 c 128,-1,47
 190 712 190 712 242.5 732.5 c 128,-1,48
 295 753 295 753 358 753 c 0,49,0
 475 753 475 753 560 693 c 1,1,-1
EndSplineSet
EndChar
StartChar: omicron
Encoding: 959 959 729
Width: 600
GlyphClass: 2
Flags: W
AnchorPoint: "Anchor-3" 300 528 basechar 0
AnchorPoint: "Anchor-2" 300 0 basechar 0
LayerCount: 2
Fore
SplineSet
477 467.5 m 128,-1,1
 539 393 539 393 539 265 c 256,2,3
 539 137 539 137 476 62 c 128,-1,4
 413 -13 413 -13 300 -13 c 0,5,6
 186 -13 186 -13 123.5 60.5 c 128,-1,7
 61 134 61 134 61 264 c 0,8,9
 61 390 61 390 124.5 466 c 128,-1,10
 188 542 188 542 301 542 c 0,11,0
 415 542 415 542 477 467.5 c 128,-1,1
209.5 408 m 128,-1,13
 179 361 179 361 179 264 c 0,14,15
 179 166 179 166 209 119.5 c 128,-1,16
 239 73 239 73 300 73 c 256,17,18
 361 73 361 73 391 120 c 128,-1,19
 421 167 421 167 421 265 c 0,20,21
 421 362 421 362 391 408.5 c 128,-1,22
 361 455 361 455 301 455 c 0,23,12
 240 455 240 455 209.5 408 c 128,-1,13
EndSplineSet
EndChar
StartChar: pi
Encoding: 960 960 730
Width: 600
GlyphClass: 2
Flags: W
AnchorPoint: "Anchor-3" 300 528 basechar 0
AnchorPoint: "Anchor-2" 300 0 basechar 0
LayerCount: 2
Fore
SplineSet
487 441 m 1,0,-1
 487 152 l 2,1,2
 487 116 487 116 497.5 98.5 c 128,-1,3
 508 81 508 81 534 73 c 1,4,-1
 498 -13 l 1,5,6
 435 1 435 1 405.5 36 c 128,-1,7
 376 71 376 71 376 139 c 2,8,-1
 376 441 l 1,9,-1
 217 441 l 1,10,-1
 217 0 l 1,11,-1
 107 0 l 1,12,-1
 107 441 l 1,13,14
 82 440 82 440 65 437.5 c 128,-1,15
 48 435 48 435 27 428 c 1,16,-1
 5 509 l 1,17,18
 30 520 30 520 58.5 524 c 128,-1,19
 87 528 87 528 128 528 c 2,20,-1
 565 528 l 1,21,-1
 565 441 l 1,22,-1
 487 441 l 1,0,-1
EndSplineSet
EndChar
StartChar: rho
Encoding: 961 961 731
Width: 600
GlyphClass: 2
Flags: W
AnchorPoint: "Anchor-3" 308 528 basechar 0
AnchorPoint: "Anchor-2" 300 -208 basechar 0
LayerCount: 2
Fore
SplineSet
537 265 m 0,1,2
 537 187 537 187 513.5 124 c 128,-1,3
 490 61 490 61 443.5 24 c 128,-1,4
 397 -13 397 -13 331 -13 c 0,5,6
 247 -13 247 -13 196 45 c 1,7,-1
 196 -203 l 1,8,-1
 84 -216 l 1,9,-1
 84 272 l 2,10,11
 84 404 84 404 140.5 473 c 128,-1,12
 197 542 197 542 308 542 c 0,13,0
 537 542 537 542 537 265 c 0,1,2
221 407.5 m 128,-1,15
 196 358 196 358 196 254 c 2,16,-1
 196 133 l 1,17,18
 215 104 215 104 242 89 c 128,-1,19
 269 74 269 74 301 74 c 0,20,21
 359 74 359 74 389 122 c 128,-1,22
 419 170 419 170 419 264 c 0,23,24
 419 365 419 365 391 411 c 128,-1,25
 363 457 363 457 306 457 c 0,26,14
 246 457 246 457 221 407.5 c 128,-1,15
EndSplineSet
EndChar
StartChar: uni03C2
Encoding: 962 962 732
Width: 600
GlyphClass: 2
Flags: W
AnchorPoint: "Anchor-3" 300 528 basechar 0
AnchorPoint: "Anchor-2" 300 -208 basechar 0
LayerCount: 2
Fore
SplineSet
451.5 528 m 128,-1,1
 495 514 495 514 537 482 c 1,2,-1
 485 412 l 1,3,4
 454 433 454 433 425 442.5 c 128,-1,5
 396 452 396 452 358 452 c 0,6,7
 294 452 294 452 252.5 406.5 c 128,-1,8
 211 361 211 361 211 274 c 0,9,10
 211 226 211 226 224 198 c 128,-1,11
 237 170 237 170 268 150 c 128,-1,12
 299 130 299 130 362 106 c 0,13,14
 418 86 418 86 450.5 68 c 128,-1,15
 483 50 483 50 501 24.5 c 128,-1,16
 519 -1 519 -1 519 -40 c 0,17,18
 519 -97 519 -97 479.5 -138.5 c 128,-1,19
 440 -180 440 -180 353 -218 c 1,20,-1
 308 -144 l 1,21,22
 354 -125 354 -125 377 -104.5 c 128,-1,23
 400 -84 400 -84 400 -53 c 0,24,25
 400 -34 400 -34 391 -22.5 c 128,-1,26
 382 -11 382 -11 360 -0.5 c 128,-1,27
 338 10 338 10 288 28 c 0,28,29
 221 53 221 53 179 82.5 c 128,-1,30
 137 112 137 112 115 158.5 c 128,-1,31
 93 205 93 205 93 274 c 0,32,33
 93 355 93 355 126 415.5 c 128,-1,34
 159 476 159 476 217.5 509 c 128,-1,35
 276 542 276 542 351 542 c 0,36,0
 408 542 408 542 451.5 528 c 128,-1,1
EndSplineSet
EndChar
StartChar: sigma
Encoding: 963 963 733
Width: 600
GlyphClass: 2
Flags: W
AnchorPoint: "Anchor-3" 300 528 basechar 0
AnchorPoint: "Anchor-2" 300 0 basechar 0
LayerCount: 2
Fore
SplineSet
566 445 m 1,0,-1
 452 453 l 1,1,2
 492 426 492 426 514.5 376 c 128,-1,3
 537 326 537 326 537 256 c 0,4,5
 537 133 537 133 474 60 c 128,-1,6
 411 -13 411 -13 300 -13 c 0,7,8
 187 -13 187 -13 124 61 c 128,-1,9
 61 135 61 135 61 263 c 0,10,11
 61 388 61 388 128 461.5 c 128,-1,12
 195 535 195 535 316 535 c 0,13,14
 403 535 403 535 566 528 c 1,15,-1
 566 445 l 1,0,-1
389.5 119.5 m 128,-1,17
 419 166 419 166 419 264 c 0,18,19
 419 403 419 403 356 456 c 1,20,21
 297 456 297 456 259 440 c 128,-1,22
 221 424 221 424 200 381.5 c 128,-1,23
 179 339 179 339 179 263 c 0,24,25
 179 166 179 166 209 119.5 c 128,-1,26
 239 73 239 73 300 73 c 0,27,16
 360 73 360 73 389.5 119.5 c 128,-1,17
EndSplineSet
EndChar
StartChar: tau
Encoding: 964 964 734
Width: 600
GlyphClass: 2
Flags: W
AnchorPoint: "Anchor-3" 300 528 basechar 0
AnchorPoint: "Anchor-2" 300 0 basechar 0
LayerCount: 2
Fore
SplineSet
518 17 m 1,0,1
 496 4 496 4 459 -4.5 c 128,-1,2
 422 -13 422 -13 382 -13 c 0,3,4
 305 -13 305 -13 260 30 c 128,-1,5
 215 73 215 73 215 148 c 2,6,-1
 215 441 l 1,7,-1
 170 441 l 2,8,9
 137 441 137 441 110 438 c 128,-1,10
 83 435 83 435 50 426 c 1,11,-1
 32 508 l 1,12,13
 87 528 87 528 175 528 c 2,14,-1
 518 528 l 1,15,-1
 518 441 l 1,16,-1
 327 441 l 1,17,-1
 327 144 l 2,18,19
 327 77 327 77 406 77 c 0,20,21
 447 77 447 77 490 95 c 1,22,-1
 518 17 l 1,0,1
EndSplineSet
EndChar
StartChar: upsilon
Encoding: 965 965 735
Width: 600
GlyphClass: 2
Flags: W
AnchorPoint: "Anchor-3" 300 528 basechar 0
AnchorPoint: "Anchor-2" 300 0 basechar 0
LayerCount: 2
Fore
SplineSet
535 255 m 0,1,2
 535 166 535 166 500.5 105.5 c 128,-1,3
 466 45 466 45 409.5 16 c 128,-1,4
 353 -13 353 -13 286 -13 c 0,5,6
 197 -13 197 -13 143 33.5 c 128,-1,7
 89 80 89 80 89 168 c 2,8,-1
 89 528 l 1,9,-1
 201 528 l 1,10,-1
 201 177 l 2,11,12
 201 73 201 73 292 73 c 0,13,14
 348 73 348 73 385 118 c 128,-1,15
 422 163 422 163 422 264 c 0,16,17
 422 392 422 392 396 528 c 1,18,-1
 508 528 l 1,19,0
 535 386 535 386 535 255 c 0,1,2
EndSplineSet
EndChar
StartChar: phi
Encoding: 966 966 736
Width: 600
GlyphClass: 2
Flags: W
AnchorPoint: "Anchor-3" 300 528 basechar 0
AnchorPoint: "Anchor-2" 300 -208 basechar 0
LayerCount: 2
Fore
SplineSet
531 474.5 m 128,-1,1
 572 407 572 407 572 269 c 0,2,3
 572 12 572 12 340 -11 c 1,4,-1
 340 -204 l 1,5,-1
 245 -216 l 1,6,-1
 245 -11 l 1,7,8
 134 -1 134 -1 81 62.5 c 128,-1,9
 28 126 28 126 28 239 c 0,10,11
 28 382 28 382 82 528 c 1,12,-1
 183 528 l 1,13,14
 156 445 156 445 143 381 c 128,-1,15
 130 317 130 317 130 261 c 0,16,17
 130 169 130 169 155 123 c 128,-1,18
 180 77 180 77 245 67 c 1,19,-1
 245 320 l 2,20,21
 245 430 245 430 281.5 486 c 128,-1,22
 318 542 318 542 401 542 c 0,23,0
 490 542 490 542 531 474.5 c 128,-1,1
360 444 m 128,-1,25
 347 425 347 425 343.5 394.5 c 128,-1,26
 340 364 340 364 340 310 c 2,27,-1
 340 66 l 1,28,29
 410 76 410 76 438.5 123.5 c 128,-1,30
 467 171 467 171 467 268 c 0,31,32
 467 340 467 340 461 382 c 128,-1,33
 455 424 455 424 440.5 443.5 c 128,-1,34
 426 463 426 463 400 463 c 0,35,24
 373 463 373 463 360 444 c 128,-1,25
EndSplineSet
EndChar
StartChar: chi
Encoding: 967 967 737
Width: 600
GlyphClass: 2
Flags: W
AnchorPoint: "Anchor-3" 300 528 basechar 0
AnchorPoint: "Anchor-2" 300 -208 basechar 0
LayerCount: 2
Fore
SplineSet
565 -199 m 1,0,-1
 451 -220 l 1,1,-1
 304 105 l 1,2,-1
 155 -219 l 1,3,-1
 42 -201 l 1,4,-1
 241 180 l 1,5,6
 189 303 189 303 144.5 373.5 c 128,-1,7
 100 444 100 444 40 502 c 1,8,-1
 149 541 l 1,9,10
 196 489 196 489 233 422.5 c 128,-1,11
 270 356 270 356 306 251 c 1,12,-1
 434 539 l 1,13,-1
 545 523 l 1,14,-1
 367 182 l 1,15,-1
 565 -199 l 1,0,-1
EndSplineSet
EndChar
StartChar: psi
Encoding: 968 968 738
Width: 600
GlyphClass: 2
Flags: W
AnchorPoint: "Anchor-3" 300 528 basechar 0
AnchorPoint: "Anchor-2" 300 -208 basechar 0
LayerCount: 2
Fore
SplineSet
349 74 m 1,0,1
 399 81 399 81 425 102.5 c 128,-1,2
 451 124 451 124 460.5 161.5 c 128,-1,3
 470 199 470 199 470 261 c 0,4,5
 470 373 470 373 445 528 c 1,6,-1
 546 528 l 1,7,8
 573 393 573 393 573 255 c 0,9,10
 573 136 573 136 519 70 c 128,-1,11
 465 4 465 4 349 -9 c 1,12,-1
 349 -203 l 1,13,-1
 253 -216 l 1,14,-1
 253 -9 l 1,15,16
 141 1 141 1 88.5 56.5 c 128,-1,17
 36 112 36 112 36 197 c 2,18,-1
 36 528 l 1,19,-1
 138 528 l 1,20,-1
 138 202 l 2,21,22
 138 142 138 142 164.5 111.5 c 128,-1,23
 191 81 191 81 253 74 c 1,24,-1
 253 528 l 1,25,-1
 349 528 l 1,26,-1
 349 74 l 1,0,1
EndSplineSet
EndChar
StartChar: omega
Encoding: 969 969 739
Width: 600
GlyphClass: 2
Flags: W
AnchorPoint: "Anchor-3" 300 528 basechar 0
AnchorPoint: "Anchor-2" 299 0 basechar 0
LayerCount: 2
Fore
SplineSet
578 240 m 0,1,2
 578 118 578 118 539 52.5 c 128,-1,3
 500 -13 500 -13 425 -13 c 0,4,5
 319 -13 319 -13 299 98 c 1,6,7
 272 -13 272 -13 175 -13 c 0,8,9
 99 -13 99 -13 60.5 51 c 128,-1,10
 22 115 22 115 22 240 c 0,11,12
 22 390 22 390 73 528 c 1,13,-1
 166 528 l 1,14,15
 143 451 143 451 134.5 385 c 128,-1,16
 126 319 126 319 126 243 c 0,17,18
 126 158 126 158 140 115.5 c 128,-1,19
 154 73 154 73 191 73 c 0,20,21
 227 73 227 73 240.5 113.5 c 128,-1,22
 254 154 254 154 254 232 c 2,23,-1
 254 351 l 1,24,-1
 347 366 l 1,25,-1
 347 233 l 2,26,27
 347 150 347 150 360.5 111.5 c 128,-1,28
 374 73 374 73 410 73 c 0,29,30
 447 73 447 73 460.5 115 c 128,-1,31
 474 157 474 157 474 243 c 0,32,33
 474 316 474 316 464.5 382.5 c 128,-1,34
 455 449 455 449 432 528 c 1,35,-1
 527 528 l 1,36,0
 578 375 578 375 578 240 c 0,1,2
EndSplineSet
EndChar
StartChar: uni03CF
Encoding: 975 975 608
Width: 600
GlyphClass: 2
Flags: W
AnchorPoint: "Anchor-3" 0 0 basechar 0
AnchorPoint: "Anchor-2" 300 -208 basechar 0
LayerCount: 2
Fore
SplineSet
81 690 m 1,0,-1
 197 690 l 1,1,-1
 197 0 l 1,2,-1
 81 0 l 1,3,-1
 81 690 l 1,0,-1
577 -48 m 2,4,5
 577 -131 577 -131 533.5 -174 c 128,-1,6
 490 -217 490 -217 411 -217 c 0,7,8
 343 -217 343 -217 290 -177 c 1,9,-1
 333 -107 l 1,10,11
 353 -118 353 -118 367.5 -123 c 128,-1,12
 382 -128 382 -128 403 -128 c 0,13,14
 461 -128 461 -128 461 -56 c 2,15,-1
 461 0 l 1,16,-1
 430 0 l 1,17,-1
 202 369 l 1,18,-1
 421 690 l 1,19,-1
 548 690 l 1,20,-1
 328 376 l 1,21,-1
 509 92 l 1,22,-1
 577 92 l 1,23,-1
 577 -48 l 2,4,5
EndSplineSet
EndChar
StartChar: uni03D0
Encoding: 976 976 763
Width: 600
GlyphClass: 2
Flags: W
LayerCount: 2
Fore
SplineSet
491.5 377 m 128,-1,1
 531 319 531 319 531 226 c 0,2,3
 531 162 531 162 503 107 c 128,-1,4
 475 52 475 52 422.5 19.5 c 128,-1,5
 370 -13 370 -13 299 -13 c 0,6,7
 178 -13 178 -13 123.5 78.5 c 128,-1,8
 69 170 69 170 69 345 c 0,9,10
 69 473 69 473 106.5 565.5 c 128,-1,11
 144 658 144 658 205.5 705.5 c 128,-1,12
 267 753 267 753 338 753 c 0,13,14
 416 753 416 753 453.5 713.5 c 128,-1,15
 491 674 491 674 491 619 c 0,16,17
 491 556 491 556 447.5 506 c 128,-1,18
 404 456 404 456 321 428 c 1,19,20
 346 435 346 435 366 435 c 0,21,0
 452 435 452 435 491.5 377 c 128,-1,1
238.5 610.5 m 128,-1,23
 198 551 198 551 188 420 c 1,24,-1
 216 431 l 2,25,26
 304 468 304 468 343.5 510.5 c 128,-1,27
 383 553 383 553 383 613 c 0,28,29
 383 642 383 642 369.5 656 c 128,-1,30
 356 670 356 670 331 670 c 0,31,22
 279 670 279 670 238.5 610.5 c 128,-1,23
383.5 113 m 128,-1,33
 414 153 414 153 414 222 c 0,34,35
 414 297 414 297 391.5 336 c 128,-1,36
 369 375 369 375 313 375 c 0,37,38
 288 375 288 375 265.5 369 c 128,-1,39
 243 363 243 363 213 348 c 2,40,-1
 185 335 l 1,41,42
 184 201 184 201 210 137 c 128,-1,43
 236 73 236 73 299 73 c 0,44,32
 353 73 353 73 383.5 113 c 128,-1,33
EndSplineSet
EndChar
StartChar: uni03D1
Encoding: 977 977 764
Width: 600
GlyphClass: 2
Flags: W
AnchorPoint: "Anchor-3" 300 740 basechar 0
AnchorPoint: "Anchor-2" 300 0 basechar 0
LayerCount: 2
Fore
SplineSet
541 403 m 1,0,-1
 507 403 l 1,1,-1
 507 402 l 2,2,3
 507 194 507 194 448.5 90.5 c 128,-1,4
 390 -13 390 -13 266 -13 c 0,5,6
 218 -13 218 -13 177.5 7.5 c 128,-1,7
 137 28 137 28 113 68.5 c 128,-1,8
 89 109 89 109 89 168 c 2,9,-1
 89 350 l 1,10,-1
 199 350 l 1,11,-1
 199 171 l 2,12,13
 199 122 199 122 217.5 97.5 c 128,-1,14
 236 73 236 73 269 73 c 0,15,16
 329 73 329 73 358 147.5 c 128,-1,17
 387 222 387 222 387 401 c 2,18,-1
 387 403 l 1,19,-1
 288 403 l 2,20,21
 183 403 183 403 127 450 c 128,-1,22
 71 497 71 497 71 574 c 0,23,24
 71 623 71 623 96 664 c 128,-1,25
 121 705 121 705 164.5 729 c 128,-1,26
 208 753 208 753 263 753 c 0,27,28
 368 753 368 753 427.5 683 c 128,-1,29
 487 613 487 613 502 487 c 1,30,-1
 542 487 l 1,31,-1
 541 403 l 1,0,-1
384 486 m 1,32,33
 375 580 375 580 345 623.5 c 128,-1,34
 315 667 315 667 264 667 c 0,35,36
 225 667 225 667 201.5 642 c 128,-1,37
 178 617 178 617 178 577 c 0,38,39
 178 531 178 531 207.5 508 c 128,-1,40
 237 485 237 485 288 485 c 2,41,-1
 384 486 l 1,32,33
EndSplineSet
EndChar
StartChar: uni03D2
Encoding: 978 978 609
Width: 600
GlyphClass: 2
Flags: W
AnchorPoint: "Anchor-3" 303 690 basechar 0
AnchorPoint: "Anchor-2" 0 0 basechar 0
LayerCount: 2
Fore
SplineSet
549 615 m 0,1,2
 531 615 531 615 518 603.5 c 128,-1,3
 505 592 505 592 492 563 c 2,4,-1
 355 264 l 1,5,-1
 355 0 l 1,6,-1
 238 0 l 1,7,-1
 238 263 l 1,8,-1
 28 690 l 1,9,-1
 156 690 l 1,10,-1
 299 362 l 1,11,-1
 394 588 l 2,12,13
 421 653 421 653 452 678.5 c 128,-1,14
 483 704 483 704 538 704 c 0,15,16
 572 704 572 704 597 693 c 1,17,-1
 576 611 l 1,18,0
 560 615 560 615 549 615 c 0,1,2
EndSplineSet
EndChar
StartChar: uni03D5
Encoding: 981 981 765
Width: 600
GlyphClass: 2
Flags: W
LayerCount: 2
Fore
SplineSet
537.5 128.5 m 128,-1,1
 510 71 510 71 462 39.5 c 128,-1,2
 414 8 414 8 353 4 c 1,3,-1
 353 -203 l 1,4,-1
 247 -216 l 1,5,-1
 247 4 l 1,6,7
 151 12 151 12 93 79.5 c 128,-1,8
 35 147 35 147 35 263 c 0,9,10
 35 343 35 343 62.5 400.5 c 128,-1,11
 90 458 90 458 138 489.5 c 128,-1,12
 186 521 186 521 247 525 c 1,13,-1
 247 739 l 1,14,-1
 353 751 l 1,15,-1
 353 524 l 1,16,17
 450 517 450 517 507.5 449 c 128,-1,18
 565 381 565 381 565 266 c 0,19,0
 565 186 565 186 537.5 128.5 c 128,-1,1
169.5 131.5 m 128,-1,21
 198 85 198 85 253 80 c 1,22,-1
 253 450 l 1,23,24
 141 439 141 439 141 263 c 0,25,20
 141 178 141 178 169.5 131.5 c 128,-1,21
458 266 m 0,27,28
 458 352 458 352 429.5 398 c 128,-1,29
 401 444 401 444 347 449 c 1,30,-1
 347 80 l 1,31,26
 458 92 458 92 458 266 c 0,27,28
EndSplineSet
EndChar
StartChar: uni03D6
Encoding: 982 982 766
Width: 600
GlyphClass: 2
Flags: W
AnchorPoint: "Anchor-3" 300 528 basechar 0
AnchorPoint: "Anchor-2" 300 0 basechar 0
LayerCount: 2
Fore
SplineSet
587 448 m 1,0,-1
 524 448 l 1,1,2
 569 346 569 346 569 237 c 0,3,4
 569 118 569 118 530 52.5 c 128,-1,5
 491 -13 491 -13 419 -13 c 0,6,7
 372 -13 372 -13 342 14.5 c 128,-1,8
 312 42 312 42 302 98 c 1,9,10
 289 43 289 43 259 15 c 128,-1,11
 229 -13 229 -13 186 -13 c 0,12,13
 113 -13 113 -13 75 51 c 128,-1,14
 37 115 37 115 37 237 c 0,15,16
 37 346 37 346 80 447 c 1,17,18
 53 446 53 446 19 436 c 1,19,-1
 0 511 l 1,20,21
 24 520 24 520 49.5 523.5 c 128,-1,22
 75 527 75 527 126 528 c 2,23,-1
 587 528 l 1,24,-1
 587 448 l 1,0,-1
445 448 m 1,26,-1
 159 447 l 1,27,28
 139 352 139 352 139 243 c 0,29,30
 139 159 139 159 152.5 116 c 128,-1,31
 166 73 166 73 200 73 c 0,32,33
 232 73 232 73 244.5 114 c 128,-1,34
 257 155 257 155 257 232 c 2,35,-1
 257 331 l 1,36,-1
 348 345 l 1,37,-1
 348 233 l 2,38,39
 348 151 348 151 360.5 112 c 128,-1,40
 373 73 373 73 407 73 c 0,41,42
 440 73 440 73 453.5 115.5 c 128,-1,43
 467 158 467 158 467 243 c 0,44,25
 467 349 467 349 445 448 c 1,26,-1
EndSplineSet
EndChar
StartChar: uni03D7
Encoding: 983 983 762
Width: 600
GlyphClass: 2
Flags: W
AnchorPoint: "Anchor-3" 300 528 basechar 0
AnchorPoint: "Anchor-2" 300 -208 basechar 0
LayerCount: 2
Fore
SplineSet
545 -51 m 2,0,1
 545 -132 545 -132 501.5 -174.5 c 128,-1,2
 458 -217 458 -217 381 -217 c 0,3,4
 310 -217 310 -217 257 -178 c 1,5,-1
 298 -109 l 1,6,7
 319 -121 319 -121 335.5 -126 c 128,-1,8
 352 -131 352 -131 375 -131 c 0,9,10
 405 -131 405 -131 422 -114 c 128,-1,11
 439 -97 439 -97 439 -61 c 2,12,-1
 439 28 l 1,13,14
 414 45 414 45 402 72.5 c 128,-1,15
 390 100 390 100 390 142 c 0,16,17
 390 183 390 183 401 274.5 c 128,-1,18
 412 366 412 366 420 404 c 1,19,-1
 197 -9 l 1,20,-1
 100 22 l 1,21,-1
 100 376 l 2,22,23
 100 413 100 413 90.5 430 c 128,-1,24
 81 447 81 447 55 459 c 1,25,-1
 90 542 l 1,26,27
 152 527 152 527 181 489 c 128,-1,28
 210 451 210 451 210 386 c 0,29,30
 210 345 210 345 198.5 255 c 128,-1,31
 187 165 187 165 179 125 c 1,32,-1
 402 538 l 1,33,-1
 500 506 l 1,34,-1
 500 152 l 2,35,36
 500 113 500 113 509.5 95.5 c 128,-1,37
 519 78 519 78 545 66 c 1,38,-1
 545 -51 l 2,0,1
EndSplineSet
EndChar
StartChar: uni03D8
Encoding: 984 984 603
Width: 600
GlyphClass: 2
Flags: W
AnchorPoint: "Anchor-3" 300 690 basechar 0
AnchorPoint: "Anchor-2" 300 -208 basechar 0
LayerCount: 2
Fore
SplineSet
509 106.5 m 128,-1,1
 456 13 456 13 356 -8 c 1,2,-1
 356 -204 l 1,3,-1
 244 -204 l 1,4,-1
 244 -8 l 1,5,6
 144 12 144 12 91 105 c 128,-1,7
 38 198 38 198 38 344 c 0,8,9
 38 508 38 508 105.5 606 c 128,-1,10
 173 704 173 704 300 704 c 256,11,12
 427 704 427 704 494.5 607.5 c 128,-1,13
 562 511 562 511 562 345 c 0,14,0
 562 200 562 200 509 106.5 c 128,-1,1
409 143 m 128,-1,16
 443 209 443 209 443 345 c 256,17,18
 443 481 443 481 409 547 c 128,-1,19
 375 613 375 613 300 613 c 256,20,21
 225 613 225 613 191 547 c 128,-1,22
 157 481 157 481 157 344 c 0,23,24
 157 209 157 209 191.5 143 c 128,-1,25
 226 77 226 77 300 77 c 0,26,15
 375 77 375 77 409 143 c 128,-1,16
EndSplineSet
EndChar
StartChar: uni03D9
Encoding: 985 985 757
Width: 600
GlyphClass: 2
Flags: W
AnchorPoint: "Anchor-3" 300 528 basechar 0
AnchorPoint: "Anchor-2" 300 -208 basechar 0
LayerCount: 2
Fore
SplineSet
491 82 m 128,-1,1
 443 10 443 10 355 -8 c 1,2,-1
 355 -203 l 1,3,-1
 245 -216 l 1,4,-1
 245 -8 l 1,5,6
 156 9 156 9 108.5 80.5 c 128,-1,7
 61 152 61 152 61 264 c 0,8,9
 61 390 61 390 124.5 466 c 128,-1,10
 188 542 188 542 301 542 c 0,11,12
 415 542 415 542 477 467.5 c 128,-1,13
 539 393 539 393 539 265 c 0,14,0
 539 154 539 154 491 82 c 128,-1,1
391 120 m 128,-1,16
 421 167 421 167 421 265 c 0,17,18
 421 362 421 362 391 408.5 c 128,-1,19
 361 455 361 455 301 455 c 0,20,21
 240 455 240 455 209.5 408 c 128,-1,22
 179 361 179 361 179 264 c 0,23,24
 179 166 179 166 209 119.5 c 128,-1,25
 239 73 239 73 300 73 c 256,26,15
 361 73 361 73 391 120 c 128,-1,16
EndSplineSet
EndChar
StartChar: uni03DA
Encoding: 986 986 604
Width: 600
GlyphClass: 2
Flags: W
AnchorPoint: "Anchor-3" 300 690 basechar 0
AnchorPoint: "Anchor-2" 0 0 basechar 0
LayerCount: 2
Fore
SplineSet
320 -146 m 1,0,1
 366 -124 366 -124 388.5 -102.5 c 128,-1,2
 411 -81 411 -81 411 -51 c 0,3,4
 411 -32 411 -32 399.5 -18.5 c 128,-1,5
 388 -5 388 -5 360.5 8.5 c 128,-1,6
 333 22 333 22 277 45 c 0,7,8
 167 90 167 90 114.5 161 c 128,-1,9
 62 232 62 232 62 357 c 0,10,11
 62 451 62 451 98.5 526 c 128,-1,12
 135 601 135 601 211.5 645.5 c 128,-1,13
 288 690 288 690 403 690 c 2,14,-1
 563 690 l 1,15,-1
 548 595 l 1,16,-1
 408 595 l 2,17,18
 295 595 295 595 239 532 c 128,-1,19
 183 469 183 469 183 360 c 0,20,21
 183 293 183 293 198.5 250.5 c 128,-1,22
 214 208 214 208 250.5 178.5 c 128,-1,23
 287 149 287 149 355 122 c 0,24,25
 447 85 447 85 487.5 50 c 128,-1,26
 528 15 528 15 528 -43 c 0,27,28
 528 -99 528 -99 489.5 -139.5 c 128,-1,29
 451 -180 451 -180 365 -217 c 1,30,-1
 320 -146 l 1,0,1
EndSplineSet
EndChar
StartChar: uni03DB
Encoding: 987 987 758
Width: 600
GlyphClass: 2
Flags: W
AnchorPoint: "Anchor-3" 300 528 basechar 0
AnchorPoint: "Anchor-2" 300 -208 basechar 0
LayerCount: 2
Fore
SplineSet
512 572 m 1,0,1
 512 516 512 516 491 483 c 128,-1,2
 470 450 470 450 434 433 c 128,-1,3
 398 416 398 416 336 400 c 0,4,5
 279 386 279 386 247.5 371.5 c 128,-1,6
 216 357 216 357 199.5 330.5 c 128,-1,7
 183 304 183 304 183 258 c 0,8,9
 183 213 183 213 197.5 186 c 128,-1,10
 212 159 212 159 246 140 c 128,-1,11
 280 121 280 121 347 100 c 0,12,13
 403 81 403 81 436.5 64 c 128,-1,14
 470 47 470 47 488.5 21 c 128,-1,15
 507 -5 507 -5 507 -44 c 0,16,17
 507 -99 507 -99 467.5 -139.5 c 128,-1,18
 428 -180 428 -180 342 -217 c 1,19,-1
 298 -146 l 1,20,21
 345 -124 345 -124 367 -103.5 c 128,-1,22
 389 -83 389 -83 389 -54 c 0,23,24
 389 -34 389 -34 376 -21.5 c 128,-1,25
 363 -9 363 -9 341 -0.5 c 128,-1,26
 319 8 319 8 264 26 c 0,27,28
 200 47 200 47 157.5 72.5 c 128,-1,29
 115 98 115 98 90 142.5 c 128,-1,30
 65 187 65 187 65 256 c 0,31,32
 65 348 65 348 113.5 398.5 c 128,-1,33
 162 449 162 449 255 474 c 2,34,-1
 282 481 l 2,35,36
 336 495 336 495 360 504.5 c 128,-1,37
 384 514 384 514 396.5 531 c 128,-1,38
 409 548 409 548 409 580 c 1,39,-1
 512 572 l 1,0,1
EndSplineSet
EndChar
StartChar: uni03DC
Encoding: 988 988 605
Width: 600
GlyphClass: 2
Flags: W
AnchorPoint: "Anchor-3" 335 690 basechar 0
AnchorPoint: "Anchor-2" 169 0 basechar 0
LayerCount: 2
Fore
SplineSet
227 594 m 1,0,-1
 227 388 l 1,1,-1
 369 388 l 2,2,3
 406 388 406 388 430.5 382.5 c 128,-1,4
 455 377 455 377 479 364 c 1,5,-1
 450 283 l 1,6,7
 430 291 430 291 410 294.5 c 128,-1,8
 390 298 390 298 360 298 c 2,9,-1
 227 298 l 1,10,-1
 227 0 l 1,11,-1
 111 0 l 1,12,-1
 111 690 l 1,13,-1
 542 690 l 1,14,-1
 530 594 l 1,15,-1
 227 594 l 1,0,-1
EndSplineSet
EndChar
StartChar: uni03DD
Encoding: 989 989 759
Width: 600
GlyphClass: 2
Flags: W
AnchorPoint: "Anchor-3" 300 528 basechar 0
AnchorPoint: "Anchor-2" 300 -208 basechar 0
LayerCount: 2
Fore
SplineSet
244 420 m 128,-1,1
 225 400 225 400 225 357 c 2,2,-1
 225 238 l 1,3,-1
 383 238 l 2,4,5
 419 238 419 238 443.5 232.5 c 128,-1,6
 468 227 468 227 492 214 c 1,7,-1
 465 138 l 1,8,9
 423 152 423 152 375 152 c 2,10,-1
 225 152 l 1,11,-1
 225 -201 l 1,12,-1
 113 -217 l 1,13,-1
 113 354 l 2,14,15
 113 437 113 437 159.5 482.5 c 128,-1,16
 206 528 206 528 295 528 c 2,17,-1
 532 528 l 1,18,-1
 518 441 l 1,19,-1
 304 440 l 2,20,0
 263 440 263 440 244 420 c 128,-1,1
EndSplineSet
EndChar
StartChar: uni03DE
Encoding: 990 990 606
Width: 600
GlyphClass: 2
Flags: W
AnchorPoint: "Anchor-3" 300 690 basechar 0
AnchorPoint: "Anchor-2" 300 0 basechar 0
LayerCount: 2
Fore
SplineSet
540 300 m 1,0,-1
 539 300 l 1,1,-1
 317 0 l 1,2,-1
 190 0 l 1,3,-1
 413 300 l 1,4,-1
 81 300 l 1,5,-1
 61 396 l 1,6,-1
 282 690 l 1,7,-1
 409 690 l 1,8,-1
 188 396 l 1,9,-1
 519 396 l 1,10,-1
 540 300 l 1,0,-1
EndSplineSet
EndChar
StartChar: uni03DF
Encoding: 991 991 760
Width: 600
GlyphClass: 2
Flags: W
AnchorPoint: "Anchor-3" 300 740 basechar 0
AnchorPoint: "Anchor-2" 300 0 basechar 0
LayerCount: 2
Fore
SplineSet
426 193 m 2,0,1
 389 118 389 118 373 74 c 128,-1,2
 357 30 357 30 350 -13 c 1,3,-1
 251 8 l 1,4,5
 255 60 255 60 275 111.5 c 128,-1,6
 295 163 295 163 339 241 c 2,7,-1
 404 357 l 1,8,-1
 106 271 l 1,9,-1
 76 355 l 1,10,-1
 171 548 l 2,11,12
 208 622 208 622 224 666 c 128,-1,13
 240 710 240 710 247 755 c 1,14,-1
 346 734 l 1,15,16
 342 681 342 681 322 629 c 128,-1,17
 302 577 302 577 259 501 c 2,18,-1
 197 390 l 1,19,-1
 493 475 l 1,20,-1
 524 392 l 1,21,-1
 426 193 l 2,0,1
EndSplineSet
EndChar
StartChar: uni03E0
Encoding: 992 992 607
Width: 600
GlyphClass: 2
Flags: W
AnchorPoint: "Anchor-3" 300 690 basechar 0
AnchorPoint: "Anchor-2" 300 0 basechar 0
LayerCount: 2
Fore
SplineSet
473 0 m 1,0,-1
 381 268 l 1,1,-1
 299 0 l 1,2,-1
 209 2 l 1,3,-1
 339 389 l 1,4,-1
 303 493 l 1,5,-1
 129 0 l 1,6,-1
 17 0 l 1,7,-1
 258 610 l 1,8,-1
 224 690 l 1,9,-1
 323 690 l 1,10,-1
 583 0 l 1,11,-1
 473 0 l 1,0,-1
EndSplineSet
EndChar
StartChar: uni03E1
Encoding: 993 993 761
Width: 600
GlyphClass: 2
Flags: W
AnchorPoint: "Anchor-3" 300 740 basechar 0
AnchorPoint: "Anchor-2" 300 -208 basechar 0
LayerCount: 2
Fore
SplineSet
420.5 496 m 128,-1,1
 527 339 527 339 527 96 c 0,2,3
 527 21 527 21 515 -65 c 128,-1,4
 503 -151 503 -151 485 -215 c 1,5,-1
 396 -202 l 1,6,7
 427 -56 427 -56 427 96 c 0,8,9
 427 171 427 171 416 240 c 1,10,-1
 316 0 l 1,11,-1
 229 0 l 1,12,-1
 383 359 l 1,13,14
 364 406 364 406 337 448 c 1,15,-1
 124 0 l 1,16,-1
 23 0 l 1,17,-1
 274 526 l 1,18,19
 192 611 192 611 55 683 c 1,20,-1
 92 755 l 1,21,0
 314 653 314 653 420.5 496 c 128,-1,1
EndSplineSet
EndChar
StartChar: uni03F0
Encoding: 1008 1008 767
Width: 600
GlyphClass: 2
Flags: W
AnchorPoint: "Anchor-3" 300 528 basechar 0
AnchorPoint: "Anchor-2" 300 0 basechar 0
LayerCount: 2
Fore
SplineSet
510 98 m 128,-1,1
 520 81 520 81 545 69 c 1,2,-1
 509 -13 l 1,3,4
 447 2 447 2 418.5 39.5 c 128,-1,5
 390 77 390 77 390 142 c 0,6,7
 390 183 390 183 401.5 273.5 c 128,-1,8
 413 364 413 364 421 404 c 1,9,-1
 198 -9 l 1,10,-1
 100 22 l 1,11,-1
 101 376 l 2,12,13
 101 413 101 413 91 430 c 128,-1,14
 81 447 81 447 56 459 c 1,15,-1
 91 542 l 1,16,17
 152 527 152 527 181 489 c 128,-1,18
 210 451 210 451 210 386 c 0,19,20
 210 346 210 346 199 257.5 c 128,-1,21
 188 169 188 169 180 125 c 1,22,-1
 402 538 l 1,23,-1
 500 506 l 1,24,-1
 500 152 l 2,25,0
 500 115 500 115 510 98 c 128,-1,1
EndSplineSet
EndChar
StartChar: uni03F1
Encoding: 1009 1009 768
Width: 600
GlyphClass: 2
Flags: W
AnchorPoint: "Anchor-3" 300 528 basechar 0
AnchorPoint: "Anchor-2" 300 -208 basechar 0
LayerCount: 2
Fore
SplineSet
433.5 -124 m 128,-1,1
 468 -146 468 -146 480 -186 c 1,2,-1
 379 -218 l 1,3,4
 372 -203 372 -203 361.5 -195 c 128,-1,5
 351 -187 351 -187 329 -181.5 c 128,-1,6
 307 -176 307 -176 258 -168 c 0,7,8
 168 -155 168 -155 126 -112.5 c 128,-1,9
 84 -70 84 -70 84 20 c 2,10,-1
 84 272 l 2,11,12
 84 405 84 405 140.5 473.5 c 128,-1,13
 197 542 197 542 307 542 c 0,14,15
 418 542 418 542 477.5 474.5 c 128,-1,16
 537 407 537 407 537 289 c 0,17,18
 537 218 537 218 512.5 157 c 128,-1,19
 488 96 488 96 441 59 c 128,-1,20
 394 22 394 22 330 22 c 0,21,22
 245 22 245 22 196 89 c 1,23,-1
 196 14 l 2,24,25
 196 -24 196 -24 207 -43.5 c 128,-1,26
 218 -63 218 -63 245.5 -73.5 c 128,-1,27
 273 -84 273 -84 330 -92 c 0,28,0
 399 -102 399 -102 433.5 -124 c 128,-1,1
222 408 m 128,-1,30
 196 359 196 359 196 257 c 2,31,-1
 196 177 l 1,32,33
 215 143 215 143 241.5 125.5 c 128,-1,34
 268 108 268 108 301 108 c 0,35,36
 356 108 356 108 387 155.5 c 128,-1,37
 418 203 418 203 418 288 c 0,38,39
 418 372 418 372 390 414.5 c 128,-1,40
 362 457 362 457 309 457 c 0,41,29
 248 457 248 457 222 408 c 128,-1,30
EndSplineSet
EndChar
StartChar: uni03FB
Encoding: 1019 1019 773
Width: 600
GlyphClass: 2
Flags: W
AnchorPoint: "Anchor-3" 300 528 basechar 0
AnchorPoint: "Anchor-2" 300 -208 basechar 0
LayerCount: 2
Fore
SplineSet
79 528 m 1,0,-1
 215 528 l 1,1,-1
 295 159 l 1,2,-1
 387 528 l 1,3,-1
 522 528 l 1,4,-1
 566 0 l 1,5,-1
 461 0 l 1,6,-1
 446 217 l 2,7,8
 442 280 442 280 442 356 c 0,9,10
 442 408 442 408 443 439 c 1,11,-1
 343 61 l 1,12,-1
 242 61 l 1,13,-1
 154 436 l 1,14,15
 154 378 154 378 153 323 c 128,-1,16
 152 268 152 268 148 217 c 2,17,-1
 115 -205 l 1,18,-1
 13 -216 l 1,19,-1
 79 528 l 1,0,-1
EndSplineSet
EndChar
StartChar: uni03FC
Encoding: 1020 1020 774
Width: 600
GlyphClass: 2
Flags: W
AnchorPoint: "Anchor-3" 337 528 basechar 0
AnchorPoint: "Anchor-2" 329 -208 basechar 0
LayerCount: 2
Fore
SplineSet
225 45 m 1,1,-1
 225 -60 l 1,2,-1
 376 -60 l 1,3,-1
 376 -138 l 1,4,-1
 225 -138 l 1,5,-1
 225 -203 l 1,6,-1
 113 -216 l 1,7,-1
 113 -138 l 1,8,-1
 39 -138 l 1,9,-1
 39 -60 l 1,10,-1
 113 -60 l 1,11,-1
 113 272 l 2,12,13
 113 404 113 404 169.5 473 c 128,-1,14
 226 542 226 542 337 542 c 0,15,16
 566 542 566 542 566 265 c 0,17,18
 566 187 566 187 542 124 c 128,-1,19
 518 61 518 61 471.5 24 c 128,-1,20
 425 -13 425 -13 360 -13 c 0,21,0
 276 -13 276 -13 225 45 c 1,1,-1
225 133 m 1,22,23
 244 104 244 104 271 89 c 128,-1,24
 298 74 298 74 330 74 c 0,25,26
 387 74 387 74 417 122 c 128,-1,27
 447 170 447 170 447 264 c 0,28,29
 447 365 447 365 419.5 411 c 128,-1,30
 392 457 392 457 335 457 c 0,31,32
 275 457 275 457 250 407.5 c 128,-1,33
 225 358 225 358 225 254 c 2,34,-1
 225 133 l 1,22,23
EndSplineSet
EndChar
StartChar: uni03FD
Encoding: 1021 1021 616
Width: 600
GlyphClass: 2
Flags: W
AnchorPoint: "Anchor-3" 300 690 basechar 0
AnchorPoint: "Anchor-2" 300 0 basechar 0
LayerCount: 2
Fore
SplineSet
469 611 m 128,-1,1
 548 518 548 518 548 346 c 0,2,3
 548 232 548 232 508.5 151 c 128,-1,4
 469 70 469 70 399 28.5 c 128,-1,5
 329 -13 329 -13 240 -13 c 0,6,7
 108 -13 108 -13 24 69 c 1,8,-1
 80 139 l 1,9,10
 116 112 116 112 151 96.5 c 128,-1,11
 186 81 186 81 236 81 c 0,12,13
 323 81 323 81 375 145.5 c 128,-1,14
 427 210 427 210 427 346 c 0,15,16
 427 487 427 487 381 550 c 128,-1,17
 335 613 335 613 245 613 c 0,18,19
 161 613 161 613 85 562 c 1,20,-1
 34 634 l 1,21,22
 84 670 84 670 135 687 c 128,-1,23
 186 704 186 704 252 704 c 0,24,0
 390 704 390 704 469 611 c 128,-1,1
EndSplineSet
EndChar
StartChar: uni03FE
Encoding: 1022 1022 617
Width: 600
GlyphClass: 2
Flags: W
AnchorPoint: "Anchor-3" 300 690 basechar 0
AnchorPoint: "Anchor-2" 300 0 basechar 0
LayerCount: 2
Fore
SplineSet
474 687 m 128,-1,1
 522 670 522 670 566 634 c 1,2,-1
 506 562 l 1,3,4
 443 613 443 613 363 613 c 0,5,6
 279 613 279 613 226 548.5 c 128,-1,7
 173 484 173 484 173 346 c 0,8,9
 173 210 173 210 225 145.5 c 128,-1,10
 277 81 277 81 364 81 c 0,11,12
 414 81 414 81 449.5 96.5 c 128,-1,13
 485 112 485 112 520 140 c 1,14,-1
 576 69 l 1,15,16
 492 -13 492 -13 360 -13 c 0,17,18
 271 -13 271 -13 201 28.5 c 128,-1,19
 131 70 131 70 91.5 151 c 128,-1,20
 52 232 52 232 52 346 c 0,21,22
 52 458 52 458 92.5 539 c 128,-1,23
 133 620 133 620 203 662 c 128,-1,24
 273 704 273 704 358 704 c 0,25,0
 426 704 426 704 474 687 c 128,-1,1
417 397.5 m 128,-1,27
 437 378 437 378 437 348 c 256,28,29
 437 318 437 318 417 298.5 c 128,-1,30
 397 279 397 279 364 279 c 0,31,32
 333 279 333 279 313 298.5 c 128,-1,33
 293 318 293 318 293 348 c 256,34,35
 293 378 293 378 313 397.5 c 128,-1,36
 333 417 333 417 364 417 c 0,37,26
 397 417 397 417 417 397.5 c 128,-1,27
EndSplineSet
EndChar
